<svg xmlns="http://www.w3.org/2000/svg" viewBox="0 0 1000 339.96"><defs><style>.cls-1{fill:#f2ba2f;}.cls-2{fill:#ea4335;}.cls-3{fill:#34a853;}.cls-4{fill:#4285f4;}</style></defs><title>404</title><g id="レイヤー_2" data-name="レイヤー 2"><g id="イラスト"><path class="cls-1" d="M184.28,35.57H182.6a3.48,3.48,0,0,0-2.73,1.33L44.94,209.6h8.78L184.28,42.5Z"/><path class="cls-2" d="M42.08,244.75V224.5l6.24-8H39.53l-3.64,4.66a3.44,3.44,0,0,0-.73,2.13v24.9a3.46,3.46,0,0,0,3.46,3.46H184.28v-6.92Z"/><path class="cls-3" d="M219.44,42.49V209.6h6.92V39a3.46,3.46,0,0,0-3.46-3.46H191.2v6.92Z"/><rect class="cls-2" x="191.2" y="244.75" width="28.24" height="6.92"/><path class="cls-1" d="M226.36,239.27V216.52h-6.92v110L191.2,291V216.52h-6.92v75.69a3.43,3.43,0,0,0,.75,2.15l35.16,44.29a3.46,3.46,0,0,0,6.17-2.15V239.27Z"/><path class="cls-3" d="M294.66,245.7l-37.08-35.15a3.44,3.44,0,0,0-2.38-1h-1.38v6.92l29.78,28.23H226.36v6.92h65.92a3.45,3.45,0,0,0,2.38-6Z"/><path class="cls-2" d="M149.13,7.34h35.15V209.6h6.92V3.88A3.46,3.46,0,0,0,187.74.41h-40.3a3.47,3.47,0,0,0-2.72,1.33L120.58,32.63l4.93,4.93Z"/><path class="cls-4" d="M233.71,209.6H6.92V189.35L125.51,37.56l-4.93-4.93L.73,186A3.5,3.5,0,0,0,0,188.16v24.9a3.46,3.46,0,0,0,3.46,3.46H253.82V209.6Z"/><path class="cls-1" d="M888.54,35.57h-1.68a3.46,3.46,0,0,0-2.73,1.33L749.2,209.6H758L888.54,42.5Z"/><path class="cls-2" d="M746.33,244.75V224.5l6.24-8h-8.78l-3.64,4.66a3.44,3.44,0,0,0-.74,2.13v24.9a3.46,3.46,0,0,0,3.46,3.46H888.54v-6.92Z"/><path class="cls-3" d="M923.69,42.49V209.6h6.92V39a3.45,3.45,0,0,0-3.46-3.46H895.46v6.92Z"/><rect class="cls-2" x="895.46" y="244.75" width="28.24" height="6.92"/><path class="cls-1" d="M930.61,239.27V216.52h-6.92v110L895.46,291V216.52h-6.92v75.69a3.43,3.43,0,0,0,.75,2.15l35.15,44.29a3.48,3.48,0,0,0,2.71,1.31,3.41,3.41,0,0,0,1.14-.19,3.47,3.47,0,0,0,2.32-3.27V239.27Z"/><path class="cls-3" d="M998.92,245.7l-37.08-35.15a3.46,3.46,0,0,0-2.38-1h-1.38v6.92l29.78,28.23H930.61v6.92h65.93a3.46,3.46,0,0,0,2.38-6Z"/><path class="cls-2" d="M853.39,7.34h35.15V209.6h6.92V3.88A3.46,3.46,0,0,0,892,.41H851.7A3.51,3.51,0,0,0,849,1.74L824.84,32.63l4.93,4.93Z"/><path class="cls-4" d="M938,209.6H711.18V189.35L829.77,37.56l-4.93-4.93L705,186a3.5,3.5,0,0,0-.73,2.14v24.9a3.46,3.46,0,0,0,3.46,3.46H958.08V209.6Z"/><polygon class="cls-3" points="546.05 122.58 546.05 168.94 556.43 168.94 556.43 122.58 556.43 112.2 546.05 112.2 499.69 112.2 499.69 122.58 546.05 122.58"/><polygon class="cls-1" points="546.05 215.3 499.69 215.3 499.69 225.68 546.05 225.68 556.43 225.68 556.43 215.3 556.43 168.94 546.05 168.94 546.05 215.3"/><polygon class="cls-2" points="453.33 122.58 499.69 122.58 499.69 112.2 453.33 112.2 442.95 112.2 442.95 122.58 442.95 168.94 453.33 168.94 453.33 122.58"/><path class="cls-1" d="M499.69,327.5v10.39A169,169,0,0,0,668.63,168.94H658.25C658.25,256.37,587.12,327.5,499.69,327.5Z"/><path class="cls-3" d="M499.69,0V10.38c87.43,0,158.56,71.13,158.56,158.56h10.38A168.94,168.94,0,0,0,499.69,0Z"/><path class="cls-4" d="M341.13,168.94H330.75a169,169,0,0,0,168.94,169V327.5C412.26,327.5,341.13,256.37,341.13,168.94Z"/><polygon class="cls-4" points="442.95 225.68 453.33 225.68 499.69 225.68 499.69 215.3 453.33 215.3 453.33 168.94 442.95 168.94 442.95 215.3 442.95 225.68"/><path class="cls-2" d="M499.69,10.38V0A168.94,168.94,0,0,0,330.75,168.94h10.38C341.13,81.51,412.26,10.38,499.69,10.38Z"/></g></g></svg>