<svg xmlns="http://www.w3.org/2000/svg" xmlns:xlink="http://www.w3.org/1999/xlink" viewBox="0 0 192 192"><defs><style>.cls-1{fill:url(#名称未設定グラデーション_11);}.cls-2{fill:#fff;}</style><linearGradient id="名称未設定グラデーション_11" x1="5.88" y1="5.88" x2="186.12" y2="186.12" gradientUnits="userSpaceOnUse"><stop offset="0" stop-color="#ed2f78"/><stop offset="1" stop-color="#ea352d"/></linearGradient></defs><title>apple-touch-icon-precomposed</title><g id="レイヤー_2" data-name="レイヤー 2"><g id="レイヤー_1-2" data-name="レイヤー 1"><rect class="cls-1" width="192" height="192" rx="20.01" ry="20.01"/><path class="cls-2" d="M128.66,139.31l-21.34,12.31L95,130.28,116.35,118l2.92,5.06,46.59-26.88A70,70,0,0,0,129.3,34.6L82.19,61.78A12.26,12.26,0,1,1,73.12,49.5a12.19,12.19,0,0,1,2.58,1l38.21-22a69.84,69.84,0,0,0-81.39,96.64L94.31,89.48h0l-4-7,27.22,1.08-12.69,24.11-4-7h0L39,136.38a69.85,69.85,0,0,0,124.46-22.29c.16-.6.29-1.21.44-1.82l-38.15,22Z"/></g></g></svg>