<svg xmlns="http://www.w3.org/2000/svg" viewBox="0 0 329.17 414.24"><defs><style>.cls-1{fill:#00a88a;}.cls-2{fill:#8ac4e6;}.cls-3{fill:#3a88bd;}.cls-4{fill:#b6927f;}.cls-5{fill:#33ba91;}.cls-6{fill:#fff;}.cls-7{fill:#231815;}.cls-8{fill:#dfdcdb;}.cls-9{fill:#f66;}</style></defs><title>gopher_g</title><g id="レイヤー_2" data-name="レイヤー 2"><g id="gopher"><path class="cls-1" d="M38.9,123.59c-5.49.2-10.64,3.21-15.4,6.2-6,3.79-11,7.39-14.69,13.24a49,49,0,0,0-5.9,12.53C.82,163.31-1,171.39.65,178.91a2.7,2.7,0,0,0,.91,1.73,3.3,3.3,0,0,0,2.08.32c16-1,31.54-8.76,43.8-19.42,3.93-3.42,7.72-7.4,9-12.16Z"/><path class="cls-1" d="M37.55,338.94s2,50.08-13.23,69.35c0,0,18.7.29,33.08-3.45s54.86-3.24,54.86-3.24H235.92L273.26,408s30.08,2,39.19-3.57c24.08-14.57,9-155.82-11-191.77s-108,28.76-108,28.76l-126,20.43Z"/><path class="cls-1" d="M285.08,409.8c-6.42,0-11.41-.31-11.91-.34l-.15,0L235.8,403H112.26c-.42,0-40.47-.45-54.5,3.2-14.4,3.75-32.69,3.51-33.46,3.5a1.44,1.44,0,0,1-1.28-.82,1.43,1.43,0,0,1,.17-1.51c14.75-18.64,12.94-67.9,12.92-68.4a1.65,1.65,0,0,1,.1-.58L66.1,261.35a1.41,1.41,0,0,1,1.11-.9L192.9,240.08a346.42,346.42,0,0,1,35-22c26.25-14.23,46.39-20,59.87-17a21.63,21.63,0,0,1,15,10.88c9.6,17.28,18.72,60.25,22.18,104.49,1.74,22.15,1.81,41.88.22,57.08-1.85,17.65-5.87,28.46-11.94,32.13C307.56,409.1,294.71,409.8,285.08,409.8Zm-11.65-3.21c1.66.1,29.87,1.72,38.28-3.37,10.08-6.1,14-39.25,10.35-86.52-3.43-43.88-12.41-86.37-21.84-103.33a18.62,18.62,0,0,0-13.05-9.46c-12.61-2.75-32.62,3-57.89,16.74a342,342,0,0,0-35,21.95,1.35,1.35,0,0,1-.62.26L68.48,263.15,39,339.19a236,236,0,0,1-.92,27.33c-1.72,18.3-5.4,31.84-10.95,40.32,5.72-.08,19.13-.59,29.91-3.39,14.4-3.75,53.57-3.31,55.23-3.29H235.92l.25,0Z"/><path class="cls-2" d="M326.64,54.68c-10.74-22.11-36.92-2.6-43.58-9.48C249.24,10.28,208.25,1.63,176,0c0,0-14.55-.08-17.78,0C125.93.83,85,10.28,51.15,45.2,44.48,52.08,18.3,32.57,7.56,54.68-4.94,80.42,32.94,83.11,30.93,94.47,27.28,115.11,29.69,145.8,32.5,176,37.26,227.18-1,349.7,78.65,398.92c15,9.29,55.49,14.58,90.72,15.31h.3c35.23-.73,70.83-6,85.88-15.31C335.22,349.7,296.94,227.18,301.7,176c2.81-30.21,5.22-60.9,1.57-81.54C301.26,83.11,339.14,80.42,326.64,54.68Z"/><path class="cls-3" d="M296.42,58.58c-.94,3.44,3.44,3,5.08,13.34.6,3.8,14.45-5.62,8.83-12.61C305.72,53.58,297.34,55.22,296.42,58.58Z"/><path class="cls-3" d="M37.78,58.58c.94,3.44-3.44,3-5.08,13.34-.6,3.8-14.45-5.62-8.83-12.61C28.48,53.58,36.86,55.22,37.78,58.58Z"/><path class="cls-4" d="M241.16,401.63c5.49-15.48,24.76-11.19,37.17-2.78,3.32,2.25,5.09,3.4,1.75,6.56-2.24,2.12-7.37,1.51-6.82,2.61,2.16,4.33-16.3,4.79-27.92,2.67C240,409.7,239.34,406.78,241.16,401.63Z"/><path class="cls-4" d="M93,401.63c-5.49-15.48-24.76-11.19-37.16-2.78-3.33,2.25-5.1,3.4-1.76,6.56,2.24,2.12,7.37,1.51,6.82,2.61-2.16,4.33,16.3,4.79,27.92,2.67C94.23,409.7,94.87,406.78,93,401.63Z"/><path class="cls-1" d="M166.48,227.82a1.35,1.35,0,0,1-.55-.11c-51.12-21.16-98.11-27.68-133.34-31a1.44,1.44,0,1,1,.27-2.87c35.31,3.33,82.38,9.87,133.65,31,8.7-3.19,16.56-6.2,23.51-8.86,37.12-14.22,57.57-22,111.46-22.14h0a1.44,1.44,0,1,1,0,2.87c-25.31,0-44.2,1.79-61.25,5.66-16.26,3.69-30.79,9.25-49.18,16.3-7.1,2.71-15.14,5.79-24.07,9.06A1.43,1.43,0,0,1,166.48,227.82Z"/><path class="cls-2" d="M28.06,258.54c-9.73-3.3-26-37.47-21-47.12a19.48,19.48,0,0,1,26.18-8.58c9.44,4.91-5.38,16.72-1.81,28.68C35.83,246.38,36.93,261.56,28.06,258.54Z"/><path class="cls-4" d="M22.86,210.1c8,2.83,18,1.29,20-9.37,2.47-12.9-2.06-21.71-5.4-15.83-1.14,2,.06-6.82-2.46-7.72-8-2.83-17.35,3.12-21,13.29S14.9,207.26,22.86,210.1Z"/><path class="cls-2" d="M303.94,210c5.78,9.56,20.33,29,20.37,39.83a19.48,19.48,0,0,1-19.19,19.76c-10.64,0-3-17.3-11.73-26.23C282.56,232.27,299.09,202,303.94,210Z"/><path class="cls-4" d="M310.92,258.36c-8.37,1.19-16.53,7.22-13.39,17.61,3.81,12.57,11.91,18.26,12.13,11.5.07-2.31,3.12,6.07,5.77,5.69,8.36-1.19,13.91-10.82,12.39-21.51S319.28,257.17,310.92,258.36Z"/><path class="cls-1" d="M216.37,346.92c6.95-4,12.54-13.78,12.54-21.76V281.63c0-8-5.7-17.73-12.54-21.77l-37.73-21.77c-6.94-4-18.24-4-25.08,0l-37.73,21.77c-6.94,4-12.54,13.78-12.54,21.77v43.53c0,8,5.7,17.72,12.54,21.76l37.73,21.77c6.95,4,18.24,4,25.08,0Z"/><path class="cls-5" d="M211,337.6a15.64,15.64,0,0,0,7.15-12.44V281.63A15.93,15.93,0,0,0,211,269.19l-37.73-21.77a16,16,0,0,0-14.4,0l-37.73,21.77A15.64,15.64,0,0,0,114,281.63v43.53a15.93,15.93,0,0,0,7.15,12.44l37.73,21.76a16,16,0,0,0,14.4,0Z"/><path class="cls-6" d="M200.1,302.87c0,16-3,20.53-9,27.16s-14,9.33-23.94,9.33a33.13,33.13,0,0,1-22.8-8.81,35.91,35.91,0,0,1,23.52-63,37,37,0,0,1,30.48,16l-10.68,9c-4.56-8.4-11.09-11.3-20.52-11.51-10.37-.31-21.87,9.64-21,22.81.52,7.36,3.94,20.1,20.52,22.49,8.71,1.24,18.66-8.09,18.66-13.17H168.9V300.49h31.2v2.38Z"/></g><g id="mask"><path class="cls-1" d="M302.54,166.81c2.4-27.13,4-53.79.73-72.34a4.65,4.65,0,0,1,0-1.86,63,63,0,0,1-13.62,1.81c-8.07,0-31.66-33-64.4-33-31.39,0-55.92,15.8-57.88,49.16-2-33.36-26.48-49.16-57.87-49.16-32.74,0-56.33,33-64.4,33a64.26,64.26,0,0,1-14.26-2,4.67,4.67,0,0,1,.06,2c-3.28,18.54-1.67,45.19.73,72.31,15.8.8,45.7,7.73,74.34,7.73a63.89,63.89,0,0,0,34.33-10.23h0s13.21-8.62,27.07-8.62,27.08,8.62,27.08,8.62h0a63.89,63.89,0,0,0,34.33,10.23C257.09,174.51,286.58,167.75,302.54,166.81Z"/></g><g id="eye"><path class="cls-4" d="M167.25,155.44c-25.78,3.82-35,11.26-33,22.95,3.21,19.06,64.15,16.92,65.94,1C201.71,165.62,177.32,154,167.25,155.44Z"/><path class="cls-7" d="M150.55,163.12c-4.38,15.89,35,13.46,34,3.24-.56-5.9-5.83-13.62-19.84-13.16C159.3,153.38,152.58,155.71,150.55,163.12Z"/><path class="cls-8" d="M151.8,188.83c-1.41.64-3.83,16.41,3.5,17.22,5,.55,18.71,2.12,21.92.06,6.29-4,5.58-13.78,2.08-16.13C173.47,186.05,153.48,188.08,151.8,188.83Z"/><path class="cls-7" d="M116.82,128.4H79.73a3,3,0,0,1,0-6.05h37.09a3,3,0,1,1,0,6.05Z"/><path class="cls-7" d="M116.82,135.77H79.73a3,3,0,0,1,0-6.05h37.09a3,3,0,1,1,0,6.05Z"/><path class="cls-7" d="M254.47,128.4H217.38a3,3,0,1,1,0-6.05h37.09a3,3,0,0,1,0,6.05Z"/><path class="cls-7" d="M254.47,135.77H217.38a3,3,0,1,1,0-6.05h37.09a3,3,0,0,1,0,6.05Z"/><path class="cls-9" d="M50.24,186.89a3,3,0,0,1-2.54-4.68l18.55-28.54A3,3,0,0,1,71.32,157L52.77,185.51A3,3,0,0,1,50.24,186.89Z"/><path class="cls-9" d="M70.46,186.89a3,3,0,0,1-2.53-4.68l18.54-28.54A3,3,0,0,1,91.54,157L73,185.51A3,3,0,0,1,70.46,186.89Z"/><path class="cls-9" d="M90.69,186.89a3,3,0,0,1-2.54-4.68l18.55-28.54a3,3,0,0,1,5.07,3.29L93.22,185.51A3,3,0,0,1,90.69,186.89Z"/><path class="cls-9" d="M210.74,186.89a3,3,0,0,1-2.53-4.68l18.54-28.54a3,3,0,0,1,5.07,3.29l-18.54,28.55A3,3,0,0,1,210.74,186.89Z"/><path class="cls-9" d="M231,186.89a3,3,0,0,1-2.54-4.68L247,153.67a3,3,0,0,1,5.08,3.29L233.5,185.51A3,3,0,0,1,231,186.89Z"/><path class="cls-9" d="M251.19,186.89a3,3,0,0,1-1.64-.49,3,3,0,0,1-.89-4.19l18.54-28.54a3,3,0,0,1,5.07,3.29l-18.54,28.55A3,3,0,0,1,251.19,186.89Z"/></g></g></svg>