<svg xmlns="http://www.w3.org/2000/svg" viewBox="0 0 417.23 414.24"><defs><style>.cls-1{fill:#0083c0;}.cls-2{fill:#8cc5e7;}.cls-3{fill:#3a88bd;}.cls-4{fill:#b6927f;}.cls-5{fill:#b8937f;}.cls-6{fill:#0594cb;}.cls-7{fill:#fff;}.cls-8{fill:#dfdcdb;}.cls-9{fill:#111;}.cls-10{fill:#231815;}</style></defs><title>gopher_u</title><g id="レイヤー_2" data-name="レイヤー 2"><g id="gopher"><path class="cls-1" d="M342.28,106.75A56.13,56.13,0,0,1,373,86.58a4.94,4.94,0,0,1,3.65.09,5.15,5.15,0,0,1,1.91,2.94q6.28,17.74,12.56,35.47c1,2.76,1.93,5.91.55,8.49-1.06,2-3.22,3-5.25,4A226.21,226.21,0,0,1,332,154.28Z"/><path class="cls-1" d="M74.49,195.27s-5.3,29.89-51.67,35.1C18,232.45,35.29,316.72,1.44,363.26c0,0,41.63,21.43,71.2,24.06s62.17-7.08,103.41-6.17,143.89-26.92,143.89-26.92,52.68,1.28,71.48,33.55c0,0,49.19-93.38,7.8-155.64,0,0-32.58-11-55.37-36.87L232.54,245.18Z"/><path class="cls-1" d="M391.42,389.21a1.44,1.44,0,0,1-1.24-.71c-4.17-7.14-10.42-13.31-18.58-18.33a91.87,91.87,0,0,0-23.3-9.86,130.36,130.36,0,0,0-28.19-4.63c-2.53.67-27.3,7.31-56.34,13.75-39.39,8.75-68.19,13.18-85.66,13.18l-2.1,0c-20.2-.45-37.93,1.63-55.09,3.63s-33.24,3.88-48.41,2.53C43,386.13,2.49,365.41.78,364.53a1.43,1.43,0,0,1-.5-2.12C10.78,348,17.48,328,20.18,303c2.28-21.08,1.31-41.58.68-55.14-.67-14.12-.75-17.84,1.4-18.76a1.82,1.82,0,0,1,.4-.11c12.91-1.45,30.71-5.9,42.18-18.88,6.85-7.74,8.22-15,8.24-15a1.45,1.45,0,0,1,.67-1,1.47,1.47,0,0,1,1.18-.14l157.52,49.74L343.27,194a1.43,1.43,0,0,1,1.66.36c22.28,25.29,54.42,36.35,54.75,36.45a1.48,1.48,0,0,1,.73.57C410,245.75,415.54,263,416.9,282.62c1.08,15.64-.49,32.8-4.66,51a251.93,251.93,0,0,1-19.55,54.82,1.43,1.43,0,0,1-1.24.76ZM3.58,362.72c7.67,3.8,43.35,20.87,69.19,23.17,14.87,1.32,30.87-.55,47.82-2.53,16.45-1.92,35.09-4.1,55.49-3.65,40.55.89,142.46-26.59,143.48-26.87a2,2,0,0,1,.42,0,131.07,131.07,0,0,1,29,4.73,94.79,94.79,0,0,1,24.05,10.18,57.16,57.16,0,0,1,18.21,17.13,253.81,253.81,0,0,0,18.17-51.91c4.1-17.93,5.64-34.79,4.57-50.13-1.31-18.92-6.6-35.55-15.74-49.45a141.31,141.31,0,0,1-18.89-8.67c-9.93-5.41-24.13-14.56-35.91-27.65L233.13,246.49a1.39,1.39,0,0,1-1,.06L75.52,197.11a39.78,39.78,0,0,1-8.39,14.71,52.65,52.65,0,0,1-16,12.15,82.74,82.74,0,0,1-27.51,7.76c-.53,1.84-.19,9,.13,15.94.64,13.66,1.61,34.29-.69,55.59C20.37,328,13.82,348,3.58,362.72Z"/><path class="cls-2" d="M368.72,54.68c-10.74-22.11-36.93-2.6-43.59-9.48C291.32,10.28,250.32,1.63,218.07,0c0,0-14.55-.08-17.78,0C168,.83,127,10.28,93.22,45.2c-6.66,6.88-32.84-12.63-43.58,9.48C37.14,80.42,75,83.11,73,94.47c-3.65,20.64-1.24,51.33,1.57,81.54,4.76,51.17-33.52,173.69,46.15,222.91,15,9.29,55.49,14.58,90.72,15.31h.3c35.23-.73,70.83-6,85.87-15.31C377.3,349.7,339,227.18,343.78,176c2.81-30.21,5.22-60.9,1.57-81.54C343.33,83.11,381.22,80.42,368.72,54.68Z"/><path class="cls-3" d="M338.5,58.58c-.94,3.44,3.44,3,5.07,13.34.61,3.8,14.46-5.62,8.84-12.61C347.8,53.58,339.42,55.22,338.5,58.58Z"/><path class="cls-3" d="M79.86,58.58c.93,3.44-3.44,3-5.08,13.34-.6,3.8-14.46-5.62-8.83-12.61C70.56,53.58,78.94,55.22,79.86,58.58Z"/><path class="cls-4" d="M283.24,401.63c5.49-15.48,24.76-11.19,37.16-2.78,3.33,2.25,5.1,3.4,1.76,6.56-2.25,2.12-7.37,1.51-6.82,2.61,2.16,4.33-16.3,4.79-27.92,2.67C282.05,409.7,281.41,406.78,283.24,401.63Z"/><path class="cls-4" d="M135.12,401.63c-5.49-15.48-24.76-11.19-37.17-2.78-3.32,2.25-5.09,3.4-1.75,6.56,2.24,2.12,7.37,1.51,6.82,2.61-2.16,4.33,16.3,4.79,27.91,2.67C136.31,409.7,136.94,406.78,135.12,401.63Z"/><path class="cls-1" d="M208.55,227.82a1.27,1.27,0,0,1-.54-.11c-51.25-21.16-98.34-27.68-133.65-31a1.44,1.44,0,1,1,.27-2.87c35.39,3.33,82.56,9.87,134,31,8.72-3.19,16.59-6.2,23.56-8.86,37.2-14.22,57.69-22,111.7-22.15a1.44,1.44,0,0,1,0,2.88c-25.37,0-44.3,1.79-61.39,5.66-16.3,3.69-30.86,9.25-49.29,16.29-7.12,2.72-15.18,5.8-24.13,9.08A1.69,1.69,0,0,1,208.55,227.82Z"/><path class="cls-2" d="M87.85,256.39c33,49.05-17.58,1.94-27.9-1.51a19.48,19.48,0,0,1-12.56-24.52c3.38-10.09,17.35,2.7,28.61-2.69C90,221,82.61,248.61,87.85,256.39Z"/><path class="cls-5" d="M54.57,237.6c-5.37,26.93-44.17,5.17-32.48-9.75,5.71-7.23,15.34-6.77,23.26-5.14C49.75,223.61,56,230,54.57,237.6Z"/><path class="cls-2" d="M334.77,258c-34.76,47.83,17.5,2.57,27.93-.5a19.49,19.49,0,0,0,13.44-24c-3-10.2-17.43,2.07-28.49-3.73C333.92,222.49,340.28,250.38,334.77,258Z"/><path class="cls-5" d="M378.46,225.84c8-1.34,17.61-1.45,23.05,6,11.15,15.33-28.42,35.67-32.8,8.57C367.6,232.73,374,226.59,378.46,225.84Z"/><path class="cls-1" d="M258.45,346.92c6.95-4,12.54-13.78,12.54-21.76V281.63c0-8-5.7-17.73-12.54-21.77l-37.73-21.77c-6.94-4-18.24-4-25.08,0l-37.73,21.77c-6.94,4-12.54,13.78-12.54,21.77v43.53c0,8,5.6,17.72,12.54,21.76l37.73,21.77c6.94,4,18.24,4,25.08,0Z"/><path class="cls-6" d="M253.06,337.6a15.64,15.64,0,0,0,7.15-12.44V281.63a15.93,15.93,0,0,0-7.15-12.44l-37.73-21.77a16,16,0,0,0-14.4,0L163.2,269.19a15.64,15.64,0,0,0-7.15,12.44v43.53a15.93,15.93,0,0,0,7.15,12.44l37.73,21.76a16,16,0,0,0,14.4,0Z"/><path class="cls-7" d="M181.85,267.94h14.31v37.84a86.67,86.67,0,0,0,.52,11.71,10.45,10.45,0,0,0,3.73,6.53c2.17,1.76,4.66,2.17,8.39,2.17s5.08-.62,6.95-2.17a8.28,8.28,0,0,0,3.42-5.6,65.52,65.52,0,0,0,1-11.81V267.94h14.31v36.7c0,8.39-.31,14.3-1,17.82a18.89,18.89,0,0,1-11.81,14.41A33.2,33.2,0,0,1,209,338.94c-6.32,0-11.09-.72-14.3-2.28a21,21,0,0,1-7.78-6,19.35,19.35,0,0,1-3.73-7.77,92.77,92.77,0,0,1-1.35-17.73V267.94Z"/></g><g id="mask"><path class="cls-1" d="M268.52,63c-32.18,0-57.34,16.2-59.34,50.4C207.17,79.15,182,63,149.83,63c-33.57,0-57.75,33.86-66,33.86a59,59,0,0,1-11-1.21c-3.19,19.54-1.24,47.6,1.33,75.72,16.94,1.6,45.05,7.62,72.06,7.62a65.45,65.45,0,0,0,35.2-10.49h0s13.55-8.84,27.77-8.84,27.76,8.84,27.76,8.84h0a65.5,65.5,0,0,0,35.2,10.49c27,0,55.13-6,72.07-7.62,2.56-28.12,4.53-56.18,1.33-75.72a59,59,0,0,1-11,1.21C326.28,96.81,302.1,63,268.52,63Z"/></g><g id="eye"><path class="cls-8" d="M265.35,89.29c-49.38,22.38-46.59,42.35-25.82,60.52,38.73,33.89,79.08,0,74.64-34.29C309.91,82.63,303.13,72.17,265.35,89.29Z"/><path class="cls-8" d="M153.71,89.29c49.39,22.38,46.59,42.35,25.82,60.52-38.73,33.89-79.07,0-74.63-34.29C109.15,82.63,115.93,72.17,153.71,89.29Z"/><circle class="cls-9" cx="268.91" cy="127.6" r="18.46"/><circle class="cls-7" cx="264.07" cy="119.76" r="5.82"/><path class="cls-4" d="M209.33,158.39c-25.79,3.81-35,11.26-33,23,3.21,19.06,64.15,16.92,65.94,1C243.79,168.57,219.39,156.9,209.33,158.39Z"/><path class="cls-10" d="M192.62,166.07c-4.37,15.88,35,13.46,34,3.24-.56-5.9-5.83-13.62-19.84-13.16C201.38,156.33,194.66,158.66,192.62,166.07Z"/><path class="cls-8" d="M193.88,191.78c-1.41.64-3.83,16.41,3.5,17.22,5,.55,18.71,2.12,21.91.06,6.3-4,5.59-13.78,2.09-16.13C215.55,189,195.56,191,193.88,191.78Z"/><circle class="cls-9" cx="149.45" cy="127.6" r="18.46"/><circle class="cls-7" cx="154.29" cy="119.76" r="5.82"/></g></g></svg>