<svg xmlns="http://www.w3.org/2000/svg" xmlns:xlink="http://www.w3.org/1999/xlink" viewBox="0 0 129.42 129.06"><defs><style>.cls-1{fill:url(#名称未設定グラデーション_2);}.cls-2{fill:url(#名称未設定グラデーション_3);}.cls-3{fill:url(#名称未設定グラデーション_3-2);}.cls-4{fill:url(#名称未設定グラデーション_4);}.cls-5{fill:url(#名称未設定グラデーション_5);}.cls-6{fill:url(#名称未設定グラデーション_6);}.cls-7{fill:url(#名称未設定グラデーション_7);}.cls-8{fill:url(#名称未設定グラデーション_8);}.cls-9{fill:#fff;}.cls-10{fill:url(#名称未設定グラデーション_9);}.cls-11{fill:url(#名称未設定グラデーション_10);}.cls-12{fill:url(#名称未設定グラデーション_11);}.cls-13{fill:url(#名称未設定グラデーション_12);}.cls-14{fill:#9d1209;}.cls-15{fill:url(#名称未設定グラデーション_13);}.cls-16{fill:url(#名称未設定グラデーション_14);}.cls-17{fill:url(#名称未設定グラデーション_15);}.cls-18{fill:url(#名称未設定グラデーション_16);}</style><linearGradient id="名称未設定グラデーション_2" x1="113.71" y1="2903.88" x2="86.4" y2="2952.09" gradientTransform="matrix(1, 0, 0, -1, 0, 3044.68)" gradientUnits="userSpaceOnUse"><stop offset="0" stop-color="#fa7655"/><stop offset="0.41" stop-color="#e32b1e"/><stop offset="0.99" stop-color="#980000"/><stop offset="1" stop-color="#980000"/></linearGradient><linearGradient id="名称未設定グラデーション_3" x1="127.31" y1="2944.38" x2="92.12" y2="2967.99" gradientTransform="matrix(1, 0, 0, -1, 0, 3044.68)" gradientUnits="userSpaceOnUse"><stop offset="0" stop-color="#861101"/><stop offset="0.99" stop-color="#901209"/><stop offset="1" stop-color="#901209"/></linearGradient><linearGradient id="名称未設定グラデーション_3-2" x1="99.15" y1="2902.42" x2="63.97" y2="2926.03" xlink:href="#名称未設定グラデーション_3"/><linearGradient id="名称未設定グラデーション_4" x1="25.28" y1="2961.47" x2="30.73" y2="2926.02" gradientTransform="matrix(1, 0, 0, -1, 0, 3044.68)" gradientUnits="userSpaceOnUse"><stop offset="0" stop-color="#fff"/><stop offset="0.23" stop-color="#e47252"/><stop offset="0.46" stop-color="#dd3b20"/><stop offset="0.99" stop-color="#a50003"/><stop offset="1" stop-color="#a50003"/></linearGradient><linearGradient id="名称未設定グラデーション_5" x1="62.79" y1="2994.57" x2="64.8" y2="2958.39" gradientTransform="matrix(1, 0, 0, -1, 0, 3044.68)" gradientUnits="userSpaceOnUse"><stop offset="0" stop-color="#fff"/><stop offset="0.23" stop-color="#e3714e"/><stop offset="0.56" stop-color="#bd1a0d"/><stop offset="0.99" stop-color="#a70d00"/><stop offset="1" stop-color="#a70d00"/></linearGradient><linearGradient id="名称未設定グラデーション_6" x1="96.09" y1="3028.01" x2="102.11" y2="3002.08" gradientTransform="matrix(1, 0, 0, -1, 0, 3044.68)" gradientUnits="userSpaceOnUse"><stop offset="0" stop-color="#fff"/><stop offset="0.18" stop-color="#e36342"/><stop offset="0.4" stop-color="#c72410"/><stop offset="0.99" stop-color="#a70d00"/><stop offset="1" stop-color="#a70d00"/></linearGradient><linearGradient id="名称未設定グラデーション_7" x1="77.72" y1="3037.14" x2="103.64" y2="3050.1" gradientTransform="matrix(1, 0, 0, -1, 0, 3044.68)" gradientUnits="userSpaceOnUse"><stop offset="0" stop-color="#fff"/><stop offset="0.54" stop-color="#c71f11"/><stop offset="0.99" stop-color="#be0905"/><stop offset="1" stop-color="#be0905"/></linearGradient><linearGradient id="名称未設定グラデーション_8" x1="2.55" y1="2970.51" x2="4.68" y2="2949.14" gradientTransform="matrix(1, 0, 0, -1, 0, 3044.68)" gradientUnits="userSpaceOnUse"><stop offset="0" stop-color="#fff"/><stop offset="0.31" stop-color="#dd4024"/><stop offset="0.99" stop-color="#be190b"/><stop offset="1" stop-color="#be190b"/></linearGradient><linearGradient id="名称未設定グラデーション_9" x1="-12.12" y1="2943.36" x2="88.19" y2="3046.51" gradientTransform="matrix(1, 0, 0, -1, 0, 3044.68)" gradientUnits="userSpaceOnUse"><stop offset="0" stop-color="#bc0012"/><stop offset="0.07" stop-color="#fff"/><stop offset="0.17" stop-color="#fff"/><stop offset="0.27" stop-color="#c72f1c"/><stop offset="0.33" stop-color="#810c01"/><stop offset="0.46" stop-color="#a21601"/><stop offset="0.72" stop-color="#b21301"/><stop offset="0.99" stop-color="#e72609"/><stop offset="1" stop-color="#e72609"/></linearGradient><linearGradient id="名称未設定グラデーション_10" x1="64.72" y1="2932.96" x2="34.5" y2="2940.42" gradientTransform="matrix(1, 0, 0, -1, 0, 3044.68)" gradientUnits="userSpaceOnUse"><stop offset="0" stop-color="#8b0c01"/><stop offset="0.54" stop-color="#980c00"/><stop offset="0.99" stop-color="#a70d0e"/><stop offset="1" stop-color="#a70d0e"/></linearGradient><linearGradient id="名称未設定グラデーション_11" x1="116.61" y1="2969.22" x2="89.77" y2="2993.28" gradientTransform="matrix(1, 0, 0, -1, 0, 3044.68)" gradientUnits="userSpaceOnUse"><stop offset="0" stop-color="#7e110b"/><stop offset="0.99" stop-color="#9d0c00"/><stop offset="1" stop-color="#9d0c00"/></linearGradient><linearGradient id="名称未設定グラデーション_12" x1="126.48" y1="3013.37" x2="113.1" y2="3027.66" gradientTransform="matrix(1, 0, 0, -1, 0, 3044.68)" gradientUnits="userSpaceOnUse"><stop offset="0" stop-color="#79130d"/><stop offset="0.99" stop-color="#9d120b"/><stop offset="1" stop-color="#9d120b"/></linearGradient><radialGradient id="名称未設定グラデーション_13" cx="93.95" cy="2992.82" r="32.89" gradientTransform="matrix(1, 0, 0, -1, 0, 3044.68)" gradientUnits="userSpaceOnUse"><stop offset="0" stop-color="#a70d00"/><stop offset="0.99" stop-color="#7e0e08"/><stop offset="1" stop-color="#7e0e08"/></radialGradient><radialGradient id="名称未設定グラデーション_14" cx="48.4" cy="2949.47" r="43.73" gradientTransform="matrix(1, 0, 0, -1, 0, 3044.68)" gradientUnits="userSpaceOnUse"><stop offset="0" stop-color="#a20c00"/><stop offset="0.99" stop-color="#800e08"/><stop offset="1" stop-color="#800e08"/></radialGradient><linearGradient id="名称未設定グラデーション_15" x1="17.42" y1="2915.78" x2="6.52" y2="2952.75" gradientTransform="matrix(1, 0, 0, -1, 0, 3044.68)" gradientUnits="userSpaceOnUse"><stop offset="0" stop-color="#8a2114"/><stop offset="0.43" stop-color="#9d100a"/><stop offset="0.99" stop-color="#b2100c"/><stop offset="1" stop-color="#b2100c"/></linearGradient><linearGradient id="名称未設定グラデーション_16" x1="101.01" y1="3038.28" x2="125.44" y2="3027.5" gradientTransform="matrix(1, 0, 0, -1, 0, 3044.68)" gradientUnits="userSpaceOnUse"><stop offset="0" stop-color="#b21000"/><stop offset="0.44" stop-color="#900f08"/><stop offset="0.99" stop-color="#791c12"/><stop offset="1" stop-color="#791c12"/></linearGradient></defs><title>icon_ruby</title><g id="レイヤー_2" data-name="レイヤー 2"><g id="レイヤー_1-2" data-name="レイヤー 1"><polygon id="polygon3282" class="cls-1" points="100.27 85.18 26.38 129.06 122.05 122.57 129.42 26.09 100.27 85.18"/><polygon id="polygon3293" class="cls-2" points="122.21 122.5 113.98 65.75 91.58 95.32 122.21 122.5"/><polygon id="polygon3304" class="cls-3" points="122.32 122.5 62.07 117.77 26.7 128.94 122.32 122.5"/><polygon id="polygon3319" class="cls-4" points="26.78 128.95 41.83 79.64 8.71 86.73 26.78 128.95"/><polygon id="polygon3334" class="cls-5" points="91.58 95.48 77.73 41.24 38.1 78.39 91.58 95.48"/><polygon id="polygon3349" class="cls-6" points="126.28 42.01 88.82 11.41 78.38 45.14 126.28 42.01"/><polygon id="polygon3362" class="cls-7" points="108.76 0.5 86.73 12.68 72.83 0.34 108.76 0.5"/><polygon id="polygon3375" class="cls-8" points="0 103.27 9.23 86.43 1.76 66.38 0 103.27"/><path id="path3377" class="cls-9" d="M1.27,65.74,8.78,87.05l32.64-7.32L78.68,45.1,89.2,11.69,72.64,0,44.49,10.54c-8.87,8.25-26.08,24.57-26.7,24.88S6.42,56.05,1.27,65.74Z"/><path id="path3400" class="cls-10" d="M27.64,27.47C46.87,8.41,71.65-2.85,81.16,6.74s-.57,32.92-19.8,52S17.66,89.65,8.16,80.05,8.42,46.52,27.64,27.47Z"/><path id="path3413" class="cls-11" d="M26.78,128.93,41.71,79.47,91.3,95.4C73.37,112.21,53.43,126.43,26.78,128.93Z"/><path id="path3424" class="cls-12" d="M78.75,45,91.48,95.43c15-15.75,28.42-32.68,35-53.62Z"/><path id="path3435" class="cls-13" d="M126.36,42.06C131.45,26.68,132.63,4.62,108.6.53L88.89,11.42Z"/><path id="path3437" class="cls-14" d="M0,103c.71,25.38,19,25.76,26.81,26L8.8,87Z"/><path id="path3448" class="cls-15" d="M78.82,45.08C90.33,52.15,113.53,66.36,114,66.62c.73.41,10-15.63,12.1-24.7Z"/><path id="path3459" class="cls-16" d="M41.69,79.47l20,38.51c11.8-6.4,21-14.2,29.51-22.55Z"/><path id="path3472" class="cls-17" d="M8.72,87,5.89,120.68C11.23,128,18.57,128.6,26.27,128,20.7,114.17,9.57,86.44,8.72,87Z"/><path id="path3485" class="cls-18" d="M88.77,11.5l39.66,5.57c-2.12-9-8.62-14.76-19.7-16.57Z"/></g></g></svg>