<svg xmlns="http://www.w3.org/2000/svg" viewBox="0 0 129.58 129.58"><defs><style>.cls-1{fill:#ff4724;}.cls-2{fill:#260600;}</style></defs><title>icon_an</title><g id="レイヤー_2" data-name="レイヤー 2"><g id="レイヤー_1-2" data-name="レイヤー 1"><rect class="cls-1" width="129.58" height="129.58"/><rect class="cls-2" x="5.68" y="5.68" width="118.22" height="118.22"/><path class="cls-1" d="M60.44,93.6h9.07L53.93,36H41.31L25.72,93.6H34.8l4.3-16.14h17ZM41.37,68.92,47.62,45.5l6.24,23.42Z"/><path class="cls-1" d="M103.86,93.6H95.05V63.05a5.51,5.51,0,0,0-3.26-3.37c-2.81-1-6.73.15-9.32,1.25V93.6H73.66V55.68l2.17-1.28c1.06-.62,10.6-6,18.94-3,2.84,1,6.67,3.46,8.82,9.3l.27.74Z"/></g></g></svg>