<svg xmlns="http://www.w3.org/2000/svg" viewBox="0 0 129.58 129.58"><defs><style>.cls-1{fill:#ff2bc1;}.cls-2{fill:#2e001e;}</style></defs><title>icon_xd</title><g id="レイヤー_2" data-name="レイヤー 2"><g id="レイヤー_1-2" data-name="レイヤー 1"><rect class="cls-1" width="129.58" height="129.58"/><rect class="cls-2" x="5.68" y="5.68" width="118.22" height="118.22"/><path class="cls-1" d="M91.76,59.08a6.72,6.72,0,0,0-2.83-.49c-6.15,0-10.25,4.74-10.25,12.6,0,9,4.19,12.59,9.66,12.59a9.24,9.24,0,0,0,3.37-.54V59.08ZM69.89,71.58c0-11.38,7.32-20.26,19.33-20.26a21.24,21.24,0,0,1,2.54.1V38.73a.48.48,0,0,1,.49-.49h7.85c.4,0,.49.14.49.39V83.24a34,34,0,0,0,.25,4.79c0,.34,0,.39-.3.53a28.94,28.94,0,0,1-12.49,2.83C77.46,91.39,69.89,84.85,69.89,71.58ZM53.25,63.67l13.66,26.5c.25.39.1.78-.29.78H58.13a1,1,0,0,1-1-.63C54,83.88,50.81,77.19,47.53,70.26h-.09c-2.93,6.54-6.15,13.67-9.28,20.11a.94.94,0,0,1-.88.54h-8.1c-.49,0-.54-.39-.29-.69L42.26,64.5,29.33,38.92a.43.43,0,0,1,.34-.73h8.4c.48,0,.73.1.87.54,3.08,6.49,6.2,12.88,9.13,19.42h.1C51,51.71,54.12,45.22,57.1,38.82c.25-.39.39-.63.88-.63h7.86c.39,0,.54.29.29.73Z"/></g></g></svg>