<svg xmlns="http://www.w3.org/2000/svg" viewBox="0 0 48 48"><defs><style>.cls-1{fill:#0437a0;}.cls-2{fill:#f4f4f4;}.cls-3{fill:none;}.cls-4{fill:#ff1612;}</style></defs><title>icon_en</title><g id="レイヤー_2" data-name="レイヤー 2"><g id="Layer_1" data-name="Layer 1"><path class="cls-1" d="M23.84,0h0Z"/><path class="cls-2" d="M15.27,1.28c0,.14-.09.28-.13.42l.24-.1Z"/><path class="cls-3" d="M24.52,18.46h-.13v.31C24.39,18.52,24.41,18.47,24.52,18.46Z"/><path class="cls-3" d="M22.22,33.23h0Z"/><path class="cls-3" d="M24.39,4c0-.24,0-.3.12-.31h-.12Z"/><path class="cls-3" d="M24.68,14.77c-.17,0-.29,0-.29,0v0Z"/><path class="cls-3" d="M24.68,7.39c-.17,0-.29,0-.29,0v0Z"/><path class="cls-3" d="M24,48h0Z"/><path class="cls-3" d="M24.68,22.15c-.17,0-.29,0-.29,0v0Z"/><path class="cls-3" d="M24.52,11.08h-.13v.31C24.39,11.14,24.41,11.08,24.52,11.08Z"/><path class="cls-2" d="M35.77,18.46H24.52c-.11,0-.13.06-.13.31v3.35s.12,0,.29,0H47.92a23.63,23.63,0,0,0-.57-3.69H35.77Z"/><path class="cls-2" d="M36.69,25.85H.08a23.63,23.63,0,0,0,.57,3.69h46.7a23.63,23.63,0,0,0,.57-3.69H36.69Z"/><path class="cls-2" d="M36.69,40.62h-30a24.71,24.71,0,0,0,4.52,3.69H36.79a24.71,24.71,0,0,0,4.52-3.69H36.69Z"/><path class="cls-2" d="M36.78,3.69H24.51c-.1,0-.12.07-.12.31V7.35s.12,0,.29,0H41.31A24.1,24.1,0,0,0,36.78,3.69Z"/><path class="cls-2" d="M35.77,11.08H24.52c-.11,0-.13.06-.13.31v3.34s.12,0,.29,0H46.16a23.56,23.56,0,0,0-1.94-3.69H35.77Z"/><path class="cls-2" d="M20,33.23H1.84a23.56,23.56,0,0,0,1.94,3.69H44.22a23.56,23.56,0,0,0,1.94-3.69H20Z"/><path class="cls-4" d="M37.33,7.39H26.62c-.13,0-1.38,0-1.94,0h-.29v3.69H44.22a24.24,24.24,0,0,0-2.91-3.69h-4Z"/><path class="cls-4" d="M32.64,44.31H11.21A23.88,23.88,0,0,0,24,48h.1a23.88,23.88,0,0,0,12.74-3.69Z"/><path class="cls-4" d="M20,40.62H41.31a23.71,23.71,0,0,0,2.91-3.7H3.78a23.71,23.71,0,0,0,2.91,3.7Z"/><path class="cls-4" d="M24.39,3.69H36.78A23.81,23.81,0,0,0,24.39,0V3.69Z"/><path class="cls-4" d="M37.33,22.15H26.62c-.13,0-1.38,0-1.94,0h-.29v3.69H47.92c0-.61.08-1.23.08-1.85s0-1.24-.08-1.85H37.33Z"/><path class="cls-4" d="M37.33,29.54H.65a24.08,24.08,0,0,0,1.19,3.69H46.16a24.08,24.08,0,0,0,1.19-3.69Z"/><path class="cls-4" d="M37.33,14.77H26.62c-.13,0-1.38,0-1.94,0h-.29v3.69h23a24.08,24.08,0,0,0-1.19-3.69H37.33Z"/><path class="cls-4" d="M24.52,18.46h0Z"/><path class="cls-4" d="M26.62,14.77H24.68C25.24,14.8,26.49,14.77,26.62,14.77Z"/><path class="cls-4" d="M26.62,22.15H24.68C25.24,22.18,26.49,22.15,26.62,22.15Z"/><path class="cls-4" d="M26.62,7.39H24.68C25.24,7.41,26.49,7.39,26.62,7.39Z"/><path class="cls-4" d="M24.77,3.69h0Z"/><path class="cls-4" d="M24.52,11.08h0Z"/><path class="cls-4" d="M11.21,44.31Z"/><path class="cls-1" d="M3.11,21.89l.09.26H9.11a2,2,0,0,0,.08-.26l.09.26h5.91a2,2,0,0,0,.08-.26l.09.26h5.91l.09-.26.08.26h2.95v0h0V18.78h0v-.31h-2.5a4.1,4.1,0,0,0,.17.44c.05.17.11.34.16.51l-.43-.31c-.08-.06-.33-.32-.43-.32s-.36.26-.44.32l-.43.31.16-.51a4.1,4.1,0,0,0,.17-.44h-5a2.7,2.7,0,0,0,.17.44c.05.17.11.34.16.51l-.43-.31c-.08-.06-.33-.32-.44-.32s-.35.26-.43.32l-.43.31c.05-.17.11-.34.16-.51a2.75,2.75,0,0,0,.16-.44h-5a2.7,2.7,0,0,0,.17.44c0,.17.11.34.16.51l-.43-.31c-.08-.06-.33-.32-.44-.32s-.35.26-.43.32l-.43.31.16-.51a2.75,2.75,0,0,0,.16-.44h-5a4.26,4.26,0,0,0,.16.44c.06.17.12.34.17.51l-.43-.31c-.08-.06-.33-.32-.44-.32s-.35.26-.43.32l-.44.31c.06-.17.12-.34.17-.51a2.75,2.75,0,0,0,.16-.44H.65C.52,19,.41,19.57.31,20.14a.63.63,0,0,0,.09.2c.09.06.44,0,.54,0h.54L1,20.65c-.08.06-.4.22-.43.32s.13.41.17.51.11.34.16.51l-.43-.32a3.22,3.22,0,0,0-.37-.28l-.06.76H3A2,2,0,0,0,3.11,21.89Zm14.34-1.55c.1,0,.45.06.53,0s.14-.42.17-.51.11-.34.16-.51c.06.17.11.34.17.51s.08.45.16.51.44,0,.54,0h.54l-.44.31c-.08.06-.4.22-.43.32s.13.41.17.51.11.34.16.51l-.43-.32c-.08-.06-.33-.31-.44-.31s-.35.25-.43.31l-.43.32.16-.51c0-.1.2-.41.17-.51s-.35-.26-.44-.32l-.43-.31Zm-6.08,0c.1,0,.45.06.53,0s.14-.42.17-.51.11-.34.16-.51l.17.51c0,.09.08.45.16.51s.44,0,.54,0h.54l-.44.31c-.08.06-.4.22-.43.32s.13.41.17.51.11.34.16.51l-.43-.32c-.08-.06-.33-.31-.44-.31s-.35.25-.43.31l-.43.32.16-.51c0-.1.2-.41.17-.51s-.35-.26-.44-.32l-.43-.31Zm-6.08,0c.1,0,.45.06.53,0s.14-.42.17-.51.11-.34.16-.51c.06.17.11.34.17.51s.08.45.16.51.44,0,.54,0h.54l-.44.31c-.08.06-.4.22-.43.32s.13.41.17.51S7,21.82,7,22l-.43-.32c-.08-.06-.33-.31-.44-.31s-.35.25-.43.31L5.29,22c0-.17.11-.34.16-.51s.2-.41.17-.51-.35-.26-.44-.32l-.43-.31Z"/><path class="cls-1" d="M6,14.77a.2.2,0,0,1,0-.09c0-.18.11-.35.16-.52.06.17.11.34.17.52a.64.64,0,0,1,0,.09h5.71a.2.2,0,0,1,0-.09c0-.18.11-.35.16-.52l.17.52a.64.64,0,0,1,0,.09h5.71a.64.64,0,0,1,0-.09c.05-.18.11-.35.16-.52l.17.52a.64.64,0,0,1,0,.09h5.89v0h0V11.4h0v-.31H19a.39.39,0,0,0,0,.09c.05.17.11.34.16.51l-.43-.31a3.19,3.19,0,0,0-.37-.29h-.13a3.19,3.19,0,0,0-.37.29l-.43.31c.05-.17.11-.34.16-.51a.39.39,0,0,0,0-.09H12.9a.39.39,0,0,0,0,.09c.05.17.11.34.16.51l-.43-.31a3.19,3.19,0,0,0-.37-.29h-.13a3.19,3.19,0,0,0-.37.29l-.43.31c.05-.17.11-.34.16-.51a.39.39,0,0,0,0-.09H6.82a.39.39,0,0,0,0,.09c0,.17.11.34.16.51l-.43-.31a3.19,3.19,0,0,0-.37-.29H6.09a3.19,3.19,0,0,0-.37.29l-.43.31c0-.17.11-.34.16-.51l0-.09H3.78c-.19.29-.37.59-.54.89l0,.13c0,.1.08.45.16.51s.44,0,.54,0h.54l-.44.31c-.08.06-.4.22-.43.32s.13.41.16.51.12.34.17.51l-.43-.32c-.08-.06-.33-.31-.44-.31s-.35.25-.43.31l-.44.32c.06-.17.12-.34.17-.51s.2-.41.17-.51l0,0c-.26.51-.5,1-.72,1.55H6Zm14.52-2.16c.1,0,.45.06.53,0s.14-.41.17-.51.11-.34.17-.51c.05.17.11.34.16.51s.08.45.17.51.43,0,.53,0h.54l-.43.31c-.09.06-.41.22-.44.32s.14.41.17.51.11.34.16.51l-.43-.32c-.08-.06-.33-.31-.43-.31s-.36.25-.44.31l-.43.32c.05-.17.11-.34.16-.51s.2-.41.17-.51-.35-.26-.44-.32L20,12.61Zm-6.08,0c.1,0,.45.06.53,0s.14-.41.17-.51.11-.34.16-.51c.06.17.11.34.17.51s.08.45.16.51.44,0,.54,0h.54l-.44.31c-.08.06-.4.22-.43.32s.13.41.17.51.11.34.16.51l-.43-.32c-.08-.06-.33-.31-.44-.31s-.35.25-.43.31l-.43.32.16-.51c0-.1.2-.41.17-.51s-.35-.26-.44-.32l-.43-.31Zm-6.08,0c.1,0,.45.06.53,0S9,12.2,9,12.1s.11-.34.16-.51c.06.17.11.34.17.51s.08.45.16.51.44,0,.54,0h.54l-.44.31c-.08.06-.4.22-.43.32s.13.41.17.51.11.34.16.51l-.43-.32c-.08-.06-.33-.31-.44-.31s-.35.25-.43.31l-.43.32c.05-.17.11-.34.16-.51s.2-.41.17-.51-.35-.26-.44-.32l-.43-.31Z"/><path class="cls-1" d="M9,7l.16-.52c.06.17.11.35.17.52a3,3,0,0,0,.12.44H15c.06-.13.09-.37.12-.44l.16-.52c.06.17.11.35.17.52a3,3,0,0,0,.12.44h5.51c.06-.13.09-.37.12-.44s.11-.35.17-.52l.16.52c0,.07.06.31.12.44h2.75v0h0V4h0V3.69H22.14c0,.09.06.18.08.26l-.35-.26h-1L20.49,4l.08-.26H16.06c0,.09.05.18.08.26l-.35-.26h-1L14.41,4l.08-.26H11.22a24.1,24.1,0,0,0-4.53,3.7H8.91C9,7.26,9,7,9,7Zm8.42-2.07c.1,0,.45.06.53,0s.14-.41.17-.51.11-.34.16-.51c.06.17.11.34.17.51s.08.45.16.51.44,0,.54,0h.54l-.44.31c-.08.06-.4.22-.43.32S19,5.92,19,6s.11.34.16.51l-.43-.32c-.08-.06-.33-.31-.44-.31s-.35.25-.43.31l-.43.32L17.61,6c0-.1.2-.41.17-.51s-.35-.26-.44-.32l-.43-.31Zm-6.08,0c.1,0,.45.06.53,0s.14-.41.17-.51.11-.34.16-.51l.17.51c0,.1.08.45.16.51s.44,0,.54,0h.54l-.44.31c-.08.06-.4.22-.43.32s.13.41.17.51.11.34.16.51l-.43-.32c-.08-.06-.33-.31-.44-.31s-.35.25-.43.31l-.43.32c.05-.17.11-.34.16-.51s.2-.41.17-.51-.35-.26-.44-.32l-.43-.31Z"/><path class="cls-1" d="M24.11,25.85h0Z"/><path class="cls-1" d="M24.39,22.12h0V18.77h0Z"/><path class="cls-1" d="M24.39,7.35h0V4h0Z"/><path class="cls-1" d="M24.39,14.73h0V11.39h0Z"/><path class="cls-1" d="M2.58,18.39c0-.1-.35-.25-.44-.31l-.43-.32h.54c.1,0,.45.06.53,0s.14-.41.17-.51.11-.34.16-.51l.17.51c0,.1.08.45.16.51s.44,0,.54,0h.54l-.44.32c-.08.06-.4.21-.43.31s0,.05,0,.07h5a.17.17,0,0,0,0-.07c0-.1-.35-.25-.44-.31l-.43-.32h.54c.1,0,.45.06.53,0s.14-.41.17-.51.11-.34.16-.51l.17.51c0,.1.08.45.16.51s.44,0,.54,0h.54l-.44.32c-.08.06-.4.21-.43.31s0,.05,0,.07h5a.09.09,0,0,0,0-.07c0-.1-.35-.25-.44-.31l-.43-.32h.54c.1,0,.45.06.53,0s.14-.41.17-.51.11-.34.16-.51l.17.51c0,.1.08.45.16.51s.44,0,.54,0h.54l-.44.32c-.08.06-.4.21-.43.31s0,.05,0,.07h5s0-.05,0-.07-.35-.25-.44-.31L20,17.76h.54c.1,0,.45.06.53,0s.14-.41.17-.51.11-.34.17-.51c.05.17.11.34.16.51s.08.45.17.51.43,0,.53,0h.54l-.43.32c-.09.06-.41.21-.44.31s0,.05,0,.07h2.5V14.77H18.5a1.14,1.14,0,0,0,.14.42c.09.06.44,0,.54,0h.54l-.44.31c-.08.06-.4.22-.43.32s.13.41.17.51.11.34.16.51l-.43-.32c-.08-.06-.33-.32-.44-.32s-.35.26-.43.32l-.43.32.16-.51c0-.1.2-.42.17-.51s-.35-.26-.44-.32l-.43-.31h.54c.1,0,.45.06.53,0s.12-.28.15-.42H12.42a1.14,1.14,0,0,0,.14.42c.09.06.44,0,.54,0h.54l-.44.31c-.08.06-.4.22-.43.32s.13.41.17.51.11.34.16.51l-.43-.32c-.08-.06-.33-.32-.44-.32s-.35.26-.43.32l-.43.32c.05-.17.11-.34.16-.51s.2-.42.17-.51-.35-.26-.44-.32l-.43-.31h.54c.1,0,.45.06.53,0s.11-.28.15-.42H6.34a1.14,1.14,0,0,0,.14.42c.09.06.44,0,.54,0h.54l-.44.31c-.08.06-.4.22-.43.32s.13.41.17.51.11.34.16.51l-.43-.32c-.08-.06-.33-.32-.44-.32s-.35.26-.43.32l-.43.32c0-.17.11-.34.16-.51s.2-.42.17-.51-.35-.26-.44-.32l-.43-.31h.54c.1,0,.45.06.53,0s.11-.28.15-.42H1.84A24.08,24.08,0,0,0,.65,18.46H2.57A.17.17,0,0,0,2.58,18.39Z"/><path class="cls-1" d="M6,25.85H24.39V22.15H21.44l.08.25c0,.1.08.46.17.52s.43,0,.53,0h.54l-.43.32c-.09.06-.41.22-.44.31s.14.42.17.52.11.34.16.51l-.43-.32c-.08-.06-.33-.32-.43-.32s-.36.26-.44.32l-.43.32c.05-.17.11-.34.16-.51s.2-.42.17-.52-.35-.25-.44-.31L20,22.91h.54c.1,0,.45.06.53,0s.14-.42.17-.52,0-.16.08-.25H15.36l.08.25c0,.1.08.46.16.52s.44,0,.54,0h.54l-.44.32c-.08.06-.4.22-.43.31s.13.42.17.52.11.34.16.51l-.43-.32c-.08-.06-.33-.32-.44-.32s-.35.26-.43.32l-.43.32c.05-.17.11-.34.16-.51s.2-.42.17-.52-.35-.25-.44-.31l-.43-.32h.54c.1,0,.45.06.53,0s.14-.42.17-.52.05-.16.08-.25H9.28l.08.25c0,.1.08.46.16.52s.44,0,.54,0h.54l-.44.32c-.08.06-.4.22-.43.31s.13.42.17.52.11.34.16.51l-.43-.32c-.08-.06-.33-.32-.44-.32s-.35.26-.43.32l-.43.32c.05-.17.11-.34.16-.51s.2-.42.17-.52-.35-.25-.44-.31l-.43-.32h.54c.1,0,.45.06.53,0S9,22.5,9,22.4s.05-.16.08-.25H3.2c0,.09,0,.17.08.25s.08.46.16.52.44,0,.54,0h.54l-.44.32c-.08.06-.4.22-.43.31s.13.42.16.52.12.34.17.51l-.43-.32c-.08-.06-.33-.32-.44-.32s-.35.26-.43.32l-.44.32.17-.51c0-.1.2-.42.17-.52s-.35-.25-.44-.31l-.43-.32h.54c.1,0,.45.06.53,0s.14-.42.17-.52,0-.16.08-.25H.08C0,22.76,0,23.38,0,24s0,1.24.08,1.85H6Z"/><path class="cls-1" d="M14.57,3.44c0-.09.2-.41.17-.51s-.35-.25-.44-.31l-.43-.32h.54c.1,0,.45.06.53,0s.14-.41.17-.51l0-.09a22.9,22.9,0,0,0-3.92,2h3.27Z"/><path class="cls-1" d="M21.36,3.32c-.11,0-.36.26-.44.32l-.08,0h1l-.08,0C21.71,3.58,21.46,3.32,21.36,3.32Z"/><path class="cls-1" d="M15.6,2.3c.09.07.44,0,.54,0h.54l-.44.32c-.08.06-.4.21-.43.31s.13.42.17.51a1.83,1.83,0,0,0,.08.25h4.51l.08-.25c0-.09.2-.41.17-.51s-.35-.25-.44-.31L20,2.3h.54c.1,0,.45.06.53,0s.14-.41.17-.51.11-.34.17-.51c.05.17.11.34.16.51s.08.45.17.51.43,0,.53,0h.54l-.43.32c-.09.06-.41.21-.44.31s.14.42.17.51a1.83,1.83,0,0,0,.08.25h2.25V0H24a24,24,0,0,0-8.62,1.6l.06.19C15.47,1.89,15.52,2.24,15.6,2.3Z"/><path class="cls-1" d="M15.27,3.32c-.1,0-.35.26-.43.32l-.08,0h1l-.08,0C15.63,3.58,15.38,3.32,15.27,3.32Z"/><path class="cls-1" d="M5.62,10.66c0-.1-.35-.25-.44-.31L4.75,10h.54c.1,0,.45.07.53,0S6,9.62,6,9.52s.11-.34.16-.51c.06.17.11.34.17.51s.08.45.16.51.44,0,.54,0h.54l-.44.32c-.08.06-.4.21-.43.31s.07.28.13.42h4.75a1.09,1.09,0,0,0,.13-.42c0-.1-.35-.25-.44-.31L10.83,10h.54c.1,0,.45.06.53,0s.14-.41.17-.51.11-.34.16-.51c.06.17.11.34.17.51s.08.45.16.51.44,0,.54,0h.54l-.44.32c-.08.06-.4.21-.43.31s.07.28.13.42h4.75a1.09,1.09,0,0,0,.13-.42c0-.1-.35-.25-.44-.31L16.91,10h.54c.1,0,.45.06.53,0s.14-.41.17-.51.11-.34.16-.51c.06.17.11.34.17.51s.08.45.16.51.44,0,.54,0h.54l-.44.32c-.08.06-.4.21-.43.31s.07.28.13.42h5.41V7.39H21.64a.13.13,0,0,0,.05.07c.08.06.43,0,.53,0h.54l-.43.31c-.09.06-.41.22-.44.32s.14.41.17.51.11.34.16.51l-.43-.32c-.08-.06-.33-.32-.43-.32s-.36.26-.44.32l-.43.32c.05-.17.11-.34.16-.51s.2-.42.17-.51-.35-.26-.44-.32L20,7.46h.54c.1,0,.45.06.53,0s0,0,.05-.07H15.56a.21.21,0,0,0,0,.07c.09.06.44,0,.54,0h.54l-.44.31c-.08.06-.4.22-.43.32s.13.41.17.51.11.34.16.51l-.43-.32c-.08-.06-.33-.32-.44-.32s-.35.26-.43.32l-.43.32c.05-.17.11-.34.16-.51s.2-.42.17-.51-.35-.26-.44-.32l-.43-.31h.54c.1,0,.45.06.53,0s0,0,.05-.07H9.48a.21.21,0,0,0,0,.07c.09.06.44,0,.54,0h.54l-.44.31c-.08.06-.4.22-.43.32s.13.41.17.51.11.34.16.51l-.43-.32c-.08-.06-.33-.32-.44-.32s-.35.26-.43.32l-.43.32c.05-.17.11-.34.16-.51s.2-.42.17-.51-.35-.26-.44-.32l-.43-.31h.54c.1,0,.45.06.53,0s0,0,.05-.07H6.69a24.24,24.24,0,0,0-2.91,3.69H5.49A1.09,1.09,0,0,0,5.62,10.66Z"/><path class="cls-1" d="M6.09,11.08h.13l-.07,0Z"/><path class="cls-1" d="M12.17,11.08h.13l-.07,0Z"/><path class="cls-1" d="M18.25,11.08h.13l-.07,0Z"/><path class="cls-2" d="M11.7,21c0,.1-.14.41-.17.51l-.16.51.43-.32c.08-.06.33-.31.43-.31s.36.25.44.31l.43.32c0-.17-.11-.34-.16-.51s-.2-.41-.17-.51.35-.26.43-.32l.44-.31H13.1c-.1,0-.45.06-.54,0s-.13-.42-.16-.51l-.17-.51c-.05.17-.11.34-.16.51s-.08.45-.17.51-.43,0-.53,0h-.54l.43.31C11.35,20.71,11.67,20.87,11.7,21Z"/><path class="cls-2" d="M17.78,21c0,.1-.14.41-.17.51l-.16.51.43-.32c.08-.06.33-.31.43-.31s.36.25.44.31l.43.32c-.05-.17-.11-.34-.16-.51s-.2-.41-.17-.51.35-.26.43-.32l.44-.31h-.54c-.1,0-.45.06-.54,0s-.13-.42-.16-.51-.11-.34-.17-.51c0,.17-.11.34-.16.51s-.08.45-.17.51-.43,0-.53,0h-.54l.43.31C17.43,20.71,17.75,20.87,17.78,21Z"/><path class="cls-2" d="M8.66,13.24c0,.1-.14.41-.17.51s-.11.34-.16.51l.43-.32c.08-.06.33-.31.43-.31s.36.25.44.31l.43.32c-.05-.17-.11-.34-.16-.51s-.2-.41-.17-.51.35-.26.43-.32l.44-.31h-.54c-.1,0-.45.06-.54,0s-.13-.41-.16-.51-.11-.34-.17-.51c0,.17-.11.34-.16.51s-.08.45-.17.51-.43,0-.53,0H7.79l.43.31C8.31,13,8.63,13.14,8.66,13.24Z"/><path class="cls-2" d="M.94,22c0-.17-.11-.34-.16-.51S.58,21.07.61,21s.35-.26.43-.32l.44-.31H.94c-.1,0-.45.06-.54,0a.63.63,0,0,1-.09-.2c-.06.41-.12.83-.17,1.25a3.22,3.22,0,0,1,.37.28Z"/><path class="cls-2" d="M6.15,14.16c-.05.17-.11.34-.16.52a.2.2,0,0,0,0,.09h.37a.64.64,0,0,0,0-.09C6.26,14.5,6.21,14.33,6.15,14.16Z"/><path class="cls-2" d="M5.62,21c0,.1-.14.41-.17.51s-.11.34-.16.51l.43-.32c.08-.06.33-.31.43-.31s.36.25.44.31L7,22c0-.17-.11-.34-.16-.51s-.2-.41-.17-.51.35-.26.43-.32l.44-.31H7c-.1,0-.45.06-.54,0s-.13-.42-.16-.51-.11-.34-.17-.51c-.05.17-.11.34-.16.51s-.08.45-.17.51-.43,0-.53,0H4.75l.43.31C5.27,20.71,5.59,20.87,5.62,21Z"/><path class="cls-2" d="M6.59,11.37l.43.31c0-.17-.11-.34-.16-.51a.39.39,0,0,1,0-.09h-.6A3.19,3.19,0,0,1,6.59,11.37Z"/><path class="cls-2" d="M11.53,11.17c0,.17-.11.34-.16.51l.43-.31a3.19,3.19,0,0,1,.37-.29h-.6A.39.39,0,0,1,11.53,11.17Z"/><path class="cls-2" d="M12.67,11.37l.43.31c0-.17-.11-.34-.16-.51a.39.39,0,0,1,0-.09h-.6A3.19,3.19,0,0,1,12.67,11.37Z"/><path class="cls-2" d="M20.49,4l.35-.26h-.27Z"/><path class="cls-2" d="M14.74,13.24c0,.1-.14.41-.17.51l-.16.51.43-.32c.08-.06.33-.31.43-.31s.36.25.44.31l.43.32c-.05-.17-.11-.34-.16-.51s-.2-.41-.17-.51.35-.26.43-.32l.44-.31h-.54c-.1,0-.45.06-.54,0s-.13-.41-.16-.51-.11-.34-.17-.51c0,.17-.11.34-.16.51s-.08.45-.17.51-.43,0-.53,0h-.54l.43.31C14.39,13,14.71,13.14,14.74,13.24Z"/><path class="cls-2" d="M12.23,14.16c-.05.17-.11.34-.16.52a.2.2,0,0,0,0,.09h.37a.64.64,0,0,0,0-.09Z"/><path class="cls-2" d="M17.61,11.17c-.05.17-.11.34-.16.51l.43-.31a3.19,3.19,0,0,1,.37-.29h-.6A.39.39,0,0,1,17.61,11.17Z"/><path class="cls-2" d="M18.31,14.16c0,.17-.11.34-.16.52a.64.64,0,0,0,0,.09h.37a.64.64,0,0,0,0-.09Z"/><path class="cls-2" d="M18.75,11.37l.43.31c-.05-.17-.11-.34-.16-.51a.39.39,0,0,1,0-.09h-.6A3.19,3.19,0,0,1,18.75,11.37Z"/><path class="cls-2" d="M5.49,11.08l0,.09c0,.17-.11.34-.16.51l.43-.31a3.19,3.19,0,0,1,.37-.29h-.6Z"/><path class="cls-2" d="M14.57,18.9c-.05.17-.11.34-.16.51l.43-.31c.08-.06.33-.32.43-.32s.36.26.44.32l.43.31c-.05-.17-.11-.34-.16-.51a2.7,2.7,0,0,1-.17-.44H14.73A2.75,2.75,0,0,1,14.57,18.9Z"/><path class="cls-2" d="M20.65,18.9l-.16.51.43-.31c.08-.06.33-.32.44-.32s.35.26.43.32l.43.31c0-.17-.11-.34-.16-.51a4.1,4.1,0,0,1-.17-.44H20.82A4.1,4.1,0,0,1,20.65,18.9Z"/><path class="cls-2" d="M21.27,22.15h.17l-.08-.26Z"/><path class="cls-2" d="M16.14,4c0-.08-.05-.17-.08-.26h-.27Z"/><path class="cls-2" d="M8.49,18.9l-.16.51.43-.31c.08-.06.33-.32.43-.32s.36.26.44.32l.43.31c-.05-.17-.11-.34-.16-.51a2.7,2.7,0,0,1-.17-.44H8.65A2.75,2.75,0,0,1,8.49,18.9Z"/><path class="cls-2" d="M3,22.15H3.2l-.09-.26A2,2,0,0,1,3,22.15Z"/><path class="cls-2" d="M22.22,4c0-.08,0-.17-.08-.26h-.27Z"/><path class="cls-2" d="M15.19,22.15h.17l-.09-.26A2,2,0,0,1,15.19,22.15Z"/><path class="cls-2" d="M9.11,22.15h.17l-.09-.26A2,2,0,0,1,9.11,22.15Z"/><path class="cls-2" d="M14.41,4l.35-.26h-.27Z"/><path class="cls-2" d="M11.7,5.51c0,.1-.14.41-.17.51s-.11.34-.16.51l.43-.32c.08-.06.33-.31.43-.31s.36.25.44.31l.43.32c0-.17-.11-.34-.16-.51s-.2-.41-.17-.51.35-.26.43-.32l.44-.31H13.1c-.1,0-.45.06-.54,0s-.13-.41-.16-.51l-.17-.51c-.05.17-.11.34-.16.51s-.08.45-.17.51-.43,0-.53,0h-.54l.43.31C11.35,5.25,11.67,5.41,11.7,5.51Z"/><path class="cls-2" d="M20.82,13.24c0,.1-.14.41-.17.51s-.11.34-.16.51l.43-.32c.08-.06.33-.31.44-.31s.35.25.43.31l.43.32c0-.17-.11-.34-.16-.51s-.2-.41-.17-.51.35-.26.44-.32l.43-.31h-.54c-.1,0-.45.06-.53,0s-.14-.41-.17-.51-.11-.34-.16-.51c-.06.17-.12.34-.17.51s-.08.45-.17.51-.43,0-.53,0H20l.43.31C20.47,13,20.79,13.14,20.82,13.24Z"/><path class="cls-2" d="M9.19,6.43,9,7c0,.07-.06.31-.12.44h.57A3,3,0,0,1,9.36,7C9.3,6.78,9.25,6.6,9.19,6.43Z"/><path class="cls-2" d="M2.41,13.75c-.05.17-.11.34-.17.51l.44-.32c.08-.06.33-.31.43-.31s.36.25.44.31l.43.32c0-.17-.11-.34-.17-.51s-.19-.41-.16-.51.35-.26.43-.32l.44-.31H4c-.1,0-.45.06-.54,0s-.13-.41-.16-.51l0-.13c-.24.41-.47.82-.68,1.25l0,0C2.61,13.34,2.44,13.65,2.41,13.75Z"/><path class="cls-2" d="M17.78,5.51c0,.1-.14.41-.17.51l-.16.51.43-.32c.08-.06.33-.31.43-.31s.36.25.44.31l.43.32c-.05-.17-.11-.34-.16-.51s-.2-.41-.17-.51.35-.26.43-.32l.44-.31h-.54c-.1,0-.45.06-.54,0s-.13-.41-.16-.51-.11-.34-.17-.51c0,.17-.11.34-.16.51s-.08.45-.17.51-.43,0-.53,0h-.54l.43.31C17.43,5.25,17.75,5.41,17.78,5.51Z"/><path class="cls-2" d="M2.41,18.9c-.05.17-.11.34-.17.51l.44-.31c.08-.06.33-.32.43-.32s.36.26.44.32l.43.31c0-.17-.11-.34-.17-.51a4.26,4.26,0,0,1-.16-.44H2.57A2.75,2.75,0,0,1,2.41,18.9Z"/><path class="cls-2" d="M15.27,6.43,15.11,7c0,.07-.06.31-.12.44h.57A3,3,0,0,1,15.44,7C15.38,6.78,15.33,6.6,15.27,6.43Z"/><path class="cls-2" d="M21.36,6.43c-.06.17-.12.35-.17.52s-.06.31-.12.44h.57c-.06-.13-.09-.37-.12-.44Z"/><path class="cls-2" d="M13.2,10.35l.44-.32H13.1c-.1,0-.45.07-.54,0s-.13-.41-.16-.51-.11-.34-.17-.51c-.05.17-.11.34-.16.51S12,10,11.9,10s-.43,0-.53,0h-.54l.43.32c.09.06.41.21.44.31a1.09,1.09,0,0,1-.13.42h.6l.06,0,.07,0h.6c-.06-.14-.16-.34-.13-.42S13.12,10.41,13.2,10.35Z"/><path class="cls-2" d="M19.28,10.35l.44-.32h-.54c-.1,0-.45.07-.54,0s-.13-.41-.16-.51-.11-.34-.17-.51c0,.17-.11.34-.16.51S18.07,10,18,10s-.43,0-.53,0h-.54l.43.32c.09.06.41.21.44.31a1.09,1.09,0,0,1-.13.42h.6l.06,0,.07,0H19c-.06-.14-.16-.34-.13-.42S19.2,10.41,19.28,10.35Z"/><path class="cls-2" d="M7.12,10.35,7.56,10H7c-.1,0-.45.07-.54,0s-.13-.41-.16-.51S6.21,9.18,6.15,9c-.05.17-.11.34-.16.51s-.08.45-.17.51-.43,0-.53,0H4.75l.43.32c.09.06.41.21.44.31a1.09,1.09,0,0,1-.13.42h.6l.06,0,.07,0h.6c-.06-.14-.16-.34-.13-.42S7,10.41,7.12,10.35Z"/><path class="cls-2" d="M5.82,15.19c-.08.06-.43,0-.53,0H4.75l.43.31c.09.06.41.22.44.32s-.14.41-.17.51-.11.34-.16.51l.43-.32c.08-.06.33-.32.43-.32s.36.26.44.32l.43.32c0-.17-.11-.34-.16-.51s-.2-.42-.17-.51.35-.26.43-.32l.44-.31H7c-.1,0-.45.06-.54,0a1.14,1.14,0,0,1-.14-.42H6C5.93,14.91,5.89,15.14,5.82,15.19Z"/><path class="cls-2" d="M21,7.46c-.08.06-.43,0-.53,0H20l.43.31c.09.06.41.22.44.32s-.14.41-.17.51-.11.34-.16.51l.43-.32c.08-.06.33-.32.44-.32s.35.26.43.32l.43.32c0-.17-.11-.34-.16-.51s-.2-.42-.17-.51.35-.26.44-.32l.43-.31h-.54c-.1,0-.45.06-.53,0a.13.13,0,0,1-.05-.07h-.57S21,7.45,21,7.46Z"/><path class="cls-2" d="M14.94,7.46c-.08.06-.43,0-.53,0h-.54l.43.31c.09.06.41.22.44.32s-.14.41-.17.51-.11.34-.16.51l.43-.32c.08-.06.33-.32.43-.32s.36.26.44.32l.43.32c-.05-.17-.11-.34-.16-.51s-.2-.42-.17-.51.35-.26.43-.32l.44-.31h-.54c-.1,0-.45.06-.54,0a.21.21,0,0,1,0-.07H15S15,7.45,14.94,7.46Z"/><path class="cls-2" d="M21.89,2.93c0-.1.35-.25.44-.31l.43-.32h-.54c-.1,0-.45.07-.53,0s-.14-.41-.17-.51-.11-.34-.16-.51c-.06.17-.12.34-.17.51s-.08.45-.17.51-.43,0-.53,0H20l.43.32c.09.06.41.21.44.31s-.14.42-.17.51l-.08.25h.27l.08,0c.08-.06.33-.32.44-.32s.35.26.43.32l.08,0h.27a1.83,1.83,0,0,1-.08-.25C22,3.35,21.86,3,21.89,2.93Z"/><path class="cls-2" d="M21.19,22.4c0,.1-.08.46-.17.52s-.43,0-.53,0H20l.43.32c.09.06.41.22.44.31s-.14.42-.17.52-.11.34-.16.51l.43-.32c.08-.06.33-.32.44-.32s.35.26.43.32l.43.32c0-.17-.11-.34-.16-.51s-.2-.42-.17-.52.35-.25.44-.31l.43-.32h-.54c-.1,0-.45.06-.53,0s-.14-.42-.17-.52l-.08-.25h-.17C21.24,22.24,21.22,22.32,21.19,22.4Z"/><path class="cls-2" d="M11.9,15.19c-.08.06-.43,0-.53,0h-.54l.43.31c.09.06.41.22.44.32s-.14.41-.17.51-.11.34-.16.51l.43-.32c.08-.06.33-.32.43-.32s.36.26.44.32l.43.32c0-.17-.11-.34-.16-.51s-.2-.42-.17-.51.35-.26.43-.32l.44-.31H13.1c-.1,0-.45.06-.54,0a1.14,1.14,0,0,1-.14-.42h-.37C12,14.91,12,15.14,11.9,15.19Z"/><path class="cls-2" d="M8.86,7.46c-.08.06-.43,0-.53,0H7.79l.43.31c.09.06.41.22.44.32s-.14.41-.17.51-.11.34-.16.51l.43-.32c.08-.06.33-.32.43-.32s.36.26.44.32l.43.32C10,8.94,10,8.77,9.9,8.6s-.2-.42-.17-.51.35-.26.43-.32l.44-.31h-.54c-.1,0-.45.06-.54,0a.21.21,0,0,1,0-.07H8.91S8.88,7.45,8.86,7.46Z"/><path class="cls-2" d="M14.94,2.3c-.08.06-.43,0-.53,0h-.54l.43.32c.09.06.41.21.44.31s-.14.42-.17.51l-.08.25h.27l.08,0c.08-.06.33-.32.43-.32s.36.26.44.32l.08,0h.27A1.83,1.83,0,0,1,16,3.44c0-.09-.2-.41-.17-.51s.35-.25.43-.31l.44-.32h-.54c-.1,0-.45.07-.54,0s-.13-.41-.16-.51l-.06-.19-.24.1,0,.09C15.08,1.89,15,2.24,14.94,2.3Z"/><path class="cls-2" d="M18,15.19c-.08.06-.43,0-.53,0h-.54l.43.31c.09.06.41.22.44.32s-.14.41-.17.51l-.16.51.43-.32c.08-.06.33-.32.43-.32s.36.26.44.32l.43.32c-.05-.17-.11-.34-.16-.51s-.2-.42-.17-.51.35-.26.43-.32l.44-.31h-.54c-.1,0-.45.06-.54,0a1.14,1.14,0,0,1-.14-.42h-.37C18.1,14.91,18.05,15.14,18,15.19Z"/><path class="cls-2" d="M3,22.4c0,.1-.08.46-.17.52s-.43,0-.53,0H1.71l.43.32c.09.06.41.22.44.31s-.14.42-.17.52l-.17.51.44-.32c.08-.06.33-.32.43-.32s.36.26.44.32l.43.32c0-.17-.11-.34-.17-.51s-.19-.42-.16-.52.35-.25.43-.31l.44-.32H4c-.1,0-.45.06-.54,0s-.13-.42-.16-.52,0-.16-.08-.25H3C3,22.24,3,22.32,3,22.4Z"/><path class="cls-2" d="M15.11,22.4c0,.1-.08.46-.17.52s-.43,0-.53,0h-.54l.43.32c.09.06.41.22.44.31s-.14.42-.17.52-.11.34-.16.51l.43-.32c.08-.06.33-.32.43-.32s.36.26.44.32l.43.32c-.05-.17-.11-.34-.16-.51s-.2-.42-.17-.52.35-.25.43-.31l.44-.32h-.54c-.1,0-.45.06-.54,0s-.13-.42-.16-.52l-.08-.25h-.17C15.16,22.24,15.14,22.32,15.11,22.4Z"/><path class="cls-2" d="M4.08,18.08l.44-.32H4c-.1,0-.45.06-.54,0s-.13-.41-.16-.51l-.17-.51c0,.17-.11.34-.16.51s-.08.45-.17.51-.43,0-.53,0H1.71l.43.32c.09.06.41.21.44.31a.17.17,0,0,1,0,.07H3.65s0-.05,0-.07S4,18.14,4.08,18.08Z"/><path class="cls-2" d="M9,22.4c0,.1-.08.46-.17.52s-.43,0-.53,0H7.79l.43.32c.09.06.41.22.44.31s-.14.42-.17.52-.11.34-.16.51l.43-.32c.08-.06.33-.32.43-.32s.36.26.44.32l.43.32c-.05-.17-.11-.34-.16-.51s-.2-.42-.17-.52.35-.25.43-.31l.44-.32h-.54c-.1,0-.45.06-.54,0s-.13-.42-.16-.52l-.08-.25H9.11C9.08,22.24,9.06,22.32,9,22.4Z"/><path class="cls-2" d="M22.33,18.08l.43-.32h-.54c-.1,0-.45.06-.53,0s-.14-.41-.17-.51-.11-.34-.16-.51c-.06.17-.12.34-.17.51s-.08.45-.17.51-.43,0-.53,0H20l.43.32c.09.06.41.21.44.31s0,.05,0,.07h1.07s0-.05,0-.07S22.24,18.14,22.33,18.08Z"/><path class="cls-2" d="M16.24,18.08l.44-.32h-.54c-.1,0-.45.06-.54,0s-.13-.41-.16-.51l-.17-.51c0,.17-.11.34-.16.51s-.08.45-.17.51-.43,0-.53,0h-.54l.43.32c.09.06.41.21.44.31a.09.09,0,0,1,0,.07h1.08s0-.05,0-.07S16.16,18.14,16.24,18.08Z"/><path class="cls-2" d="M10.16,18.08l.44-.32h-.54c-.1,0-.45.06-.54,0s-.13-.41-.16-.51l-.17-.51c0,.17-.11.34-.16.51s-.08.45-.17.51-.43,0-.53,0H7.79l.43.32c.09.06.41.21.44.31a.17.17,0,0,1,0,.07H9.73s0-.05,0-.07S10.08,18.14,10.16,18.08Z"/></g></g></svg>