<svg xmlns="http://www.w3.org/2000/svg" viewBox="0 0 93.74 132.31"><defs><style>.cls-1{fill:#e34d26;}.cls-2{fill:#f06529;}.cls-3{fill:#eaeaea;}.cls-4{fill:#fff;}</style></defs><title>icon_html5</title><g id="レイヤー_2" data-name="レイヤー 2"><g id="レイヤー_1-2" data-name="レイヤー 1"><polygon id="polygon3028" class="cls-1" points="93.74 26 85.2 121.67 46.81 132.31 8.53 121.69 0 26 93.74 26"/><polygon id="polygon3030" class="cls-2" points="46.87 124.18 77.89 115.58 85.19 33.83 46.87 33.83 46.87 124.18"/><polygon id="polygon3032" class="cls-3" points="30.27 57.3 46.87 57.3 46.87 45.56 46.83 45.56 17.44 45.56 17.72 48.71 20.61 81.05 46.87 81.05 46.87 69.31 31.34 69.31 30.27 57.3"/><polygon id="polygon3034" class="cls-3" points="32.91 86.92 26.56 86.92 21.13 86.92 22.78 105.34 46.82 112.02 46.87 112 46.87 99.79 46.82 99.81 33.75 96.28 32.91 86.92"/><path id="path3036" d="M8.72,0h6V5.89h5.45V0h6V17.84h-6v-6H14.69v6h-6V0Z"/><path id="path3038" d="M34,5.92H28.7V0H45.16V5.92H39.91V17.84H34V5.92Z"/><path id="path3040" d="M47.78,0H54l3.82,6.27L61.64,0h6.22V17.84H61.92V9l-4.1,6.34h-.1L53.61,9v8.84H47.78V0Z"/><path id="path3042" d="M70.83,0h6V11.94h8.38v5.9H70.83Z"/><polygon id="polygon3044" class="cls-4" points="46.83 81.05 61.28 81.05 59.92 96.27 46.83 99.8 46.83 112.01 70.89 105.34 71.06 103.36 73.82 72.47 74.11 69.31 70.94 69.31 46.83 69.31 46.83 81.05"/><polygon id="polygon3046" class="cls-4" points="46.83 57.27 46.83 57.3 75.14 57.3 75.14 57.3 75.17 57.3 75.41 54.66 75.94 48.71 76.23 45.56 46.83 45.56 46.83 52.85 46.83 57.27"/></g></g></svg>