<svg xmlns="http://www.w3.org/2000/svg" xmlns:xlink="http://www.w3.org/1999/xlink" viewBox="0 0 105.69 134.75"><defs><style>.cls-1{fill:#800828;}.cls-2{fill:#b32738;}.cls-3{opacity:0.53;fill:url(#名称未設定グラデーション_23);}.cls-10,.cls-13,.cls-15,.cls-16,.cls-17,.cls-18,.cls-19,.cls-20,.cls-21,.cls-22,.cls-23,.cls-24,.cls-3,.cls-4,.cls-6,.cls-7,.cls-8,.cls-9{isolation:isolate;}.cls-4{opacity:0.42;fill:url(#名称未設定グラデーション_23-2);}.cls-5{fill:url(#名称未設定グラデーション_23-3);}.cls-6{opacity:0.75;fill:url(#名称未設定グラデーション_23-4);}.cls-7{opacity:0.45;fill:url(#名称未設定グラデーション_23-5);}.cls-8{opacity:0.55;fill:url(#名称未設定グラデーション_23-6);}.cls-9{opacity:0.79;fill:url(#名称未設定グラデーション_23-7);}.cls-10{opacity:0.62;fill:url(#名称未設定グラデーション_23-8);}.cls-11{fill:url(#名称未設定グラデーション_17);}.cls-12{fill:url(#名称未設定グラデーション_23-9);}.cls-13,.cls-15{opacity:0.27;}.cls-13{fill:url(#名称未設定グラデーション_23-10);}.cls-14{fill:url(#名称未設定グラデーション_23-11);}.cls-15{fill:url(#名称未設定グラデーション_23-12);}.cls-16,.cls-20,.cls-23{opacity:0.63;}.cls-16{fill:url(#名称未設定グラデーション_23-13);}.cls-17{opacity:0.35;fill:url(#名称未設定グラデーション_23-14);}.cls-18{opacity:0.24;fill:url(#名称未設定グラデーション_23-15);}.cls-19{opacity:0.47;fill:url(#名称未設定グラデーション_23-16);}.cls-20{fill:url(#名称未設定グラデーション_23-17);}.cls-21{opacity:0.66;fill:url(#名称未設定グラデーション_23-18);}.cls-22{opacity:0.51;fill:url(#名称未設定グラデーション_23-19);}.cls-23{fill:url(#名称未設定グラデーション_23-20);}.cls-24{opacity:0.34;fill:url(#名称未設定グラデーション_23-21);}.cls-25{fill:none;}.cls-26{fill:#fff;}</style><linearGradient id="名称未設定グラデーション_23" x1="53.28" y1="2890.08" x2="54.27" y2="2974.38" gradientTransform="matrix(1, 0, 0, -1, 0, 3055.65)" gradientUnits="userSpaceOnUse"><stop offset="0" stop-color="#fff"/><stop offset="0.17" stop-color="#d59f6c"/><stop offset="0.54" stop-color="#9b1a2f"/><stop offset="1" stop-color="#151823"/></linearGradient><linearGradient id="名称未設定グラデーション_23-2" x1="8.7" y1="2913.43" x2="120.17" y2="3114.9" xlink:href="#名称未設定グラデーション_23"/><linearGradient id="名称未設定グラデーション_23-3" x1="74.63" y1="3008.94" x2="125.09" y2="2904.37" xlink:href="#名称未設定グラデーション_23"/><linearGradient id="名称未設定グラデーション_23-4" x1="88.78" y1="2991.67" x2="134.88" y2="3000.49" xlink:href="#名称未設定グラデーション_23"/><linearGradient id="名称未設定グラデーション_23-5" x1="95.32" y1="2924.17" x2="33.83" y2="3003" xlink:href="#名称未設定グラデーション_23"/><linearGradient id="名称未設定グラデーション_23-6" x1="133.36" y1="2857.27" x2="72.08" y2="2995.5" xlink:href="#名称未設定グラデーション_23"/><linearGradient id="名称未設定グラデーション_23-7" x1="68.56" y1="3030.09" x2="126.65" y2="3081.27" xlink:href="#名称未設定グラデーション_23"/><linearGradient id="名称未設定グラデーション_23-8" x1="84.37" y1="3029.38" x2="114.29" y2="3047.8" xlink:href="#名称未設定グラデーション_23"/><linearGradient id="名称未設定グラデーション_17" x1="94.78" y1="2994.34" x2="94.78" y2="2994.34" gradientTransform="matrix(1, 0, 0, -1, 0, 3055.65)" gradientUnits="userSpaceOnUse"><stop offset="0" stop-color="#fff"/><stop offset="1" stop-color="#9b1a2f"/></linearGradient><linearGradient id="名称未設定グラデーション_23-9" x1="69.59" y1="3026.16" x2="138.77" y2="3051.58" xlink:href="#名称未設定グラデーション_23"/><linearGradient id="名称未設定グラデーション_23-10" x1="-18.81" y1="2923.96" x2="3.18" y2="2940.24" xlink:href="#名称未設定グラデーション_23"/><linearGradient id="名称未設定グラデーション_23-11" x1="78.33" y1="3002.44" x2="159.97" y2="3054.39" xlink:href="#名称未設定グラデーション_23"/><linearGradient id="名称未設定グラデーション_23-12" x1="-35.58" y1="2936.79" x2="37.28" y2="2994.58" xlink:href="#名称未設定グラデーション_23"/><linearGradient id="名称未設定グラデーション_23-13" x1="-37.41" y1="2996.26" x2="28.53" y2="2992.95" xlink:href="#名称未設定グラデーション_23"/><linearGradient id="名称未設定グラデーション_23-14" x1="22.9" y1="2913.09" x2="47.59" y2="2983.55" xlink:href="#名称未設定グラデーション_23"/><linearGradient id="名称未設定グラデーション_23-15" x1="-10.2" y1="2929.66" x2="18.4" y2="2951.64" xlink:href="#名称未設定グラデーション_23"/><linearGradient id="名称未設定グラデーション_23-16" x1="63.02" y1="3043.5" x2="-77.08" y2="3024.89" xlink:href="#名称未設定グラデーション_23"/><linearGradient id="名称未設定グラデーション_23-17" x1="64.6" y1="3044.25" x2="-34.48" y2="2976.82" xlink:href="#名称未設定グラデーション_23"/><linearGradient id="名称未設定グラデーション_23-18" x1="51.32" y1="3036.02" x2="59.5" y2="3096.12" xlink:href="#名称未設定グラデーション_23"/><linearGradient id="名称未設定グラデーション_23-19" x1="126.27" y1="2897.78" x2="67.39" y2="2986.95" xlink:href="#名称未設定グラデーション_23"/><linearGradient id="名称未設定グラデーション_23-20" x1="-45.11" y1="3088.27" x2="48.93" y2="3002.12" xlink:href="#名称未設定グラデーション_23"/><linearGradient id="名称未設定グラデーション_23-21" x1="37.58" y1="2876.96" x2="60.06" y2="2941.9" xlink:href="#名称未設定グラデーション_23"/></defs><title>icon_rails</title><g id="レイヤー_2" data-name="レイヤー 2"><g id="レイヤー_1-2" data-name="レイヤー 1"><g id="rails-color"><path class="cls-1" d="M0,14.05V133.92c0,.28,0,.55,0,.83H91.65a14.08,14.08,0,0,0,14-14V.84c0-.28,0-.56,0-.84H14A14.07,14.07,0,0,0,0,14.05Z"/><path class="cls-2" d="M2.41,16V131.42c0,.27,0,.53,0,.8H89.86c8,0,13.41-5.47,13.41-13.52V3.22c0-.26,0-.53,0-.8H15.82C6.69,2.42,2.41,7.32,2.41,16Z"/><polygon class="cls-3" points="53.45 102.55 83.03 132.2 24.31 132.2 53.45 102.55"/><polygon class="cls-4" points="53.45 102.55 24.27 90.42 12.2 61.21 24.34 32.04 53.54 19.97 82.72 32.1 94.78 61.31 82.65 90.48 53.45 102.55"/><polygon class="cls-5" points="82.65 90.48 94.78 61.31 103.28 83.17 82.65 90.48"/><polygon class="cls-6" points="94.78 61.31 103.23 39.24 103.28 83.17 94.78 61.31"/><polygon class="cls-7" points="53.45 102.55 83.03 132.2 82.65 90.48 53.45 102.55"/><polygon class="cls-8" points="103.28 83.17 83.03 132.2 82.67 90.68 103.28 83.17"/><polygon class="cls-9" points="53.45 19.97 83.03 2.5 82.65 32.04 53.45 19.97"/><polygon class="cls-10" points="103.23 39.24 83.03 2.5 82.65 32.04 103.23 39.24"/><path class="cls-11" d="M94.78,61.31"/><polygon class="cls-12" points="103.23 2.44 83.03 2.44 103.23 39.24 103.23 2.44"/><polygon class="cls-13" points="2.46 132.22 24.31 132.2 2.44 83.54 2.46 132.22"/><polygon class="cls-14" points="94.77 61.15 82.65 32.04 103.23 39.24 94.77 61.15"/><polygon class="cls-15" points="24.65 90.48 12.53 61.31 2.44 83.54 24.65 90.48"/><polygon class="cls-16" points="12.53 61.31 2.62 39.25 2.44 83.54 12.53 61.31"/><polygon class="cls-17" points="53.45 102.55 24.3 132.18 24.6 90.52 53.45 102.55"/><polygon class="cls-18" points="2.44 83.54 24.31 132.2 24.5 90.47 2.44 83.54"/><polygon class="cls-19" points="53.86 19.97 24.29 2.5 24.65 32.04 53.86 19.97"/><polygon class="cls-20" points="12.54 61.15 24.65 32.04 2.62 39.25 12.54 61.15"/><polygon class="cls-21" points="53.86 19.97 83.03 2.44 24.29 2.44 53.86 19.97"/><path class="cls-22" d="M103.27,110.88V83.2L83,132.21h7.75c5.74,0,12.49-4.39,12.49-13.8Z"/><path class="cls-23" d="M2.41,23.84,2.5,39.51,24.3,2.44l-10.45.13C7,2.57,2.42,6.94,2.42,16.3Z"/><polygon class="cls-24" points="53.68 102.58 83.03 132.2 24.31 132.2 53.68 102.58"/><rect class="cls-25" x="36.72" y="110.7" width="4.8" height="5.28"/><rect class="cls-25" x="15.84" y="110.7" width="4.82" height="3.98"/><path class="cls-26" d="M25.89,113.4v-2.7a5.23,5.23,0,0,0-5.25-5.23h-10v19.58h5.23V119.3l4.33,5.75h6.23l-4.89-6.5A5.18,5.18,0,0,0,25.89,113.4Zm-5.23,1.27H15.84v-4h4.82Z"/><path class="cls-26" d="M41.48,105.47H36.72a5.19,5.19,0,0,0-5.22,5.23v14.35h5.22v-3.86h4.8v3.86h5.22V110.72A5.26,5.26,0,0,0,41.48,105.47Zm0,10.51H36.72V110.7h4.8V116Z"/><rect class="cls-26" x="52.44" y="105.47" width="5.25" height="19.57"/><polygon class="cls-26" points="68.66 105.47 63.4 105.47 63.4 125.05 76.45 125.05 76.45 119.83 68.66 119.83 68.66 105.47"/><path class="cls-26" d="M89.56,112.49H84.8v-2.12h9v-4.9h-9a5.24,5.24,0,0,0-5.25,5.25v1.79a5.22,5.22,0,0,0,5.28,5.19H89.6v2.45H79.91v4.9H89.6a5.19,5.19,0,0,0,5.22-5.23V117.7A5.22,5.22,0,0,0,89.56,112.49Z"/><path class="cls-26" d="M17.91,76.27c-3.14-.5-5.92-1-8.25-1.51-.81,2.73-1.59,5.54-2.23,8.47,2.24.38,5.19.71,8.6,1C16.6,81.49,17.23,78.84,17.91,76.27Z"/><path class="cls-26" d="M69.89,89.66c-.75-1.7-1.47-3.4-2.12-5.08-2.53-.46-4.84-1-7.77-1.52q.93,2.88,2.07,5.86C65.07,89.23,67.36,89.48,69.89,89.66Z"/><path class="cls-26" d="M38.14,27.93q-2.84-2.16-5.7-4.26c-1.37,1.7-2.69,3.48-3.95,5.36,2,1.3,4.1,2.65,6.15,4C35.76,31.26,36.93,29.55,38.14,27.93Z"/><path class="cls-26" d="M70.16,37.44c-1-1.54-1.93-3.09-2.94-4.65a34.5,34.5,0,0,0-2.54,3.05q1.72,2.35,3.38,4.71A36.73,36.73,0,0,1,70.16,37.44Z"/><path class="cls-26" d="M94.43,17.26l.18-1.82a50.93,50.93,0,0,0-5.24-3.77c0,.82,0,1.65.06,2.46A49.56,49.56,0,0,1,94.43,17.26Z"/><path class="cls-26" d="M55.34,13.86q-1.76-2.34-3.6-4.69a42.39,42.39,0,0,0-5.19,3c1.44,1.55,2.86,3.11,4.24,4.67A40.63,40.63,0,0,1,55.34,13.86Z"/><path class="cls-26" d="M73.9,10.6c-.41-1.29-.81-2.6-1.22-3.91a39,39,0,0,0-6.1-.38c.61,1.43,1.21,2.86,1.82,4.28A34.83,34.83,0,0,1,73.9,10.6Z"/><path class="cls-26" d="M25.2,49.54c-2.44-1.06-4.82-2.09-7.11-3.1-.88,2.28-1.63,4.59-2.43,7.08q3.43,1.36,7.25,2.76C23.66,54,24.4,51.7,25.2,49.54Z"/><path class="cls-26" d="M57.18,49.45c.31-1.14.63-2.27,1-3.37-.38,1.06-.75,2.14-1.09,3.26Z"/><path class="cls-26" d="M55.29,67.35l.05,0c-.1-1.67-.14-3.37-.1-5.07l-.19-.09C55.05,63.88,55.13,65.6,55.29,67.35Z"/><path class="cls-26" d="M74.74,26.8c.56,1.36,1.1,2.72,1.63,4.08a23.37,23.37,0,0,1,3.13-1.65c-.4-1.23-.79-2.48-1.19-3.73A23.8,23.8,0,0,0,74.74,26.8Z"/><path class="cls-26" d="M43.33,26c-17.47,19.82-24,46.15-24.91,71.65H62.67c-4-9.84-6-20-7.33-30.32l-.05,0a47,47,0,0,1-.24-5.13l.19.09a53.82,53.82,0,0,1,1.94-12.84l-.12-.11c.34-1.12.71-2.2,1.09-3.26C62.63,29.91,77.36,14,99.23,26.9c.38-.86.77-1.72,1.18-2.58C84.6,7.83,57.55,9.44,43.33,26Z"/><path class="cls-26" d="M57.52,67.53c2.36,1,4.46,2,6.74,3-.33-1.6-.57-3.18-.74-4.73-2.08-1.13-4-2.25-6.11-3.37C57.36,64.16,57.41,65.86,57.52,67.53Z"/><path class="cls-26" d="M89,27.21a27,27,0,0,1,3.79.22c0-.61.06-1.2.11-1.81a31,31,0,0,0-4.06-.81C88.92,25.61,89,26.41,89,27.21Z"/><path class="cls-26" d="M59.78,47.41c-.34,1.1-.66,2.23-1,3.37,1.59,1.41,3.09,2.81,4.65,4.22a39.2,39.2,0,0,1,1.1-4.1c-1.43-1.5-2.9-3-4.4-4.52C60,46.72,59.91,47.07,59.78,47.41Z"/></g></g></g></svg>