<svg xmlns="http://www.w3.org/2000/svg" viewBox="0 0 410.65 414.24"><defs><style>.cls-1{fill:#ebb951;}.cls-2{fill:#8ac4e6;}.cls-3{fill:#3a88bd;}.cls-4{fill:#b6927f;}.cls-5{fill:#b8937f;}.cls-6{fill:#fcd804;}.cls-7{fill:#fff;}.cls-8{fill:#231815;}.cls-9{fill:#dfdcdb;}.cls-10{fill:#111;}</style></defs><title>gopher_o</title><g id="レイヤー_2" data-name="レイヤー 2"><g id="gopher"><path class="cls-1" d="M279.66,92.06c4-14,15.71-24.82,28.65-26.42,6.95-.86,13.93.72,20.91,1.13,25,1.46,49.26-12.48,67.57-31.91l13.86,33.3C397.1,76.89,383,85.81,367.54,87.52c-10,1.11-20.47-.8-29.91,3.1-7.86,3.25-14,10.13-20.89,15.54s-15.63,9.51-23.47,6.2Z"/><path class="cls-1" d="M292.64,104.77a31.83,31.83,0,0,1,27.26-5.59c3.61,1,7.07,2.57,10.67,3.6,15.71,4.49,32-2.46,47.06-9.29a214.45,214.45,0,0,0,4,24.5c-9.22,4.25-18.92,8.58-28.81,7.38-5.22-.64-10.2-2.8-15.3-4.22a56.44,56.44,0,0,0-44.26,6.31Z"/><path class="cls-1" d="M379.51,346.59c-10.48-17.47-7.77-57.81,2.75-67.51l-34.48-18.79s-15.29-45.24-15.45-65L205.86,262.35,65.12,195.28l-49-3.27S2.15,227.44,1.45,252.25s22.72,38.08,22.37,69.18S.41,362.31,7,377c0,0,23.55-22.4,43.22-15.92S71,387.82,102.43,383.28s164.92-7.34,164.92-7.34,35.64-18.17,47.52-10.48,17.12,22.34,30.4,19.38,28.3,6.47,31.1,12.76C376.37,397.6,390,364.06,379.51,346.59ZM38,264c-8.64,0-15.82-5-15.88-12.27-.61-5,10.58-7,13.41-7.72,9.1.64,16,4.23,18.62,7.84C50.32,258.58,43.13,264.31,38,264Zm40.25,66.91c-1,.41-4.72,5.09-5.55,4.15-6.18,4.56-12.48,3.16-16.36,3.85-4.48-1.36-9-4.06-11.6-7.41,1.9-4.9,4-8.09,6-13.65,2.47-1.57,6.89-6.5,8.79-5.14,14.42-6.77,24.18-2.43,24.08,3.49C88,319.71,86,325.33,78.24,330.91Zm275.49,12.53c-2.92.74-6.73,2.85-12.2.27-5.7-1.9-5.39-1.51-9.94-3.63-3-2.36-2.25-8.82-3.16-12.77-.07-.73,1.7-4.53,5.94-5.35a44.07,44.07,0,0,1,12.42-2c5.07.95,9.86,1.94,9.94,5.72,2.23,2.35,7.08,6.09,4.33,11.69C359.8,340.69,356.11,341.56,353.73,343.44Z"/><path class="cls-1" d="M376.37,399a1.44,1.44,0,0,1-1.32-.85c-1.09-2.46-4.89-6.24-10.92-9.14-3.68-1.77-11-4.49-18.55-2.81a16.63,16.63,0,0,1-3.73.43c-7.29,0-12.22-5.21-17.39-10.68-3.13-3.31-6.37-6.74-10.37-9.33-9.17-5.93-36.38,5.61-46.08,10.56a1.55,1.55,0,0,1-.63.16c-1.33,0-133.74,2.84-164.74,7.32-20.5,3-28.73-4.48-36.69-11.68-4.51-4.07-9.16-8.28-16.14-10.58C31.17,356.3,8.26,377.81,8,378a1.45,1.45,0,0,1-1.27.37,1.47,1.47,0,0,1-1-.82c-3.48-7.7.54-14.27,5.19-21.88,5-8.21,11.28-18.44,11.46-34.28s-6-27-12-37.75C4.89,273.76-.33,264.4,0,252.21c.69-24.78,14.15-59.27,14.73-60.73a1.44,1.44,0,0,1,1.43-.91l49,3.27a1.67,1.67,0,0,1,.53.14l140.08,66.76L331.65,194a1.44,1.44,0,0,1,2.12,1.26c.15,18.16,13.49,58.89,15.19,64l34,18.52a1.46,1.46,0,0,1,.74,1.09,1.42,1.42,0,0,1-.45,1.23c-9.77,9-12.83,48.49-2.49,65.72,4.53,7.56,5.39,18.69,2.53,33.08a116.43,116.43,0,0,1-5.58,19.21,1.43,1.43,0,0,1-1.31.9Zm-25.79-16.21c10.69,0,21.07,6.16,25.44,11.57,2.88-8.17,10.58-33.21,2.26-47.07-5-8.28-7.48-22.29-6.71-37.48.55-10.73,3-23.91,8.37-30.4l-32.85-17.9a1.45,1.45,0,0,1-.68-.8c-.6-1.79-14.27-42.44-15.44-63.12l-124.44,66a1.43,1.43,0,0,1-1.29,0L64.75,196.7l-47.7-3.19c-2.22,5.87-13.54,36.79-14.16,58.78-.32,11.4,4.71,20.42,10,30,6.16,11.05,12.52,22.48,12.33,39.18s-6.67,27.24-11.88,35.75c-4.1,6.72-7.19,11.76-5.7,17.3a84.88,84.88,0,0,1,12.89-9.15c11.28-6.47,21.71-8.42,30.15-5.64,7.56,2.49,12.44,6.9,17.17,11.17,7.81,7.07,15.18,13.74,34.35,11,30.41-4.39,157.39-7.18,164.77-7.34a171.57,171.57,0,0,1,19.19-8.05c14.23-4.91,24.15-5.65,29.46-2.21,4.29,2.77,7.65,6.33,10.9,9.76,5.9,6.25,10.56,11.18,18.41,9.43A25.46,25.46,0,0,1,350.58,382.83Zm-3.77-36.43A13.52,13.52,0,0,1,341,345c-1.6-.53-2.72-.88-3.61-1.15a38.26,38.26,0,0,1-6.4-2.51,1.75,1.75,0,0,1-.29-.18c-2.51-2-2.85-6-3.15-9.51a31.84,31.84,0,0,0-.51-4.05.69.69,0,0,1,0-.2c-.15-1.64,2.34-5.92,7-6.87a45.8,45.8,0,0,1,12.77-2.07,1.33,1.33,0,0,1,.28,0c4.71.88,10.52,2,11.08,6.5l.48.48c2.47,2.46,6.6,6.56,3.77,12.41-1.06,2.74-3.38,4-5.44,5.2a18.53,18.53,0,0,0-2.32,1.45,1.38,1.38,0,0,1-.54.27c-.46.11-1,.27-1.5.44A18.18,18.18,0,0,1,346.81,346.4Zm-14.44-7.55a34.57,34.57,0,0,0,5.86,2.29c.92.29,2.07.64,3.75,1.2l.16.07c4,1.89,7,1,9.57.13.47-.15.93-.29,1.37-.41a21.74,21.74,0,0,1,2.46-1.52c1.8-1,3.5-2,4.18-3.77a.61.61,0,0,1,0-.12c1.83-3.73-.36-6.36-3.19-9.17l-.89-.9a1.38,1.38,0,0,1-.39-1c-.06-2.48-3.61-3.36-8.63-4.31a42.14,42.14,0,0,0-11.83,1.94,1.17,1.17,0,0,1-.2.06,6.5,6.5,0,0,0-4.75,3.88,35.51,35.51,0,0,1,.52,4.19C330.65,334.31,330.92,337.55,332.37,338.85Zm21.36,4.59Zm-297.4-3.09a1.4,1.4,0,0,1-.41-.06c-5.09-1.54-9.69-4.5-12.33-7.91a1.47,1.47,0,0,1-.2-1.4c.89-2.29,1.84-4.24,2.76-6.14a73.44,73.44,0,0,0,3.27-7.48,1.46,1.46,0,0,1,.58-.72,26.69,26.69,0,0,0,2.39-1.88c2.49-2.09,5-4.24,7.16-3.63,12.92-5.86,20-2.39,21.89-1.17a7.37,7.37,0,0,1,3.61,5.57,6.69,6.69,0,0,1,2.28,5.18c-.09,3.6-2.94,7.53-8.25,11.37a1.35,1.35,0,0,1-.26.15,18.46,18.46,0,0,0-1.52,1.4c-1.86,1.85-3.08,3-4.31,3h0c-4.71,3.22-9.49,3.36-13,3.47a24,24,0,0,0-3.36.24Zm-9.95-9.11a23.12,23.12,0,0,0,10.06,6.2,29.7,29.7,0,0,1,3.42-.23c3.66-.11,7.81-.23,12-3.31a1.43,1.43,0,0,1,1.16-.25,21.86,21.86,0,0,0,2.28-2.06,11.55,11.55,0,0,1,2.22-1.92c4.36-3.17,6.89-6.46,7-9a4,4,0,0,0-1.72-3.32,1.41,1.41,0,0,1-.54-1.14,4.48,4.48,0,0,0-2.33-3.81c-3.29-2.13-10.19-2.82-19.7,1.64a1.43,1.43,0,0,1-1.4-.1c-.82-.06-3.32,2-4.53,3-.81.68-1.58,1.33-2.28,1.83a76.25,76.25,0,0,1-3.22,7.31C47.92,327.79,47.13,329.4,46.38,331.24Zm32.42,1h0Zm-.56-1.33ZM38.41,265.45h-.52c-9.72,0-17.1-5.84-17.22-13.62-.6-5.76,9.32-8,13.57-9l.93-.22a1.38,1.38,0,0,1,.45,0c10.5.74,17.16,5,19.68,8.43a1.43,1.43,0,0,1,.1,1.56C51.73,259,44.47,265.45,38.41,265.45ZM38,262.56h.09c4.18.26,10.55-4.51,14.31-10.58-2.67-2.92-8.63-5.91-16.75-6.52l-.76.17c-7.79,1.78-11.61,3.77-11.35,5.93a.81.81,0,0,1,0,.16c.06,6.21,6.28,10.89,14.45,10.84Z"/><path class="cls-2" d="M357.28,54.34c-10.67-22-36.7-2.58-43.32-9.41C280.36,10.22,239.61,1.62,207.56,0c0,0-14.46-.08-17.68,0-32.08.79-72.8,10.18-106.4,44.89-6.62,6.83-32.65-12.56-43.32,9.41C27.74,79.92,65.39,82.6,63.39,93.89c-3.63,20.52-1.24,51,1.56,81,4.73,50.85-33.32,172.63,45.87,221.54C125.77,405.7,166,411,201,411.69h.29c35-.73,70.4-6,85.35-15.22,79.19-48.91,41.15-170.69,45.88-221.54,2.79-30,5.18-60.52,1.55-81C332.05,82.6,369.7,79.92,357.28,54.34Z"/><path class="cls-3" d="M327.25,58.22c-.93,3.42,3.41,3,5,13.25.6,3.78,14.37-5.57,8.78-12.52C336.49,53.25,328.16,54.88,327.25,58.22Z"/><path class="cls-3" d="M70.19,58.22c.93,3.42-3.41,3-5,13.25-.6,3.78-14.37-5.57-8.78-12.52C61,53.25,69.28,54.88,70.19,58.22Z"/><path class="cls-2" d="M329.09,246.6c-11.88-57.54,16.9,4.84,25.08,11.9a19.35,19.35,0,0,1,2.32,27.28c-6.9,8-14.94-9-27.32-8.29C313.79,278.38,331,255.73,329.09,246.6Z"/><path class="cls-4" d="M276.33,387.42c13.78-8.75,26.23,6.42,30.78,20.6,1.22,3.8,1.9,5.78-2.65,6.2-3,.29-6.69-3.32-6.94-2.13-1,4.71-15.69-6.24-23.47-15C270.45,393,271.74,390.33,276.33,387.42Z"/><path class="cls-4" d="M125.11,399.16c-5.45-15.38-24.6-11.11-36.93-2.76-3.31,2.24-5.06,3.38-1.74,6.52,2.22,2.11,7.32,1.51,6.77,2.6-2.14,4.3,16.2,4.76,27.75,2.65C126.3,407.19,126.93,404.29,125.11,399.16Z"/><path class="cls-1" d="M198.11,227.82a1.29,1.29,0,0,1-.55-.11C146.73,206.56,100,200,65,196.71a1.44,1.44,0,1,1,.27-2.86c35.11,3.33,81.91,9.86,132.89,31,8.65-3.19,16.46-6.2,23.37-8.86,36.9-14.21,57.23-22,110.82-22.14h0a1.44,1.44,0,0,1,0,2.88c-25.16,0-43.94,1.79-60.89,5.65-16.17,3.69-30.61,9.25-48.9,16.3-7.06,2.71-15.06,5.79-23.93,9.06A1.47,1.47,0,0,1,198.11,227.82Z"/><path class="cls-2" d="M68.35,230.05c11.88,57.54-16.9-4.84-25.09-11.9a19.37,19.37,0,0,1-2.32-27.28c6.91-8,14.94,9,27.33,8.29C83.65,198.27,66.47,220.92,68.35,230.05Z"/><path class="cls-5" d="M49.42,202.1c-10.44,25.39-44.34-3.43-30-15.82,7-6,16.35-3.7,23.81-.57C47.38,187.44,52.25,194.89,49.42,202.1Z"/><path class="cls-5" d="M363.1,262.54c7.87,1.88,16.78,5.55,18.88,14.52,4.27,18.46-40.09,21.72-33.54-4.94C350.41,264.64,358.73,261.5,363.1,262.54Z"/><path class="cls-6" d="M248,346.92c6.95-4,12.54-13.78,12.54-21.76V281.63c0-8-5.7-17.73-12.54-21.77l-37.73-21.77c-6.94-4-18.24-4-25.08,0l-37.73,21.77c-6.94,4-12.54,13.78-12.54,21.77v43.53c0,8,5.7,17.72,12.54,21.76l37.73,21.77c6.95,4,18.24,4,25.08,0Z"/><path class="cls-1" d="M242.6,337.6a15.67,15.67,0,0,0,7.16-12.44V281.63a16,16,0,0,0-7.16-12.44l-37.72-21.77a16,16,0,0,0-14.41,0l-37.73,21.77a15.66,15.66,0,0,0-7.15,12.44v43.53a15.93,15.93,0,0,0,7.15,12.44l37.73,21.76a16,16,0,0,0,14.41,0Z"/><path class="cls-7" d="M197.72,267.53a35.92,35.92,0,1,0,36,35.86A35.84,35.84,0,0,0,197.72,267.53Zm0,58.46a22.6,22.6,0,0,1,0-45.19h0a22.6,22.6,0,0,1,0,45.19Z"/></g><g id="mask"><path class="cls-1" d="M333.23,166.85c2.44-27.33,4.13-54.28.82-73a4.84,4.84,0,0,1-.07-1.13,61.93,61.93,0,0,1-13,1.66c-8.07,0-31.65-33-64.39-33-31.39,0-55.92,15.8-57.88,49.16-1.95-33.36-26.48-49.16-57.88-49.16-32.74,0-56.32,33-64.39,33a62,62,0,0,1-13-1.66,4.84,4.84,0,0,1-.07,1.13c-3.31,18.68-1.62,45.63.82,73,16.09,1.07,45.19,7.66,73.1,7.66a63.86,63.86,0,0,0,34.33-10.23h0s13.21-8.62,27.08-8.62,27.08,8.62,27.08,8.62h0a63.86,63.86,0,0,0,34.33,10.23C288,174.51,317.14,167.92,333.23,166.85Z"/></g><g id="eye"><path class="cls-4" d="M198.87,155.44c-25.78,3.82-35,11.26-33,22.95,3.21,19.06,64.15,16.92,65.94,1C233.33,165.62,208.94,154,198.87,155.44Z"/><path class="cls-8" d="M182.17,163.12c-4.38,15.89,35,13.46,34,3.24-.57-5.9-5.84-13.62-19.84-13.16C190.92,153.38,184.21,155.71,182.17,163.12Z"/><path class="cls-9" d="M183.42,188.83c-1.41.64-3.83,16.41,3.5,17.22,5,.55,18.71,2.12,21.92.06,6.29-4,5.58-13.78,2.08-16.13C205.09,186.05,185.1,188.08,183.42,188.83Z"/><path class="cls-9" d="M254.55,69.93c-53.53,6.21-46.3,62.13-25.66,80.19,38.49,33.68,78.59,0,74.18-34.08C298.83,83.35,271.17,68,254.55,69.93Z"/><circle class="cls-10" cx="241.37" cy="132.73" r="18.34"/><circle class="cls-7" cx="236.56" cy="126.94" r="5.78"/><path class="cls-9" d="M142.89,69.93c53.53,6.21,46.3,62.13,25.66,80.19C130.06,183.8,90,150.12,94.38,116,98.61,83.35,126.27,68,142.89,69.93Z"/><circle class="cls-10" cx="122.64" cy="101.3" r="18.34"/><circle class="cls-7" cx="127.46" cy="93.51" r="5.78"/></g></g></svg>