<svg xmlns="http://www.w3.org/2000/svg" viewBox="0 0 364.5 414.24"><defs><style>.cls-1{fill:#c9177e;}.cls-2{fill:#8cc5e7;}.cls-3{fill:#b8937f;}.cls-4{fill:#0083c0;}.cls-5{fill:#ff4088;}.cls-6{fill:#fff;}.cls-7{fill:#e0dedc;}.cls-8{fill:#111212;}</style></defs><title>gopher_h</title><g id="レイヤー_2" data-name="レイヤー 2"><g id="gopher"><path class="cls-1" d="M92.05,156.1a56.17,56.17,0,0,1-37,24.7c-11.05,1.95-22.41.51-33.47-1.39a36.89,36.89,0,0,1,24.84-28.76A85.84,85.84,0,0,1,0,136.51c7-12.08,19.55-20.28,33-24.1s27.7-3.61,41.55-1.83Z"/><path class="cls-1" d="M67.78,196.05c-3.17,49.29-16,63.29-27.68,94.39C24.39,321,12.74,327.07,3.94,341c6.24,6.1,27.57,25.38,50.4,33.56,65.7,12.77,146.55,12.19,200.9,0,45.28-8.76,74.62-3.09,107.21,22.86,1.87-63.63,1.2-139.51-27.47-201.34"/><path class="cls-1" d="M362.45,398.83a1.49,1.49,0,0,1-.9-.31c-31.73-25.28-60.47-31.4-106-22.58-28,6.27-62.23,9.41-97.53,9.41s-71.67-3.14-103.95-9.41a.83.83,0,0,1-.21-.06C29.36,367.1,7.14,346.11,2.94,342a1.43,1.43,0,0,1-.21-1.8,103.05,103.05,0,0,1,10.71-13.56c7.2-8.14,15.35-17.36,25.34-36.78,3-8.05,6.11-14.95,9.1-21.61,8.65-19.32,16.13-36,18.46-72.29a1.45,1.45,0,0,1,1.53-1.34,1.43,1.43,0,0,1,1.34,1.53c-2.36,36.8-10.3,54.52-18.71,73.27-3,6.65-6.06,13.53-9,21.53a1,1,0,0,1-.07.15A162.39,162.39,0,0,1,15.6,328.54a108.48,108.48,0,0,0-9.81,12.22c5.69,5.45,26.36,24.25,48.93,32.38,31.78,6.17,67.86,9.39,104.32,9.31,35.86-.07,69-3.3,95.89-9.32h0c23.55-4.56,42.28-5.06,58.93-1.59,16.24,3.4,31.3,10.72,47.19,23,.83-29.56,1.12-64.07-2.36-98.31-4-39.18-12.17-71.74-25.06-99.53a1.44,1.44,0,1,1,2.61-1.21c13,28.08,21.3,60.94,25.32,100.45,3.6,35.51,3.18,71.26,2.28,101.53a1.42,1.42,0,0,1-1.43,1.4Z"/><path class="cls-2" d="M360,54.44c-10.76-22-36.78-2.57-43.37-9.47C282.86,10.28,242.07,1.61,210.11,0H192.44C160.32.8,119.53,10.12,86,45c-6.59,6.9-32.77-12.53-43.36,9.47C30.24,80.14,67.82,82.71,65.89,94.11c-3.69,20.56-1.28,51.07,1.61,81.1C72,226.12,33.93,348,113.11,397c14.93,9.31,55.24,14.45,90.25,15.25h.32c35-.8,70.51-5.94,85.44-15.25,79.34-49,41.28-170.88,45.93-221.79,2.73-30,5.14-60.54,1.61-81.1C334.73,82.71,372.31,80,360,54.44Z"/><path class="cls-2" d="M360,54.44c-10.76-22-36.78-2.57-43.37-9.47C282.86,10.28,242.07,1.61,210.11,0H192.44C160.32.8,119.53,10.12,86,45c-6.59,6.9-32.77-12.53-43.36,9.47C30.24,80.14,67.82,82.71,65.89,94.11c-3.69,20.56-1.28,51.07,1.61,81.1C72,226.12,33.93,348,113.11,397c14.93,9.31,55.24,14.45,90.25,15.25h.32c35-.8,70.51-5.94,85.44-15.25,79.34-49,41.28-170.88,45.93-221.79,2.73-30,5.14-60.54,1.61-81.1C334.73,82.71,372.31,80,360,54.44Z"/><path class="cls-3" d="M337.94,282.65c17.67.16,9-37.74-1.92-30.19-5.3,3.69-6.27,12.2-6.27,19.43C329.75,275.91,333,282.49,337.94,282.65Zm-273.49,0c-17.67.16-9-37.74,1.92-30.19,5.3,3.69,6.27,12.2,6.27,19.43C72.64,275.91,69.42,282.49,64.45,282.65ZM304.38,399.08c-9.64-14.29-18.31-3.21-32.28,3.86-6.59,3.37,10.92,15.42,30.51,6.42C307.75,407,307.59,403.74,304.38,399.08ZM98,400.69c9.64-14.29,18.31-3.21,32.28,3.86,6.59,3.37-10.92,15.41-30.51,6.42C94.64,408.56,94.8,405.35,98,400.69Z"/><path class="cls-4" d="M329.91,58.3c-1,3.37,3.38,2.89,5,13.33.64,3.85,14.46-5.62,8.84-12.53C339.07,53.32,330.72,54.92,329.91,58.3Zm-257.43,0c1,3.37-3.38,2.89-5,13.33C66.86,75.48,53,66,58.66,59.1,63.16,53.32,71.51,54.92,72.48,58.3Z"/><path class="cls-1" d="M200.47,227.83a1.52,1.52,0,0,1-.55-.1c-55.8-23-109.39-28.09-132.27-30.24a1.44,1.44,0,0,1,.27-2.87c22.94,2.16,76.57,7.21,132.58,30.23,7.17-2.62,13.59-5,19.81-7.38,39-14.67,60.43-22.76,114.66-22.85h0a1.44,1.44,0,0,1,0,2.87c-25.47,0-44.69,1.85-62.3,5.85-16.79,3.81-32,9.55-51.36,16.82-6.37,2.4-13,4.89-20.35,7.59A1.69,1.69,0,0,1,200.47,227.83Z"/><path class="cls-1" d="M250.56,346.92c6.95-4,12.55-13.78,12.55-21.76V281.63c0-8-5.7-17.73-12.55-21.77l-37.72-21.77c-7-4-18.25-4-25.09,0L150,259.86c-6.85,4-12.55,13.78-12.55,21.77v43.53c0,8,5.7,17.72,12.55,21.76l37.72,21.77c6.95,4,18.25,4,25.09,0Z"/><path class="cls-5" d="M245.17,337.6a15.67,15.67,0,0,0,7.16-12.44V281.63a15.94,15.94,0,0,0-7.16-12.44l-37.72-21.77a15.82,15.82,0,0,0-14.31,0l-37.72,21.77a15.67,15.67,0,0,0-7.16,12.44v43.53a15.94,15.94,0,0,0,7.16,12.44l37.72,21.76a15.82,15.82,0,0,0,14.31,0Z"/><path class="cls-6" d="M173.55,338.32V268.46h14.62V294h24.25v-25.5h14.72v69.86H212.42V307.75H188.17v30.57Z"/></g><g id="mask"><path class="cls-1" d="M324.16,94.42c-8.07,0-31.66-33-64.4-33-31.39,0-55.92,15.8-57.87,49.16-2-33.36-26.49-49.16-57.88-49.16-32.74,0-56.33,33-64.4,33a63.15,63.15,0,0,1-13.69-1.83,5.18,5.18,0,0,1,0,1.52c-3.35,18.64-1.68,45.47.82,72.7,15.94.93,45.47,7.7,73.77,7.7a63.89,63.89,0,0,0,34.33-10.23h0s13.21-8.62,27.08-8.62S229,164.28,229,164.28h0a63.89,63.89,0,0,0,34.33,10.23c27.57,0,56.3-6.42,72.51-7.62,2.38-27.26,4.07-54.12.86-72.78a5.13,5.13,0,0,1-.06-1.23A61,61,0,0,1,324.16,94.42Z"/></g><g id="eye"><path class="cls-7" d="M257,70c-53.64,6.26-46.41,62.15-25.69,80.3,38.54,33.72,78.69,0,74.19-34C301.49,83.51,273.7,68.09,257,70Z"/><path class="cls-8" d="M260.7,99.89a18.31,18.31,0,1,1-18.31,18.31A18.31,18.31,0,0,1,260.7,99.89Zm-119.08-.25A18.31,18.31,0,1,1,123.31,118,18.32,18.32,0,0,1,141.62,99.64Z"/><path class="cls-6" d="M255.88,104.55a5.78,5.78,0,1,1-5.78,5.78A5.78,5.78,0,0,1,255.88,104.55Zm-109.57-1a5.79,5.79,0,1,1-5.78,5.78A5.78,5.78,0,0,1,146.31,103.57Z"/><path class="cls-3" d="M201.28,154.66c-25.7,3.85-34.85,11.24-32.93,22.8,3.21,18.95,63.76,16.86,65.69,1C235.64,164.77,211.39,153.21,201.28,154.66Z"/><path d="M184.73,162.36c-4.33,15.74,34.85,13.33,33.89,3.22-.48-6-5.78-13.49-19.75-13.17C193.41,152.57,186.66,155,184.73,162.36Z"/><path class="cls-7" d="M186,187.9c-1.45.64-3.86,16.38,3.53,17.18,5,.48,18.63,2.09,21.84,0,6.27-4,5.62-13.65,2.09-16.06C207.54,185.17,187.62,187.1,186,187.9Z"/><path class="cls-7" d="M145.23,70c53.64,6.26,46.41,62.15,25.69,80.3-38.54,33.72-78.69,0-74.19-34C100.9,83.51,128.69,68.09,145.23,70Z"/><circle class="cls-8" cx="141.69" cy="118.2" r="18.31"/><circle class="cls-6" cx="146.51" cy="110.33" r="5.78"/></g></g></svg>