<?xml version="1.0" encoding="utf-8"?>
<!-- Generator: Adobe Illustrator 22.1.0, SVG Export Plug-In . SVG Version: 6.00 Build 0)  -->
<svg version="1.1" id="レイヤー_1" xmlns="http://www.w3.org/2000/svg" xmlns:xlink="http://www.w3.org/1999/xlink" x="0px"
	 y="0px" viewBox="0 0 877.3 362.5" style="enable-background:new 0 0 877.3 362.5;" xml:space="preserve">
<style type="text/css">
	.st0{fill:#DD3735;}
	.st1{fill:#DD3A0A;}
</style>
<title>postcss-logo-symbol</title>
<g>
	<path class="st0" d="M55.2,157c0.4,0.3,1.1,0.5,0.4,1.1c-0.5,0.7-1.1,1.3-1.5,2.1c-0.4,0.7-0.7,0.9-1.3,0.4
		C53.6,159.3,54.4,158.1,55.2,157L55.2,157z M256,261.9c0,0.3,0.1,0.5,0.1,0.8c0.2-0.4,0.2-0.6,0.3-0.8H256z M256,262.8L256,262.8
		L256,262.8z M217.7,183.6c-0.1,0.3-0.1,0.6-0.1,0.9C217.6,184.2,217.6,183.9,217.7,183.6L217.7,183.6z M217.8,185.6
		c-0.1,0-0.1,0-0.2-0.1v0.1C217.7,185.7,217.7,185.7,217.8,185.6L217.8,185.6z M217.6,186.4v-0.7c-0.3,0.1-0.6,0.1-1,0.2
		C217.1,186.1,217.6,186.2,217.6,186.4L217.6,186.4z"/>
	<path class="st1" d="M295.4,162.1c-0.2-3.9-0.3-7.8-0.7-11.7c-0.7-5.3-1.4-10.7-2.6-15.9c-0.9-4.3-2.4-8.4-3.9-12.5
		c-1.9-4.8-3.8-9.7-6.2-14.3c-3.9-7.4-9-14-13.7-20.9c-3.1-4.4-7.1-8-10.1-12.5c-1.7-2.6-4.2-4.8-6.7-6.8c-4-3.2-8.2-6.1-12.4-8.9
		c-3.2-2.2-6.4-4.3-9.8-6.2c-2.7-1.5-5.6-2.7-8.4-4c-3.2-1.5-6.3-3.3-9.9-4c-0.9-0.2-1.7-0.5-2.6-0.8c-2.3-0.8-4.5-1.7-6.8-2.4
		c-3.5-1.1-6.9-2.4-10.5-3.3c-3.5-0.9-7.1-1.5-10.7-2c-4-0.6-8.1-0.8-12.1-1.2c-2.6-0.3-5.1-0.6-7.7-0.7c-3.8-0.2-7.7-0.2-11.5-0.3
		c-1.9-0.1-3.9-0.3-5.8-0.2c-2.9,0.1-5.8,0.4-8.7,0.8c-2.8,0.3-5.6,0.8-8.3,1.2c-3.3,0.4-6.6,0.6-9.9,1c-3.1,0.4-6.3,1-9.4,1.5
		c-1.1,0.2-2.2,0.6-3.3,0.8c-2.3,0.4-4.8,0.6-7.2,1.4c-4.3,1.3-8.6,2.8-12.8,4.4c-3.9,1.6-7.7,3.3-11.4,5.3c-3.8,2.1-7.4,4.6-11,7
		c-3.4,2.3-6.8,4.8-10,7.3s-6.2,5.3-9.1,8.1c-1.6,1.6-2.9,3.5-4.4,5.3c-2.5,2.9-5,5.7-7.4,8.7c-2,2.5-3.8,5.1-5.7,7.7
		c-3.4,4.6-6.3,9.5-9,14.4c-1.1,2-2.1,4-3.1,6c-1.5,3-3.1,5.9-4.5,9c-1,2.1-1.8,4.4-2.4,6.7c-1.4,4.9-2.8,9.9-4.1,14.8
		c-1.2,4.4-1.5,9-1.6,13.5c-0.1,4,0.3,7.9,0.7,11.9c0.1,1-0.5,2.2,0.7,3c-0.4,1.1-0.1,1.7,0.5,1.9c-0.7,1.1,0.3,1.8-0.1,2.8
		c-0.1,0.2,0.3,0.6,0.5,0.9c0,0.3-0.1,0.7,0,1c0.1,0.9,0.5,1.8,0.5,2.8c0,0.7,0.6,1.5,0.8,2.2c0.1,0.3,0,0.8-0.2,1
		c-0.6,0.7-0.5,1.3,0.4,1.7c0.5,1.3,0.3,1.9,0.2,2.5c0.2,0.9-0.1,1.2,0,1.4c0.8,1.6,1.1,3.4,1.2,5.2c0,0.4,0.2,0.8,0.4,1.3
		c0.1,0,0,1.9,0,1.9c0.5-0.3,0.9-0.4,1.4-0.6c0.3,1.3,0.6,2.5,1,3.6c0.5,0.8,0.5,1.2,0.3,1.3c0.4,1.8,0.6,3.5,1.3,5.2
		c0-1.9-0.2-3.8-0.5-5.6c1.4,0.5,2.6,1,3.4,1c0.1-0.3,0.2-0.7,0.3-0.9c-0.6-0.6-1.1-1.5-1.7-2.1c0.2,0.8,0,1.1,0,1.4
		c-0.4-0.2-0.9-0.4-1.4-0.6c0.4-0.5,0.8-1,1.4-1.6c0-0.9-0.5-1.7-1.9-1.6c0.6-0.2,1.2-0.5,1.9-0.7c1.1-0.6-0.1-1.7-0.1-3.1
		c0.1-1.7-0.9-3.4-1.2-5.2c-0.5-2.8-0.4-7-0.7-9.8c-0.6-0.5-1.1,0.8-1.2,0.9c0.3,2.4,0.6,4.8,0.8,7.2c-0.6-2-1-4.2-1.5-6.6
		c-0.1,0.7-0.2,1-0.2,1.4c-0.5,0.5-0.1,1.1,0.2,1.8c-0.7-0.3-1.5-0.2-1.5-0.2v2.8c-1-1-1.3-1.8-1.8-2.5c-0.2-0.8-0.3-1.6-0.5-2.4
		c0.2-0.5,0-0.8,0-1.1c-0.1-0.8-0.2-1.6-0.3-2.4c0.1-0.1-0.1-1.6-0.1-1.6c0.8,0.1,1.3,0.2,1.8,0.2c-1-1.3-0.3-2.1,0.1-2.9
		c0.2-0.4,0.9-0.5,1.1-0.9c0.8-1.5,2.1-2.7,2.1-4.6c0-0.9,0.3-1.9,0.4-2.8c0.2-1.7,0.4-3.4,0.5-5.1c0.2-2.2,0-4.4,0.5-6.5
		c0.8-3.5,1.8-7,2.9-10.5c0.8-2.5,1.7-4.9,2.7-7.4c1.5-3.9,2.9-7.8,4.8-11.5c2.7-5.4,5.8-10.6,8.8-15.9c1.9-3.3,3.9-6.4,6-9.6
		c2-3.1,4-6.3,6.3-9.2c3.2-4.1,6.7-7.9,10.6-11.3c4-3.6,7.8-7.3,12.1-10.6c5.6-4.3,11.5-8.1,17.8-11.4c5.1-2.7,10.4-4.8,15.7-6.8
		c3.4-1.3,7.1-1.9,10.6-3c4-1.3,8-1.9,12.2-2c2.7-0.1,5.3-0.4,8-0.7c2.4-0.2,4.8-0.4,7.4-0.7c-0.3,0.4-0.4,0.6-0.5,0.8
		c-1.1,1.6-2.3,3.2-3.4,4.8c-0.9,1.3-1.9,2.7-2.8,4c-1.6,2.1-3.3,4.2-4.8,6.4c-2.3,3.3-4.4,6.7-6.8,10c-2.4,3.2-5,6.2-7.5,9.3
		c-3.3,4.3-6.4,8.7-9.7,13c-3,4.1-6.2,8-9.1,12.1c-2.6,3.6-4.9,7.4-7.4,11.1c-3.7,5.5-7.4,10.9-11.1,16.4c-2.9,4.2-5.8,8.4-8.8,12.5
		c-0.2,0.3-0.5,0.4-0.8,0.6c-0.8,1.3-0.8,2-1.1,2.6c-0.8,1.5-1.6,3-2.5,4.4c-0.5,0.8-1.2,1.5-1.8,2.3c-0.1-1.2,1.6-1.8,0.8-3.3
		c-0.5,0.8-1,1.5-1.5,2.3l-1.2,2.4c0.4,0.3,1.1,0.5,0.4,1.1c-0.3,0.5-0.6,1.1-0.9,1.6c0.4-0.3,0.8-0.6,1.1-1c0,1.1-0.6,2-1.1,2.9
		c-0.4,0.8-1.4,1.4-2.1,2c0.1,0.1,0.8,0.4,0.9,0.5c0.9-0.3,1.2-0.8,1.3-0.5c0.3-0.4,0.6-0.7,0.7-1c0.4-1,1-1.8,2-2.2
		c0.4-0.2,0.7-0.5,1-0.8c3-3.1,6.1-6.1,8.8-9.4c4.2-5.1,8-10.4,12-15.6c1.7-2.2,3.7-4.4,5.5-6.5c0.3,2.3,0.1,4.5,0,6.6
		c-0.3,3.7-0.5,7.4-0.8,11.2c-0.1,1.5,0,3-0.1,4.5c0,0.4-0.3,0.7-0.3,1.1c0,1,0.3,2.1,0.3,3.1c-0.3,3.7-0.7,7.3-1,11
		c-0.1,0.8,0.3,1.6,0.5,2.3c-0.5,5.4,0.6,11.1-0.3,16.8c0.7-1.1,0.9-1.8,0.9-2.5c0.1-0.6,0-1.2,0-1.9v-1c0.1-1.8,0.5-3.7,0.3-5.5
		c-0.2-2-0.2-3.9,0.2-5.8c0.2-0.8-0.1-1.8,0.4-2.8v1.5c-0.1,5.7,0.1,11.4-0.7,17.1c-0.1,0.5,0.3,1.4-0.8,1.3
		c-0.9,1.8,0.2,3.1-0.8,4.1c-0.2,0.2,0.2,1.1,0.3,1.7c-0.4,1.2-0.4,1.2,0.2,1.3c0.1,2.2,0.3,4.2,0.4,6.3c1.6-3.8,0.8-7.7,1.5-11.6
		c0.1,1.6,0.2,3.2,0.1,4.9c0,2.6-0.1,5.1-0.2,7.7c0,0.5-0.1,1-0.2,1.5c-0.3,1.4-0.4,2.8-0.9,4.1c-0.4,1-0.2,2.5-0.2,3.7v3.8
		c0.4,1.7-0.1,2.6,0.2,3.6c-0.3,1-0.4,1.3-0.3,1.6l0.3,1.5c2-0.2,1.1,1.3,1.9,2.1c-0.6,0.8-0.4,1.1-0.4,1.5c0,0.9-0.1,1.7-0.2,2.6
		c0,2.3-0.1,4.6-0.1,6.8c0,0.3,0.1,0.6,0.1,0.9c0,0.2-0.1,2.8-0.1,2.8c0.2,0.3,0,0.6-0.3,0.9c-0.1,0-0.4-12.7-0.4-12.7H83
		c-0.2,6,0.3,11.4-0.8,17c-1.2,0.1-1.6,0.3-2.9,0.3c-3.1,0-6.2,0-9.3,0.1c-3.7,0-7.3,0.1-11,0.1c-1.8,0-3.7,0.2-5.5,0.2
		c-2.4,0-4.9-0.3-7.3-0.3c-3.7,0-7.3,0.3-11,0.4c-2.7,0.1-5.4,0.1-8.1,0.2c-1.8,0.1-3.6,0.2-5.4,0.4c-0.8,0.1-1.5,0.4-2.5,0.7
		c-0.3,0-1-0.1-1.6,0c-1,0.2-1.9,0.8-2.9,1c-1.5,0.3-1.9,0.7-1.7,2.2v1c-0.1,0.2,2.2-0.3,2.2-0.3c-0.2,0-0.3,0.6-0.6,1.1
		c0.8-0.3,1.3-0.5,1.8-0.7c1.5,0.7,2.8,0.3,4,0.6c3.9,1,7.9,1.4,11.9,1.8c2.6,0.2,5.1,0.3,7.7,0.4c3.7,0.2,7.4,0.4,11.1,0.4
		c3.1,0,6.1-0.3,9.2-0.3c4.3,0,8.6,0.2,12.9,0.3c0.9,0,1.9-0.1,2.9-0.1h7.3c6.5-0.2,13-0.3,19.5-0.5c3.7-0.1,7.5-0.3,11.2-0.4
		l11.4-0.3c4.4-0.1,8.8-0.1,13.1-0.2c3.3,0,6.5-0.1,9.8-0.2c3.7-0.1,7.5-0.4,11.2-0.6c2-0.1,4-0.3,6-0.5c2.4-0.2,4.9-0.5,7.3-0.6
		c3.6-0.2,7.3-0.3,10.9-0.5c4.5-0.3,9-0.7,13.6-0.8c4.2-0.2,8.5-0.1,12.7-0.2c3.7-0.1,7.4-0.3,11.2-0.4l6.3-0.3c0,0,4.2-0.1,6.3-0.3
		c3.6-0.2,7.2-0.6,10.8-0.7c2.3-0.1,4.6,0,6.9-0.1c3.7-0.1,7.5-0.3,11.2-0.3c1.4,0,2.9,0.2,4.7,0.3c-0.8,0.7-1.3,1.1-1.9,1.6
		c0.4,0.1,0.8,0.3,1.2,0.5c-0.5,0.3-1,0.5-1.6,0.5c-0.2,0.5-0.4,0.7-0.6,1.7h1.8c-0.7,0-1.3,0.9-2,1.5c-0.8-0.2-1.5,0-1.9,1.1
		c0.7,0.4,0.6,0.7,0.5,1.1c-1.2,0.4-2.1,0.8-1.6,2.1c-0.4,0.2-0.9,0.4-1.4,0.7c-0.5,0.8-1.4,1-1.2,2.1c0.4,0.1,0.8,0.3,1.1,0.4
		c-0.5,0.2-1,0.5-1.5,0.7c-1.8,1.1-1,1.6-0.6,2.1c-0.3,0.2-0.6,0.4-0.9,0.5c0.2,0.9,0.5,1.1,0.6,1.1c-0.5,0.4-1,0.8-1.5,1.2
		c-0.3,0.9-0.7,1.3-1.1,1.9c-0.4,0.6-0.6,1.4-1.1,2c-2.1,2.3-3.6,5-6.3,6.8c-1,0.7-1.9,1.6-2.8,2.5c-1.8,1.7-3.4,3.6-5.3,5.2
		c-2.5,2.1-5.1,4-7.8,5.9c-3.3,2.3-6.6,4.6-9.9,6.8c-1.8,1.2-3.8,2.1-5.7,3.2s-3.7,2.1-5.6,3.2c-1.2,0.8-2.3,1.9-3.6,2.5
		c-3.3,1.4-6.8,2.6-10.2,3.9c-3.3,1.4-5.7,2.6-8.2,3.5c-2.3,0.8-4.7,1.4-7.1,1.9c-0.8,0.2-1.7,0-2.6,0.1c-1.7,0.3-3.4,0.7-5.1,0.9
		c-4.4,0.6-8.8,1-13.2,1.6c-2.6,0.3-5.1,0.8-7.7,1.1c-1.8,0.1-3.7-0.1-5.5-0.1c-1.3,0-2.7,0.3-4,0.1c-2.1-0.3-4.2-0.8-6.3-1.2
		c-0.5-0.1-1.2-0.3-1.6-0.1c-0.8,0.4-1.5-0.2-2.3,0c-0.5,0.1-1-0.3-1.5-0.3c-0.4-0.1-0.9,0.1-1.4,0c-1.1-0.3-2.1-0.7-3.3-0.6
		s-2.4-0.5-3.7-0.8c-1.8-0.4-3.5-0.8-5.3-1.2c-0.7-0.2-1.4-0.5-2-0.9c-2.6,0-4.3-0.1-5.9-0.7c-1.4-0.5-2.7-1.2-4.2-1
		c-0.4,0.1-0.7-0.1-1.1-0.1c-0.3-0.4-0.6-1.2-0.9-1.2c-2,0.1-3.2-1.6-4.9-2.1c-0.9-0.3-1.6-1.3-2.5-1.6c-2.2-0.9-4-2.8-6.5-3.1
		c-0.8-0.1-1.6-0.5-2.5-0.8c0.3,0.4,0.5,0.7,0.8,1c-2.9-1.4-5.6-3-8.3-4.5c-0.4-0.1-0.7-0.5-1-0.7l-2.7-1.8
		c-1.5,0.3-2.1-0.3-2.5-0.5c-2.7-1.9-5.8-3.1-8.4-5.2c-1.1-0.9-2.4-1.5-3.2-2.6c-1.4-1.7-3.1-2.9-5-3.9c-1.5-0.8-2.9-1.7-4.3-2.6
		c-0.7-0.5-1.4-1.1-1.4-2.2c0-0.7-0.3-1.4-1.2-1c-0.4-0.6-0.8-1.3-1.3-1.5c-1.2-0.5-2-1.4-2.9-2.2c-0.9-0.8-1.6-1.9-2.7-2.3
		c-2-0.8-3.2-2.5-4.4-3.9c-2.8-3.3-5.3-6.9-7.9-10.4c-0.2-0.3-0.6-0.5-0.9-0.8c0.4,1.1,0.9,2,1.4,3c-1-0.4-1.7-1.1-2.3-1.8
		c-0.1,0.1,6.9,11.6,6.9,11.6c0.6,0.9,1.1,1.8,1.7,2.7c-1.2,0.1-2.4-0.5-3-1.6c-0.9-1.6-1.9-2.6-3.9-2.4c-0.2-0.7-0.4-1.5-0.5-2.2
		c-0.4,0-0.7,0-1.4-0.1c1.4,2.2,2.6,4.1,3.9,6.3c-0.5-0.3-0.8-0.5-1-0.6c1.8,1.9,3.1,4.3,5.4,5.5c0.5,2.3,3.1,3.4,3.7,5.6
		c-0.5-0.1-0.9-0.2-1.4-0.3c-0.8-1-1.7-2-2.6-3.1c0.2,0.7,0.5,1.3,0.9,1.8c1.2,1.5,2.3,3,3.7,4.3c0.5,0.5,1.2,0.7,1.2,1.6
		c0.8,0.4,1.1,0.5,1.4,0.5c0.2,0.6-0.1,1.5,1.1,1.3c0.8,1.5,1.6,1.5,2.7,1c1.3,1.3,2,1.4,2.9,0.6c0,0.5,0.1,1,0.1,1.4
		c0.4-0.2,0.3-0.5,0.3-1c0.5,0.4,0.8,0.6,1,0.8c1,1.4,1.9,2.7,3.3,3.8c1.9,1.6,3.6,3.3,5.4,4.8c3.5,2.9,7.4,5.3,11.3,7.5
		c4.8,2.7,9.4,5.6,14.3,8.2c5.9,3.1,12.2,5.2,18.7,6.7c2.4,0.5,4.7,1,7.1,1.6c2.1,0.6,4.2,1.5,6.3,2c3.2,0.7,6.5,1.3,9.7,1.9
		c0.7,0.1,1.4,0.2,2.2,0.3c0.9,0.2,2-0.2,2.2,0.1c0.5,0.8,0.9,0.4,1.5,0.3c0.7-0.2,1.5-0.2,2.3-0.2c2.8,0.1,5.5,0.7,8.3,0.5
		c0.6,0,1.5-0.5,2,0.5c0.9-0.4,1.4-0.4,1.8-0.5c0.1,0.9,0,0.9-0.2,1s-0.5,0.2-0.9,0.5c3.6,0.7,7,0.8,10,0c5.2,0.4,9.7-0.2,14-1.7
		c0.4,0.5,0.7,1.2,1.3,0.2c0.2-0.3,0.7-0.4,1.1-0.5c0.9-0.2,2-0.6,2.8-0.3c0.9,0.3,1.2-0.5,1.9-0.5c1.2,0,2.3-0.1,3.4-0.3
		c0.6-0.1,1.2-0.4,1.9-0.6c-0.7-0.3-1.4-0.5-2.2-0.5c1.2-0.6,2.3-1.1,3.4-1.6c-0.2,0.3-0.4,0.7-0.8,0.7h1.4c-0.3,0-0.7,0.9-1.2,1.5
		c3.6-0.9,6.9-1.7,10.1-2.5c-1.1-2.1,1.2-1.4,2-2.6c-1,0.3-2,0.6-3,0.8c3.4-1.7,6.9-3.2,10.3-4.7c-0.5,0.6-1.1,0.9-2,1.4
		c0.6,0.1,1,0.1,1.3,0.2c1.6,0.5,1.2-1,1.7-1.9c1.9,0,2.7-0.3,3.6-0.6c1-0.3,2-0.6,3-1c1.6-0.7,3.1-1.6,4.7-2.4c0.3-0.1,0.8,0,1.2,0
		c1.1-0.7,1.5-1.3,1.8-1.2c1.4,0.2,2.4-0.3,2.8-1.6c0.7-0.5,1.2-0.9,1.7-1.2c2.2-1.2,4.3-2.4,6.5-3.6c0.8,0,1.2,0,1.4-0.1
		c1.3-0.6,2.5-1.3,3.7-2c-0.3-0.1-0.7-0.3-1-0.5c1-0.2,1.3-0.3,1.9-0.5c2.4-2.8,5.7-4.7,8.2-6.9c1.1-0.1,1.1-0.4,1.1-0.6
		c0.4-0.5,0.8-1.1,1.3-1.5c2.2-2,4.6-3.7,6.6-5.8c2.9-2.9,5.7-5.9,8.3-9c2.4-2.8,4.8-5.6,6.8-8.7c2.8-4.3,5.2-8.7,7.7-13.2
		c1.8-3.2,3.4-6.4,5.2-9.6c0.2-0.3,0.6-0.7,0.9-0.7c2.7-0.3,5.4-0.5,8-0.8c0.6-0.1,1.3-0.5,1.9-0.8c-0.3-0.5-0.5-1.1-0.8-1.6
		c-0.4-0.6-1-1.1-1.4-1.7c-0.4-0.5-0.7-1.1-1-1.7c-0.3-0.5-0.6-0.9-0.9-1.4c-0.6-1.1-1.2-2.2-1.7-3.4c-0.1-0.3-0.3-0.8-0.2-1.1
		c1.8-3.9,2.5-8.1,4.2-12c1.7-4,2.2-8.5,3-12.8c0.7-4.1,1.1-8.2,1.6-12.3c0.3-2.9,0.7-5.7,0.8-8.6c0.6-4.6,0.4-8.9,0.3-13.2
		C295.8,169.8,295.6,165.9,295.4,162.1L295.4,162.1z M44.7,285.3c-0.7-0.8-1.3-1.7-2-2.5l0.3-0.3c1.1,1.2,2.2,2.4,3.3,3.7
		C45.7,285.9,45,285.7,44.7,285.3z M46.3,286.2c0.3-0.1,0.6-0.1,0.9-0.2c0.3,0.5,0.5,1.1,0.8,1.7C46.6,287.6,45.9,287,46.3,286.2
		L46.3,286.2z M150.2,327.5v-0.3c1.9-0.2,3.7-0.4,5.6-0.6v0.3C153.9,327.2,152.1,327.4,150.2,327.5L150.2,327.5z M175.4,324.9
		c-1.4,0.3-2.9,0.5-4.3,0.7c-0.5,0.1-1.1,0.6-1.3-0.3c-0.2,0.1-0.4,0.1-0.6,0.2c0.5,1.5,1.7,0.3,2.7,0.9c-2.2,0.3-4.3,0.5-6.4,0.8
		V327c0.6-0.1,1.3-0.2,1.9-0.3v-0.3c-1-0.1-2-0.2-3-0.2c-0.3,0-0.7,0.4-1,0.5c-0.4,0.1-0.8,0.2-1.3,0.2c-1.7,0.1-3.4,0.1-5,0.2
		c-0.1,0-0.3-0.1-0.4-0.1v-0.3c6.7-0.9,13.3-1.8,20-2.7c0.1,0.2,0.1,0.4,0.2,0.6C176.3,324.6,175.9,324.8,175.4,324.9L175.4,324.9z
		 M176.9,323.9c2.3-0.3,4.4-0.5,6.6-0.8C178.9,324.4,177.4,324.6,176.9,323.9L176.9,323.9z M89.8,121.9c3.2-4.4,6.5-8.8,9.7-13.3
		c1-1.3,1.8-2.7,2.8-4c0.3-0.4,0.7-0.6,1.2-1l-0.1-0.2c0.4-0.5,0.8-0.9,1-1.3c0.5-0.8,0.8-1.7,1.2-2.6c0.1-0.2,0.4-0.4,0.4-0.4
		c1.4,0.7,1.4-0.8,1.9-1.3c0.9-1,1.8-2.1,2.6-3.1c0.6-0.8,1.2-1.5,1.7-2.4c0.1-0.3-0.2-0.8-0.3-1.2h-0.3c0.3-0.2,0.6-0.5,0.9-0.7
		c0.1,0,0.1,0,0.2-0.1c0.6-0.9,1.2-1.8,1.8-2.6c1.2-1.6,2.5-3.2,3.9-4.6c-0.2,0.5-0.4,1-0.6,1.4c0.1,0,0.1,0.1,0.2,0.1
		c1.2-1.6,2.5-3.1,3.7-4.7c-0.1-0.1-0.2-0.2-0.3-0.2c-0.5,0.5-0.9,1-1.4,1.5c-0.1-0.1-0.2-0.2-0.3-0.2c1-1.3,2-2.6,3-4.1
		c0.2,0.3,0.4,0.7,0.8,1.5c0.4-1,0.8-1.7,1.1-2.4c-0.3,0.3-0.7,0.6-1,0.9l-0.3-0.3l1.8-2.7c1.9-2.7,3.8-5.5,5.7-8.2
		c0.7-1,1.6-1.8,2.2-2.8c1.9-3.8,4.9-6.8,7.2-10.3c0.5-0.7,1.2-1.3,1.8-1.9c0.5-0.6,0.9-0.4,1.3,0.1c2.7,3.4,5.4,6.9,8.1,10.3
		c2,2.5,4,4.9,5.9,7.5c2.3,3.2,4.5,6.4,6.8,9.6c2.6,3.7,5.2,7.4,7.7,11.2c3.8,5.6,7.4,11.2,11.2,16.8c2.8,4.1,5.6,8.1,8.3,12.2h-5.1
		c-4.7-0.1-9.5-0.5-14.2-0.3c-6.4,0.3-12.9,1-19.3,1.5c-8.1,0.7-16.3,0.8-24.4,0.8c-2.9,0-5.8,0.4-8.7,0.6
		c-3.5,0.2-6.9,0.4-10.4,0.5c-4.1,0.2-8.1,0.3-12.2,0.4C94.7,122,92.3,121.9,89.8,121.9L89.8,121.9z M204.5,167.9v0.9
		c-0.1,0-0.2,0.1-0.4,0.1c-0.4-1.4-0.8-2.9-1.3-4.3c-1-2.9-2.1-5.8-3.9-8.4c-2-2.8-3.8-5.7-5.8-8.6c-0.5-0.7-1.2-1.3-1.8-1.9
		c-2.1-2.3-4.2-4.7-6.9-6.4c-4-2.5-8.2-4.6-12.5-6.4c-1.2-0.5-2.4-1.1-3.5-1.8h2.4l17.1-0.3c3.7-0.1,7.3-0.1,11-0.3
		c0.9,0,1.4,0.3,1.9,1.1c0.9,1.5,1.8,3,2.8,4.5c0.1,0.2,0.3,0.5,0.3,0.8c0,2.2,0,4.5,0.1,6.7c0.1,2.3,0.3,4.5,0.4,6.8
		c0,2.3-0.2,4.7-0.1,7.1C204.3,160.9,204.4,164.4,204.5,167.9L204.5,167.9z M96.9,134.4c4.7-0.2,9.2-0.5,13.8-0.7
		c3.6-0.2,7.3-0.3,10.9-0.5c1.5-0.1,2.9-0.2,4.4,0c-1.6,0.8-3.2,1.6-4.6,2.6c-1.8,1.2-3.5,2.8-5.3,4.1s-3.4,2.9-4.9,4.6
		c-1.9,2.3-4,4.3-6,6.5c-1.4,1.6-3,3.1-4.2,4.8c-1.7,2.2-3.2,4.6-4.8,7.1C96.7,153.4,97.3,144,96.9,134.4L96.9,134.4z M162.2,230.6
		c-3.2,0.8-6.5,1.7-9.8,2.1c-2.8,0.4-5.7,0.3-8.6,0.3c-2.6,0-5.1-0.1-7.7-0.3c-2.9-0.3-5.8-0.6-8.6-1.9c-2.4-1.1-4.9-2.1-7.3-3.3
		s-4.8-2.6-6.6-4.8c-1.3-1.6-3.1-2.9-4.7-4.3c0.3,1.2,1,2.2,2.1,2.9c-0.5,0.6-1.2,0.3-2.2-1.3c-0.3,0.2-0.6,0.3-0.8,0.4
		c0.3-0.7,0.6-1.4,0.9-2c-0.4-0.8-0.9-1.7-1.3-2.5c-0.8-1.3-1.6-2.7-2.3-4c-0.2-0.3-0.2-0.6-0.4-0.9c-0.5-0.6-1-1.2-1.4-1.8
		c-0.8-1.2-1.5-2.5-2.5-3.7c0,0.3,0.1,0.6,0.1,1c-0.1,0-0.2,0.1-0.2,0.1l-2.1-5.1c-0.1,0-0.1,0-0.2,0.1l1.8,6.6
		c-0.1,0-0.2,0.1-0.3,0.1c-0.3-0.4-0.6-0.8-0.8-1.3c-0.2-0.8-0.8-0.8-1.3-0.5c-0.3,0.2-0.5,0.9-0.4,1.2c0.7,1.7,1.5,3.4,2.3,5.1
		c0.2,0.6,0.4,1.1,0.7,1.7c0.1,0.2,0.4,0.4,0.4,0.7c0.4,0.8,0.7,1.6,1.2,2.3c0.9,1.2,1.9,2.4,2.8,3.6c0.9,1.2,1.7,2.5,2.5,3.7
		c0.1,0.2,0.4,0.2,0.5,0.3c0.5,1.5,2.2,2.6,3.4,2c0.3,2.3,2.8,3.1,3.8,5.3c-1-0.4-1.9-0.8-2.9-1.3c-0.1,0.1-0.1,0.2-0.2,0.4
		c1.2,0.6,2.4,1.2,3.5,1.9c1,0.6,2,1.2,2.9,1.9c1.2,1.1,2.6,1.7,4.3,2.1c-0.1-0.3-0.2-0.4-0.2-0.4c2.8,1.3,5.7,2.7,7.9,3.8
		c-10.4,0.2-21.5,0.4-33,0.6c0-1.9-0.1-3.7-0.1-5.6c0-0.8,0.2-1.5,0.1-2.3c-0.3-4.6-0.3-9.2-0.9-13.7c-0.6-4.8-0.6-9.5-0.5-14.3
		c0.1-2.6-0.1-5.3-0.2-7.9c0-3.5,0-6.9,0.1-10.4c0-0.5,0.2-0.9,0.4-1.4h0.3c0.1,0.2,0,0.5,0.2,0.6c0.3,0.3,0.8,0.8,1,0.7
		c0.6-0.4,1.5-0.8,1.7-1.4c0.5-1.2,0.7-2.5,0.7-3.7c0-0.9,0.4-1.5,0.8-2.1c0.2-0.3,0.3-0.6,0.5-1c-0.4-0.3-0.8-0.5-1.3-0.9
		c0.4-1.1,0.3-2.4,1.8-3c0.2-0.1,0.2-0.6,0.3-0.9c0.1-0.8,0.2-1.7,0.3-2.5c0.2,0.3,0.3,0.4,0.5,0.6c0.1-0.1,0.1-0.2,0.2-0.3
		c0-0.4-0.1-1.2,0-1.2c1.2-0.2,0.7-1.5,1.3-2.1c0.1-0.1-0.1-0.4-0.1-0.6c0-0.2,0-0.5,0.1-0.5c1.4-0.3,1.2-1.8,2.1-2.5
		c0.3-0.2,0.4-0.5,0.8-1c0.8,1.4-0.6,2.1-0.7,3.1c1.7-1,2.2-3.4,1.2-4.1c0.4-0.3,0.8-0.7,1.1-1.1c1.1-1.2,2.3-2.3,3.3-3.5
		c0.7-0.9,1.1-2,1.8-2.9c0.4-0.5,1.2-0.9,1.8-1.2c1.8-1,3.5-2.1,4.6-3.8c0.2-0.2,0.5-0.4,0.8-0.6s0.9-0.2,1-0.5
		c0.1-0.2-0.2-0.7-0.4-1c0.4-0.2,0.8-0.6,1.6-1c-0.3,0.6-0.4,1-0.6,1.4l0.5,0.5c0.9-0.7,2.3-1.5,3.2-2.1c0-0.1-0.5-0.5-0.5-0.5
		c-0.6,0.3-1.5,0.8-2.4,1.2c0.2-0.3,0.2-0.5,0.3-0.6c1.4-0.9,2.8-1.8,4.3-2.5c3.5-1.6,7-3.2,10.5-4.7c0.6-0.3,1.4-0.1,2.1-0.1
		c0.3,0,0.5,0,0.8-0.1c1.6-0.5,3.2-1,4.8-1.4c0.7-0.2,1.5-0.3,2.2-0.3c3,0.1,6,0.1,9,0.3c1.3,0.1,2.5,0.4,3.7,0.8
		c1.5,0.5,3,1.2,4.5,1.9c1.7,0.9,3.3,1.9,4.9,3c2.9,1.9,5.6,4,8.5,5.7c2.8,1.7,5,4,6.8,6.6c2.2,3.1,4.7,5.9,5.7,9.7l1.5,6.6
		c0.3,1.2,1,2.4,0.7,3.8c-0.5,2.5-0.9,5.1-1.3,7.6c-0.2,1-0.4,2-0.3,3c0.2,3.1-1,5.8-2.2,8.6c-0.4,0.9-1,1.8-1.5,2.8
		c0.2,0.2,0.5,0.3,0.8,0.4l0.9-1.8c0.1,0,0.1,0,0.2,0.1c-0.5,1.4-0.9,2.9-1.4,4.3c-1.2,3.1-2.4,6.3-3.9,9.3
		c-0.8,1.7-2.2,3.1-3.2,4.7c-1,1.4-1.8,2.9-2.8,4.2c-0.9,1.1-1.8,2.2-3,3c-2.7,2-5.5,4-8.4,5.6C166.3,229.6,164.2,230.2,162.2,230.6
		L162.2,230.6z M108.9,225.3l-0.1,0.1c-0.2-0.1-0.5-0.2-0.7-0.4l-2.4-3.6c-0.2-0.3-0.3-0.6-0.2-1
		C106.6,222.1,107.7,223.7,108.9,225.3L108.9,225.3z M171.1,239c4.5-1.9,8.2-4.6,11.6-7.7c0.5-0.5,1-1,1.6-1.4
		c4.2-2.6,7.3-6.2,10.1-10.2c3.2-4.6,5.3-9.8,7.9-14.7c0.2-0.4,0.4-0.7,0.6-1.1c-0.2,11.4,1.1,22.6,2.6,33.9
		C194.2,238.2,182.7,238.6,171.1,239L171.1,239z M272.4,236c-0.1,0.2-0.3,0.4-0.4,0.6c-0.1-0.2-0.1-0.5-0.2-0.9
		c-0.6,1.6-1.9,0.8-2.8,0.8c-5.4,0.1-10.9,0.1-16.3,0.1c-5.2,0-10.5,0-15.7,0.1c-1.7,0-3.5,0.4-5.2,0.5c-4.1,0.2-8.2,0.3-12.3,0.4
		c-0.3,0-0.6-0.5-1.1-0.9c-0.2,0.3-0.4,0.6-0.6,0.9c-0.1-0.2-0.3-0.4-0.5-0.7c-0.1,0.3-0.2,0.6-0.3,0.8h-0.3
		c-0.2-1.4-0.6-2.7-0.6-4.1c0-3,0.3-6,0.4-9c0.1-1.4,0-2.7,0-4c0.4,0.3,0.7,0.5,1.1,0.8c0.2-0.4,0.4-0.7,0.6-1c0,0-0.2-0.1-0.4-0.3
		c0.2-0.1,0.4-0.3,0.4-0.4c0.1-0.3,0.3-0.6,0.3-0.8c0-0.7-0.2-1.3-0.3-1.9c0.1,0,0.2,0,0.3-0.1l0.6,3h0.3c-0.4-0.7,0.9-1.3-0.2-2.1
		c-0.1-0.1,0.1-0.7,0.1-1c-0.3-0.6-0.5-1.2-0.8-2c0.1-0.1,0.4-0.2,0.7-0.3c-0.4-0.2-0.7-0.4-1-0.5c1-0.9,1-1.4,0.1-2.4
		c0.2-0.1,0.4-0.1,0.4-0.2c0-0.9,0-1.8-0.2-2.7c-0.2-1,0.3-2.2-1.2-2.8c0.1,0.3,0.2,0.6,0.4,0.8c0,0-0.3,0.1-0.6,0.3
		c-1.3-1.2-0.5-2.8-0.8-4.6c0.7,0.2,1.2,0.4,1.7,0.6c-0.2-0.7-0.7-1.5-1-2.4h-0.4V194c0,0.1,0.7,0.1,1.1,0.2c0-0.1,0.1-0.2,0.1-0.3
		c-0.3-0.4-0.7-0.8-1.1-1.3l0.2-0.2c-0.8-1-0.4-2.4-0.4-2.7v-7c1,1-0.5,2.3,1,2.9v-1h-0.1c-0.1-1.5-0.1-3-0.2-4.5H217
		c-0.1,0.2-0.1,0.3-0.2,0.5h-0.2l0.6-23.9c1,1.3,2.1,2.5,2.8,3.8c2.3,4.2,5.3,7.8,8.1,11.6c2.4,3.3,4.6,6.9,6.8,10.3
		c2.7,4.1,5.3,8.2,8,12.3c2,3.1,4.1,6.2,6.2,9.2c1.9,2.7,3.9,5.3,5.9,7.9c1.7,2.3,3.5,4.6,5.2,6.9c2,2.8,4,5.6,6,8.3
		c1,1.4,2.1,2.8,3.2,4.2c0.6,0.8,1.5,1.4,2.1,1.9c-0.1,0-0.2,0-0.4-0.1c0.3,0.4,0.5,0.7,0.7,0.9C272.9,234.6,273,235.2,272.4,236
		L272.4,236z M277.5,211v-0.7C277.5,210.5,277.6,210.8,277.5,211L277.5,211z M280.9,166.9c-0.1,0-0.7-0.6-0.8-0.7
		c-0.1,0.3,0,0.6-0.2,1c-0.1-0.3-0.8-0.2-0.8-0.5c-0.1,1.4,0.6,2.8,0.5,4.2c0.3-0.2,1.5-0.3,1.8-0.6c0.1,0.1,0.3,0.2,0.4,0.2
		c-2,1.5-1.5,3-0.6,4.7c0.2,0.4,0.8,1.2,0.2,2c-0.2,0.2,0.1,0.8,0.2,1.3h0.3v0.2L281,179c-0.2-0.3-1.4-0.9-1.4-1.4v5.1
		c1,0.3,1,1.7,1.4,2.4c0.2-0.2,0.3-0.5,0.4-0.8l0.1,0.1c-0.1,0.6-0.2,1.2-0.4,1.8c-0.2,0.9-0.4,1.7-0.5,2.6c0,0.1,0.2,0.3,0.2,0.4
		c-1.1,2.5-0.5,5.3-0.9,7.9c-0.3,1.9,0,3.9-0.2,5.9c-0.2,1.7-0.6,3.5-1,5.2c-0.1,0.3-0.3,0.4-0.8,0.6c0.2-1.2,0.1-2-0.1-3.1
		c-0.1,0-1.4-0.7-1.5-0.7c0,1.4,0.8,3.3,1.1,4.9c-0.3-0.1-1.5-0.8-1.6-0.8c-0.2,1.2-0.2,2.8-0.3,4.1c-0.1,1-1,1.9-1.1,3
		c0,0.6,0.7,1,0.6,2h0.8c0-2,0.9-3.8,0.9-5.9h0.3c0.1,0.2,0.4,0.4,0.3,0.5c-0.2,1.1-0.6,2.3-0.5,3.4c0,0.6,0.5,1.2,0.3,1.9
		c-0.2,0.6-0.3,1.2-0.4,2.1c-0.1-0.5-0.2-0.7-0.2-1c-0.1,0-1-0.1-1.1-0.1c-0.1,0.6,0.7,1.2,0.6,1.7c-0.1,0.1-0.2,0.1-0.4,0.2
		l-3.3-4.8c-2.6-3.8-5.2-7.6-7.8-11.5c-0.7-1-1.3-2-1.8-3c-3.1-5.3-6.5-10.4-10.3-15.3c-2.9-3.7-5.2-7.7-7.9-11.6
		c-2.5-3.7-5-7.3-7.5-11c-0.9-1.2-2-2.3-2.8-3.6c-2.6-4.1-4.9-8.3-7.5-12.4c-2.2-3.4-4.6-6.7-6.9-10c-0.8-1.1-1.6-2.3-2.4-3.5
		c-0.1-0.2-0.2-0.4-0.2-0.7c-0.2-2.2-0.4-4.4-0.5-6.5c0-2,0.2-4,0.2-6.1v-1.8c0-0.5,0.1-0.9,0.1-1.4c0.1-0.1,0.2-0.3,0.3-0.4
		c-2.9,0-5.9-0.1-8.8,0c-1.9,0.1-2.9-0.7-4.2-2.1c-3.8-4.3-6.6-9.2-9.9-13.8c-3.1-4.4-6.3-8.7-9.5-13c-2.6-3.5-5.2-6.9-7.8-10.4
		c-2.9-4-5.7-8-8.7-12c-3.6-4.8-7.3-9.6-11-14.4c-1.7-2.2-3.6-4.3-5.5-6.6c1.3,0.2,2.5,0.4,3.7,0.5l4.8,0.3c3.6,0.3,7.2,0.5,10.8,1
		c3,0.4,6,1,9.1,1.5c6.6,1.1,13.1,2.9,19.4,5c3.7,1.2,7.3,2.8,10.9,4.3c8.1,3.3,15.8,7.3,23.4,11.5c2.4,1.3,3.8,3.4,5.6,5.3
		c2.6,2.7,5.2,5.4,7.7,8.2c2.9,3.3,5.6,6.7,8.4,10.1c2.5,3,5.1,6,7.6,9c0.8,0.9,1.4,2,2.1,3c1.6,2.4,3.4,4.7,4.8,7.3
		c1,1.9,1.6,4.1,2.3,6.2c1,3.1,2,6.1,3,9.2c0.7,2.3,1.3,4.7,1.8,7.1c0.4,1.6,0.3,3.3,0.8,4.9c0.6,2.1,0,4.4,0.6,6.5
		c0.1,0.2,0.2,0.5,0.3,0.7c0.4,0.4,0.7,0.8,0.1,1.4c-0.1,0.1-0.1,0.5,0,0.8c0.2-0.2,0.3-0.4,0.5-0.7c0,0.2,0.1,0.3,0.1,0.4
		c0,0.4-0.1,0.8,0,1.2c0,0.2,0.2,0.5,0.3,0.7c0.2-0.2,0.4-0.3,0.8-0.6c0.9,3.4,1,6.8,1,10.3c0,3.3,0.6,6.6-0.8,9.8
		C281.3,168.9,280.6,167.9,280.9,166.9L280.9,166.9z"/>
	<path class="st0" d="M217.1,205.8c0.1,0,0.2,0.1,0.2,0.1L217.1,205.8C217.2,205.7,217.2,205.7,217.1,205.8L217.1,205.8z
		 M232.8,304.7c-1.1,0.8-2.2,1.5-3.6,1.8c-0.1-0.1-0.1-0.2-0.2-0.3c1.1-0.7,2.3-1.4,3.4-2.1C232.5,304.3,232.7,304.5,232.8,304.7
		L232.8,304.7z M45.5,169.1c1.1-1.4,2.2-2.8,3.4-4.2c0.1,0.1,0.9,0.3,1,0.4c-1.1,1.4-2.6,3.3-3.7,4.8
		C46,169.9,45.7,169.2,45.5,169.1L45.5,169.1z M17.1,218.1c-0.8-1.7-1.6-3.5-2.4-5.2c0.3-0.2,0.6-0.3,0.9-0.4
		c1.1,1.6,1.6,3.5,2.4,5.2C18,217.7,17.2,218.1,17.1,218.1L17.1,218.1z M42.6,170.1c-0.6,0.9-1.2,1.9-1.8,2.8
		c-0.1-0.1-1.2,0.4-1.3,0.3c0.6-0.9,2.1-2.5,2.7-3.4C42.3,169.9,42.4,170,42.6,170.1L42.6,170.1z M222.2,308.8
		c0.1,0,0.1-0.1,0.2-0.1c0.7,0.1,1.5,0.2,2.3,0.2C223.3,309.8,222.5,309.7,222.2,308.8L222.2,308.8z M42.8,174.3
		c0.1-0.3,0.3-0.6,0.5-0.9c0.2,0,0.5-0.1,0.5-0.1c0.4-0.7,0.4-1.2,0.8-1.8c-0.1-0.1-0.2-0.1-0.3-0.2c-0.6,0.4-1.2,0.9-1.8,1.3
		c0.2,0.2,0.2,0.3,0.2,0.5c-0.8-0.1-1.1,0.3-1.5,1.4c-0.1,0.3-0.6,0.4-1.1,0.8c-0.1,0.2-0.2,0.7-0.4,1.2l0.1,0.1
		c-0.2,0.2-0.5,0.3-0.5,0.3c-0.6,0.6-1.3,1.1-1.9,1.7c-0.1,0.3-0.2,0.6-0.2,0.9c0.7-0.7,1.9-2,2.8-2.8l0.1,0.1
		c0.4-0.6,0.7-1.2,1.1-1.8c0.1,0.1,0.1,0.2,0.2,0.3c-0.3,0.8-0.6,1.7-0.9,2.5c-0.2,0.1-0.5,0.3-0.5,0.2c-0.4,0.3-0.7,0.7-1.1,1
		l-1.8,1.2c-1,0.9-2,1.7-3.1,2.6c-0.7,1.1-1.4,2.1-2.2,3.4c1.2-0.3,1.5,0.2,1.4,1.2c1.4,0.2,1.5-0.9,1.9-1.7
		c0.1-0.2,0.2-0.6,0.4-0.7c0.9-0.8,1.9-1.5,2.9-2.3c0.2-0.2,0.2-0.6,0.2-0.9c0-0.1-0.5-0.1-0.8-0.2c0.9-1,2.2-2.7,3.1-3.8
		c0.5-0.3,1-0.7,1-1c-0.1-1.1,0.6-1.4,1.4-1.8C42.9,174.7,42.8,174.4,42.8,174.3L42.8,174.3z"/>
	<path class="st0" d="M44.8,173.2c-0.4,0.7-0.8,1.3-1.2,2l-0.6-0.3c-0.4,2.3-1.8,4.3-3.2,4.7c0.4,0.2,0.8,0.4,1.1,0.3
		c0.3-0.1,0.5-0.6,0.7-0.9l2.7-3.9l0.9-1.5L44.8,173.2L44.8,173.2z M11.5,217.1c0.5,0,1,0.1,1.6,0.1c0-0.4,0.5-0.3,0.5-0.7h0.3
		c0,0.5,0.1,0.9,0.1,1.4h-2.1C11.8,217.8,11.4,217.2,11.5,217.1L11.5,217.1z M10.7,212.5c-0.3-0.3-0.8-0.6-0.8-0.9
		c-0.1-0.4,0.2-0.9,0.5-1.4c0.2,0.7,0.3,1.3,0.5,2C10.8,212.3,10.7,212.4,10.7,212.5L10.7,212.5z M13.2,206.1c0.4,1,0.8,2.1,1.2,3.1
		c-0.3,0.1-0.6,0.2-0.8,0.4c-0.4-1-0.9-2.1-1.3-3.1C12.6,206.3,12.9,206.2,13.2,206.1L13.2,206.1z M235.6,301.8
		c0.5-0.2,1.1-0.3,1.9-0.5c-0.9,0.7-1.6,1.2-2.2,1.8c-0.1-0.1-0.2-0.2-0.3-0.2C235.2,302.5,235.4,302.2,235.6,301.8L235.6,301.8z
		 M112.8,90.3c0.6-0.4,1.1-0.7,1.7-1.1l0.2,0.2c-0.6,0.8-1.1,1.6-1.8,2.6c-0.1-0.7-0.1-1.1-0.2-1.6
		C112.6,90.4,112.7,90.4,112.8,90.3L112.8,90.3z M142.1,141c0.9-0.4,1.8-0.8,2.9-1.3c-0.1,0.6-0.1,1-0.1,1.4c-0.3-0.1-0.7-0.2-1-0.2
		c-0.6,0.1-1.7,0.9-2.2,1C141.6,141.9,142.1,141.1,142.1,141L142.1,141z M217.1,225.8c0.2,1,2.1,1.5,0.2,2.5
		c0.3,0.2,0.6,0.3,0.9,0.5c0,0.2-0.1,0.3-0.2,0.4c-0.2,0.1-0.6,0.3-0.8,0.2c-0.1,0-0.3-0.4-0.3-0.6C216.9,227.9,217,227,217.1,225.8
		L217.1,225.8z"/>
</g>
<g>
	<path class="st1" d="M429.1,170.4c0.5-0.3,0.7-0.9,0.7-1.6c0-0.2,0-0.2,0-0.3c0.3,0,0.7-0.2,1.4-0.2c0.3,0,0.9-0.2,1-0.5
		c1.2-1.2,2.1-2.6,2.4-4c0-0.3,0-0.5,0-0.9c1.2-0.3,2.1-0.9,2.6-1.4c0.9-0.7,1.4-1.9,1.9-3.6l1-3.5c0.2-0.3,0.2-0.7,0-1l-0.9-2.4
		l-0.2-1.6c0-0.5-0.3-1-0.7-1.2c-0.3-0.2-0.5-0.3-0.5-0.5c0,0,0,0,0-0.2c0.3-0.9,0.2-1.7-0.7-2.2l-2.4-1.4l-4.3-2.4
		c-0.2-0.2-0.5-0.2-0.7-0.2l-4.5-0.3c-0.2-0.2-0.5-0.3-1-0.9l-1.2-1.2c-0.2-0.2-0.5-0.3-0.9-0.5l-4-0.7c-0.2,0-0.2,0-0.3,0
		c-0.2,0-0.5,0-0.7,0.2l-0.9,0.5l-2.6-1c-0.2,0-0.3-0.2-0.7-0.2h-4.8l-0.5-0.5c-0.2-0.2-0.5-0.3-0.9-0.5l-0.5-0.2
		c-0.2,0-0.3,0-0.5,0l-2.4,0.2l-0.9,0.2l-2.6-0.2l-4.1-0.5h-0.2h-2.4c-1.7,0-2.9,0.2-3.8,0.3l-2.4,0.5l-12.4-0.7
		c-0.2,0-0.3,0-0.7,0.2l-3.3,1.4l-5,1.9l-1,0.3c-0.7,0.2-1,0.9-1.2,1.6l-0.2,2.4c0,0.9,0.7,1.7,1.6,1.7h0.7l0.5,0.5
		c0.2,0.2,0.3,0.3,0.5,0.3l1.2,0.3c0,2.1,0,3.1,0,4c0,0.9,0.2,1.9,0.3,3.3c0.2,0.9,0.9,1.4,1.7,1.4v0.9l-0.2,0.2
		c-0.5,0.3-0.9,1-0.9,1.7l0.2,0.9l-0.2,4.1v0.2c0,0.2,0,0.5,0.2,0.7l0.7,1.7l-0.3,1.4c0,0.2,0,0.3,0,0.3L369,170l-0.2,1.6
		c0,0.2,0,0.2,0,0.3l0.3,7.1c0,0.3,0.2,0.7,0.3,0.9l0.5,0.7v0.9c0,0.2,0,0.2,0,0.3v0.5l-0.7,1.4c0,0.2,0,0.2-0.2,0.3l-0.2,1.2
		c0,0.2,0,0.3,0,0.5l0.2,1.4c0,0.7,0.3,1,0.9,1.4v0.2l-1,3.6c0,0.2,0,0.3,0,0.7l0.2,2.1l-1,6.2c0,0.2,0,0.3,0,0.7l0.9,4.5l-1.4,9.8
		c0,0.2,0,0.2,0,0.3l0.3,3.1l-1,1.9c-0.2,0.3-0.3,0.9-0.3,1.7c0,2.1,1.2,3.5,3.1,3.5c0.5,0,0.9-0.2,1.4-0.5l2.6-1.4l1.2-0.2
		c0.3,0,0.7-0.2,1-0.5l1.7-1.6l1.7-0.5c1.6-0.5,2.4-1.9,2.4-3.8l-0.2-3.1l-0.5-8.1c0-0.2,0-0.3-0.2-0.5l-1.2-2.6h0.2
		c0.9,0,1.6-0.9,1.6-1.7v-1.2v-0.2l-0.9-5.9l0.3-0.9c0.2-0.2,0.2-0.5,0.2-0.9l-0.5-7.1l0.5-0.2l5.4-2.2c1-0.3,2.1-0.7,2.9-0.7
		l1.6,0.2h0.2c0.2,0,0.3,0,0.7-0.2l0.9-0.3l1.6,0.2c0.3,0,0.5,0,0.9-0.2l1.4-0.7l2.6,0.2h0.2c0.2,0,0.3,0,0.5-0.2l3.3-1l5.5-1.4
		l2.2-0.9l0.3,0.2c0.2,0,0.3,0,0.5,0c0.3,0,0.5,0,0.9-0.2l2.2-1.2c2.1-1.2,2.8-1.6,2.9-1.6l3.8-0.9c0.2,0,0.5-0.2,0.7-0.3l1.2-0.9
		l3.1-1.4c0.2,0,0.3-0.2,0.3-0.2L429.1,170.4z M419.8,164.8c-0.3,0.2-0.7,0.7-0.9,1l-0.2,0.3l-1.9,1.4c-0.2,0.2-0.3,0.2-0.3,0.3
		l-1.4,1.9c0,0-0.3,0.3-2.4,1l-4.3,1.4l-4.8,1.6l-8.6,0.9c-0.2,0-0.2,0-0.3,0l-4.5,1.2l-0.7,0.2l-0.3-0.5c-0.3-0.5-0.9-0.7-1.4-0.7
		c-0.2,0-0.2,0-0.3,0l-1.4,0.2h-4.7v-0.2l0.2-1c0-0.2,0-0.3,0-0.5l-0.7-7.4v-3.3c0-0.2,0-0.3,0-0.5L380,160l0.7-2.4
		c0.2-0.5,0.3-1,0.3-1.6c0-0.9-0.3-1.7-0.9-2.4c0-0.2-0.2-0.2-0.2-0.3c0.2-0.2,0.2-0.3,0.2-0.7l0.2-1.4l0.2-4.8
		c0-0.7,0.2-1.2,0.5-1.6c0.3-0.3,0.9-0.7,1.6-0.7l7.9,0.2c0.2,0,0.3,0,0.5-0.2l3.1-1l4.8,0.9c0.2,0,0.2,0,0.3,0h6
		c3.3,0,7.8,1.2,13.3,3.3c0.2,0,0.3,0.2,0.7,0.2c0.3,0,0.7-0.2,0.9-0.3c0.2,0.2,0.3,0.5,0.9,1l0.2,0.2l4.1,4.3l0.9,1.4
		c0,0.2,0,0.2,0.2,0.3l0.7,1.4l-0.5,1.6l-0.7,2.2l-4,3.8c-0.2,0.2-0.2,0.2-0.2,0.3l-0.3,0.7L419.8,164.8z"/>
	<path class="st1" d="M499.9,188.5c-0.5-4.1-1-6.9-1.4-8.5c-0.5-1.7-1.4-3.5-2.8-5c-0.3-0.3-0.9-0.7-1.4-0.7c-1.4,0-2.2-0.3-2.2-0.3
		l-2.4-3.6c-0.2-0.2-0.3-0.3-0.5-0.5l-2.2-1.4l-1.6-1.4c-0.2-0.2-0.3-0.2-0.5-0.3l-4.1-1.4h-0.2L479,165c-0.2,0-0.3,0-0.3,0
		c-0.5,0-1.2,0.3-1.4,0.9c-0.2,0.3-0.3,0.5-0.5,0.7c-0.3-1.4-1.7-2.8-5.5-2.8l-4.7,0.2l-5.9,0.5c-0.2,0-0.3,0-0.3,0.2l-7.1,2.4
		l-4,1.6c-0.2,0-0.3,0.2-0.5,0.3l-3.5,2.2l-5.7,2.9c-1,0.5-1.9,1.2-2.6,2.4l-1.2,2.1l-2.2,1.4c-0.9,0.5-1.9,1.7-4.3,7.1
		c-1,2.4-1.9,4.5-2.2,6.4c-0.5,1.9-0.7,3.8-0.7,5.7v2.6c0,0.5,0.3,1.2,0.9,1.4l0.9,0.5c-0.3,0.3-0.3,0.9-0.5,1.2l0,0
		c-0.7,0.5-0.9,1.2-0.5,1.9l0.5,1.6l1.6,4c0.2,0.3,0.3,0.5,0.5,0.7l1.7,1.4l1.2,2.4c0,0,0,0.2,0.2,0.2c0.2,0.3,0.5,0.7,1,1
		c0.3,0.2,0.9,0.7,1.9,1.6l3.6,2.8l0.2,0.2l1.7,0.9c0.2,0.2,0.3,0.2,0.5,0.2l2.9,0.3l0.9,1c0.3,0.3,0.7,0.5,1.2,0.5l2.2,0.2l5.5,1
		c0.2,0,0.2,0,0.3,0s0.3,0,0.3,0l1.7-0.5l5.5,0.2c0.2,0,0.3,0,0.3,0l4.7-1.2l6.4-0.2c0.2,0,0.5,0,0.7-0.2l11.7-5.5l1.7-0.5
		c0.3-0.2,0.7-0.3,1-0.7c0.2-0.2,0.5-0.9,2.1-2.4c1.2-1.4,2.2-2.6,3.1-4c3.6-5.5,5.5-10.9,5.5-16.1l-0.2-1.2c0-0.5-0.3-1-0.9-1.2
		c-0.2,0-0.3-0.2-0.3-0.2l0.2-0.2c0.3-0.2,0.5-0.5,0.7-1c0.2,0,0.5-0.2,0.7-0.3c0.3-0.3,0.5-0.9,0.5-1.4L499.9,188.5z M486.6,200.1
		l0.9,2.6c0,0-0.2,0.2-0.3,0.3l-1.7,1.4c-0.2,0.2-0.3,0.3-0.3,0.5l-3.3,6.7l-1,1l-2.6,0.7c-0.3,0-0.5,0.2-0.7,0.5l-3.8,3.8l-2.8,0.7
		l-4.7,0.9l-4.1-0.5l-7.4-0.7l-7.3-4.5c-0.2,0-0.3-0.2-0.3-0.2l-1.2-0.3c-0.2,0-0.3,0-0.5,0c-0.3,0-0.5,0-0.9,0.2l0.2-1.2
		c0-0.3,0-0.7-0.2-1l-3.1-5.2l-1.4-4.5c0-0.2,0-0.2-0.2-0.2c-0.2-0.3-0.3-0.5-0.5-0.7c0.5-0.3,0.7-1,0.5-1.6l-0.2-1.4
		c0-0.3-0.2-0.5-0.3-0.9l-1-1.2c0.3-0.2,0.7-0.3,0.9-0.7c0.9-0.9,0.9-2.1,0.9-3.1l0,0l0.7-1.2c1.6-2.8,2.6-5.2,2.9-7.4l1-0.9
		l7.8-6.7l4.3-2.6c0.2,0.2,0.5,0.2,0.9,0.2c0.2,0,0.3,0,0.5-0.2l4-1.6l2.9-0.2l1.7-0.2c0.2,0,0.7,0.2,1.9,0.7
		c0.2,0.2,0.5,0.2,0.7,0.2c0.2,0,0.3,0,0.5-0.2c1.2-0.3,1.7-0.5,1.9-0.5c0,0,0,0,0.2,0c0.2,0.2,0.5,0.7,1,1.6
		c0.2,0.3,0.5,0.5,0.7,0.7l4.8,2.2l0.7,1.2c0,0,0,0.2,0.2,0.2l3.1,4c0.3,0.5,0.9,0.9,1.2,1c0.3,0.2,0.7,0.3,1,0.3l0,0l0.3,2.9
		c0,0.2,0,0.2,0,0.3l2.2,6.9l-1,6.7C486.5,199.6,486.5,199.9,486.6,200.1z"/>
	<path class="st1" d="M558.8,195.6c-0.9-2.4-1.7-4-3.1-5l-4.3-2.4l-2.9-1.9c-0.3-0.2-0.7-0.3-0.9-0.3c-0.2,0-0.2,0-0.3,0l-2.1,0.3
		l-4.7-1c-0.2,0-0.2,0-0.3,0l-10.5,0.7l-0.9-0.2h-0.2c-0.3,0-0.9,0.2-1.2,0.5l-1.2,1v-0.5c0-0.7-0.3-1.2-0.9-1.6l-1.4-0.7l-4.1-1.9
		c-0.3-0.2-0.3-0.9-0.3-1.2c0-1.4,1.2-3.3,3.5-5.2l4-2.2c0,0,0.2,0,0.2-0.2l0.3-0.3l1.2,0.3c0.2,0,0.3,0,0.3,0h0.2l2.4-0.3h3.6
		c0.5,0,0.9-0.2,1.2-0.5l0.3,0.7c0.2,0.5,0.7,0.7,1,0.9l2.4,0.7c0.2,0,0.2,0,0.3,0l3.1,0.2l1.7,0.2c0.2,0,0.5,0,0.7-0.2l1.9-0.9
		c1.9-0.9,3.6-1.9,4.8-2.9c1.7-1.4,2.4-2.4,2.4-3.6c0-0.7-0.2-1.9-1.9-2.9c-1-0.5-2.1-0.7-3.6-0.7c-0.5,0-1.7,0-5.4,0.7l-1.4-0.5
		c-4-1.4-4.8-1.4-5.4-1.4c-1.7,0-3.8,0.3-6.6,1.2c-2.4,0.9-5.2,2.1-7.9,3.5c-2.8,1.6-5.2,3.1-7.3,4.7c-2.8,2.1-4.8,4.3-6.4,6.9
		c-1.6,2.6-2.4,5-2.4,7.4c0,1.7,0.5,3.3,1.4,4.8c1,1.7,2.2,2.8,3.6,3.3l2.6,0.9l1.9,0.9c0.2,0.2,0.5,0.2,0.7,0.2s0.2,0,0.3,0
		l1.4-0.2l1,0.9c0.3,0.2,0.7,0.3,1,0.3h1.2l0.9,0.5c0.2,0.2,0.5,0.2,0.7,0.2c0.2,0,0.2,0,0.3,0l2.2-0.3c1.7-0.3,2.9-0.5,3.6-0.9
		c0.3-0.2,0.7-0.5,1.2-0.9l0.5,0.7c0.3,0.5,0.9,0.7,1.4,0.7h4.8l3.5,0.5l1.4,0.2h0.2c0.3,0,0.9-0.2,1-0.3l0.3,0.7
		c0,0.2,0.2,0.2,0.2,0.3l2.6,3.6c0.3,0.3,0.5,0.7,0.5,1.2c0,2.1-0.7,4.5-2.1,7.1c-1.6,3.1-2.9,4.3-3.8,5l-2.2,0.9c0,0-0.2,0-0.2,0.2
		l-2.4,0.7l-4.8,0.5c-0.2,0-0.2,0-0.3,0l-2.8,0.9l-1.2-0.2c-0.2,0-0.2,0-0.3,0h-1.9l-3.1-1.6c0,0-0.2,0-0.2-0.2l-1.6-0.5l-3.5-2.6
		c0,0-0.2,0-0.2-0.2l-1.7-1l-1-4.8c0-0.2-0.2-0.5-0.3-0.7l-1.4-1.9c-0.3-0.5-0.9-0.7-1.4-0.7c-0.2,0-0.5,0-0.7,0.2
		c-1.9,0.9-3.6,1.9-5,3.1c-1.9,1.6-2.8,2.8-2.8,4.1s0.5,2.9,1.6,4.5c0.9,1.6,2.2,2.8,3.8,3.8l2.9,1.7l2.4,1.6c0.7,0.5,1.9,1,4,1.4
		c5.9,1.2,6.2,1.2,6.6,1.2c0.2,0,0.3,0,0.3,0l5.2-1.2l3.3,0.7c0.2,0,0.2,0,0.3,0c0.2,0,0.3,0,0.5-0.2l4.5-1.6l2.6-0.3
		c0.2,0,0.3,0,0.5-0.2l5.5-2.8l1.4-0.2c0.5,0,1-0.3,1.2-0.7l1.2-1.7l2.8-2.9c0.2-0.2,0.3-0.3,0.3-0.5l1-2.9l0.2-0.2
		c0.2,0,0.3,0,0.3,0c1,0,2.6-0.5,3.6-2.6c0.7-1.4,1-3.1,1-5s-0.3-4.1-1.2-7.1L558.8,195.6z"/>
	<path class="st1" d="M612.9,167.8c0-0.2,0-0.3-0.2-0.7v-0.2c-0.2-0.7-0.9-1.2-1.7-1.2h-3.3c-0.2,0-0.3,0-0.5,0.2l-3.5,1.2l-4.5,0.5
		c-0.2,0-0.2,0-0.3,0l-2.4,0.7h-0.2c0,0-0.3,0.2-1.2,0.2s-1.4-0.2-1.6-0.2h-0.2l-6.4-1.4h-0.2l0.3-1.4c0.2-0.5,0-0.9-0.3-1.4
		c-0.5-0.7-0.9-1-1.4-1.4c-0.2,0-0.2-0.2-0.3-0.2v-0.5c0.9-0.9,1.4-2.2,1.6-2.9c1.2-2.8,1.7-6.9,1.7-13c0-2.2,0-7.4-3.5-7.4
		c-1.4,0-2.4,1-3.3,2.1c-1.9,0.3-3.5,1-4.7,1.7c-1.6,0.9-2.9,2.2-4.3,4.3c-0.3,0.3-0.3,0.9-0.3,1.4l0.3,1.9c0,0.2,0,0.2,0.2,0.3
		l1.4,3.3l0.3,13.1l-7.3,0.2c-0.7,0-1.4,0.3-1.7,0.7c-0.5,0.3-1,1-1.2,1.6v0.2l-0.2,0.9l-1.9,1.7c-0.5,0.3-1.2,1.2-1.2,2.8
		c0,0.5,0.2,1.4,1,2.2c0.3,0.3,0.7,0.3,1,0.3c0.2,0,0.3,0,0.5-0.2c2.4-0.9,5-1.2,7.4-1.2c0.5,0,1.4,0,2.8,0.3c0,2.6-0.2,5-0.5,7.6
		c0,0.3,0,0.9,0.3,1.2l0.5,0.7c0.3,0.5,0.9,0.7,1.4,0.7c0,0,0,0,0.2,0l-1,1.2c-0.3,0.3-0.7,0.9-0.7,1.6v0.2l0.2,2.1l0.2,1.6l-0.2,6
		v1.4v0.2l0.2,2.2v0.2l0.3,1l-1.2,3.8c0,0.2,0,0.3,0,0.5v4l-0.2,3.5c0,0.2,0,0.3,0.2,0.7l0.7,2.1l0.3,1.7c0.2,1.2,1.2,2.4,3.5,4.3
		c2.1,1.4,3.8,2.1,5.4,2.1h0.2l1.2-0.2c0.7,0,1.2-0.5,1.4-1v-0.2l1.4,0.9c0.3,0.2,0.5,0.2,0.9,0.2s0.5,0,0.7-0.2l2.4-1.2l14.7-5.4
		c1.2-0.3,1.9-1.6,3.3-6.7l0.3-1.4c0.2-0.7-0.2-1.6-0.9-1.9c-1.2-0.7-2.2-1-3.1-1s-1.7,0.3-2.2,0.9l-6.2,5.7c-0.7,0.5-1.6,1-2.6,1.4
		c-1.2,0.3-2.2,0.5-3.5,0.5c-1,0-1.6-0.2-1.9-0.2c-0.2,0-0.5-0.2-1.2-0.5c0-1-0.2-1.4-0.2-1.7v-0.2l-1.4-2.8l0.3-0.9l-0.2-8.3
		c0-0.5-0.2-0.9-0.5-1.2c-0.2-0.2-0.3-0.3-0.5-0.5c0.2-0.2,0.3-0.3,0.3-0.7l0.7-1.9c0-0.2,0.2-0.5,0-0.7l-0.2-1.2l-0.2-6
		c0-0.9-0.5-1.4-1.4-1.6l-1.4-0.3l0,0c0,0,0.2-0.3,1.6-0.7c0.7-0.2,1.2-0.9,1.2-1.6l0.2-8.1c0-0.3-0.2-0.7-0.3-1l2.1,0.3
		c0.2,0,0.2,0,0.3,0l4.1-0.3c0.3,0.2,0.9,0.3,1.6,0.3c1.4,0.3,2.9,0.5,4.5,0.7l2.4,0.2h0.2c0.2,0,0.2,0,0.3,0l1.6-0.2
		c0.3,0,0.7-0.2,0.9-0.3l2.6-2.4l4.5-3.3c0.3-0.3,0.7-0.7,0.7-1.2l0.2-1l0.5-1.6C612.8,168.1,612.9,167.9,612.9,167.8z"/>
	<path class="st1" d="M703.6,210.1h-0.5c-0.3,0-0.7,0.2-0.9,0.3l-3.3,2.1l-4.7,1.7c-0.2,0-0.2,0-0.3,0.2l-2.4,1.4l-5.4,1.2
		c-0.2,0-0.2,0-0.3,0.2l-2.9,1.4l-7.1-0.2l-4.8,0.3h-1c-0.9,0-2.1-0.2-3.3-0.3l-9-1.9c-4-0.9-4.7-1.2-4.7-1.2l-1.9-1.7
		c-0.2-0.2-0.5-0.3-0.7-0.3l-1.9-0.5l-4.8-2.1h-0.2l-0.5-0.2c-0.5-0.9-1.2-1.7-2.1-2.4c-0.3-0.2-0.5-0.3-0.9-0.3h-0.5
		c-0.3-0.5-0.7-0.9-1.2-1.4c0,0-0.2-0.2-0.3-0.2l-0.9-0.5l-1.6-2.6c0-0.2-0.2-0.2-0.3-0.3l-0.9-0.9l-0.7-1.2l-2.4-3.6l-0.3-1.2
		c0-0.2-0.2-0.3-0.3-0.5l-0.7-0.9l-1.2-3.5c0-0.2-0.2-0.3-0.3-0.5l-1.9-2.2c0.2-0.2,0.3-0.3,0.3-0.5l0.3-0.9c0.2-0.5,0.2-1,0-1.4
		l-1.6-2.9l-0.3-1l0.2-1c0-0.2,0-0.2,0-0.3l0.2-7.6l0.7-2.2c0-0.2,0.2-0.3,0.2-0.5v-1.9c0-0.2,0-0.3-0.2-0.5
		c0.2-0.2,0.3-0.3,0.3-0.5c0.2-0.3,0.5-1,1-2.9l0.5-1.4c0-0.2,0.2-0.3,0.2-0.5c0,0,0,0,0.2-0.2l5.2-5.5c0.2-0.2,1-1,4.5-2.8
		c0.7-0.3,1-0.9,0.9-1.6v-1l0.5-0.3l0.5,0.2c0.2,0,0.3,0,0.3,0c0.3,0,0.5,0,0.9-0.2l4.1-2.4l2.2-0.7c0,0,0.2,0,0.2-0.2l2.6-1.4
		l1.6-0.2c0.2,0,0.3,0,0.5-0.2l4-1.7c1-0.3,2.1-0.5,3.3-0.5h0.7l3.1,0.2h0.2l5.5-0.3l4.5,0.9c0.2,0,0.2,0,0.3,0h0.2l3.1-0.5
		c0,0.2,0,0.5,0.2,0.7c0.2,0.7,0.9,1,1.4,1l1,0.2l4.7,2.2c0.3,0.2,0.9,0.3,1.6,0.3s1.2-0.2,1.9-0.5c0.2,0,0.3-0.2,0.5-0.3l0.7-0.7
		l2.1-1.2c0,0,0.2,0,0.2-0.2c1.7-1.2,2.1-2.8,2.1-3.6c0-1.4-0.5-2.6-1.6-3.3c-0.9-0.7-2.1-1-3.6-1l-1,0.2l-2.2-1
		c-0.2-0.2-0.5-0.2-0.7-0.2l-2.9,0.2l-1.9-0.7c-0.2,0-0.3-0.2-0.5-0.2l-1.4-0.2h-0.2l-4,0.2l-11.1,1.2h-4.3c-0.7,0-1.9,0.3-5.5,1.6
		l-6.2,2.2c-0.2,0-0.2,0-0.3,0.2l-2.4,1.4l-2.9,1.4l-4.7,1.7c-2.1,0.7-3.8,1.9-5,3.1c0,0,0,0.2-0.2,0.2l-2.1,2.9l-2.6,0.9
		c-0.2,0-0.5,0.2-0.7,0.3l-1.2,1l-1.4,0.9c-0.2,0.2-0.5,0.3-0.5,0.7l-0.9,1.7l-1.9,1.2c-0.3,0.2-0.5,0.3-0.5,0.7l-4,8.3
		c-0.5,0.9-0.9,1.7-0.9,2.6c0,0.5,0.2,1,0.5,1.9c-0.5,0-1,0.3-1.4,0.9c-1,1.7-1.6,3.5-1.6,5.5l0.2,3.8c0,0.2,0,0.2,0,0.3l0.7,3.1
		c-0.5,0.5-0.9,1.2-0.5,1.9l4.1,11.1c0.2,0.5,0.5,0.9,0.9,1c0,0.2,0,0.2,0.2,0.2c0.5,1,1,1.7,1.6,2.2c0.3,0.3,0.9,0.9,1.4,1.2v0.5
		c0,0.9,0.5,1.6,1.4,1.7l1.4,0.3c0.2,0,0.5,0,0.7,0.2c0,0.2-0.2,0.5-0.2,0.7l0.2,1.6c0,0.3,0.2,0.9,0.5,1l5,4.7l0.9,1.4
		c0.2,0.2,0.2,0.3,0.3,0.3l2.2,1.6l3.3,2.6c2.1,1.6,3.5,2.2,4.7,2.2c0.2,0.3,0.5,0.5,0.9,0.5l12.3,3.5c0.2,0,0.3,0,0.5,0
		c0.5,0,0.9-0.2,1.2-0.5c0.3-0.3,0.5-0.9,0.5-1.4c0.3-0.2,0.5-0.2,0.7-0.2c0.5,0,1,0.2,1.2,1.4c0.2,0.7,0.7,1.2,1.4,1.4l1.6,0.2
		c2.1,0.3,4.8,0.5,8.6,0.5c1.6,0,2.8-0.2,3.8-0.3l8.6-1.7l8.1-0.5c0.2,0,0.3,0,0.5-0.2l7.3-2.6l2.9-0.2c0.9,0,1.9-0.2,2.9-1.6
		c0.2-0.2,0.3-0.3,0.3-0.5l0.9-2.8l0.5-1c0.5-0.9,0.7-1.7,0.7-2.8C706.6,211.5,705.4,210.1,703.6,210.1z"/>
	<path class="st1" d="M792.4,187l-0.2-1.7c0-0.3-0.2-0.5-0.3-0.9l-1-1.2c-3.5-4.3-4.7-5-5.9-5c-0.2,0-0.3,0-0.3,0s-0.2,0-0.3,0
		l-2.8-2.4c-1.6-1.4-3.1-2.1-5-2.1l-2.4,0.2l-3.3-0.2c-0.3,0-0.7,0.2-0.9,0.3l-2.1,1.4c0-0.3-0.2-0.7-0.2-1.2
		c-0.2-0.7-0.7-1.2-1.4-1.4l-4.8-1c-0.3-0.2-0.9-0.2-1.4-0.2h-0.2l-2.2,0.3h-0.2c-0.3-0.3-0.7-0.5-1.2-0.7l-3.8-0.3h-0.2h-0.2
		l-3.6,0.3l-0.9-0.7c-0.2-0.2-0.3-0.2-0.5-0.3l-5-2.2l-2.2-1.9c-0.2-0.2-0.5-0.3-0.9-0.3l-1.6-0.3l0.3-0.2c0.9-0.3,1.2-1.4,0.9-2.2
		c-0.5-1-0.5-1.4-0.5-1.4c0-0.3,0-0.5,0.2-0.7c0.3-0.9,0-1.7-0.7-2.1l-0.2-0.2l1.7-1.2c0.2-0.2,0.3-0.3,0.5-0.5l2.6-4.7l1.2-1.4
		l2.8-2.1l4.3-2.1l5.9-3.1l3.1-0.2l2.8-0.2l5,1l1.4,0.2l2.9,2.2c0,0,0.2,0,0.2,0.2l1.4,0.7c0.3,0.2,0.5,0.2,0.9,0.2
		c0.2,0,0.3,0,0.5,0c2.6-0.7,4.3-1.4,5.5-2.2c0,0,0.2,0,0.2-0.2l1.4-1.2c0.2,0,0.5-0.2,1-0.3s0.9-0.5,1-1c0.2-0.3,0.2-0.9,0.2-1.4
		c0-2.6-3.5-3.5-4.5-3.8l-3.1-0.7l-1.7-0.7c-0.2,0-0.3-0.2-0.7-0.2l-2.8,0.2l-6.2-0.7h-0.2c-0.2,0-0.3,0-0.7,0.2l-1.7,0.7l-3.8,0.3
		l-1.7,0.2c-0.2,0-0.2,0-0.3,0l-1.6,0.5l-6.7,2.2c0,0-0.2,0-0.2,0.2l-5,2.6l-2.9,1.7c0,0-0.2,0-0.2,0.2l-6.9,5.2l-1.2,0.9
		c-0.3,0.3-0.7,0.9-0.7,1.4c0,1.2-0.2,1.9-0.7,2.2l-2.1,1.6c-0.3,0.2-0.5,0.5-0.5,0.7l-0.7,1.9l-0.7,1.4c0,0.2,0,0.2-0.2,0.3
		l-0.9,2.6c0,0.2,0,0.3,0,0.5v0.7v0.2l0.2,2.1l0.2,2.1c0,0.3,0.2,0.7,0.3,1l0.3,0.3c0,0.2,0,0.3,0,0.5c0.7,2.1,1.2,3.5,1.7,4.3
		c0.5,0.9,1.6,1.7,3.3,3.1c0.3,0.2,0.7,0.3,1,0.3c0.2,0,0.2,0,0.3,0s0.3-0.2,0.5-0.2l0.5,0.2v0.2c0,0.5,0.2,1.2,0.7,1.6
		c1,0.7,2.2,1.4,3.8,1.7c1.4,0.3,3.3,0.9,5.7,1.4l3.6,0.7l1.4,0.3c0.2,0,0.2,0,0.3,0c0.5,0,1-0.2,1.4-0.7l0.2-0.3l0.5,0.7
		c0.3,0.3,0.7,0.5,1.2,0.7l8.6,0.3c0.5,0,1.2-0.3,1.4-0.9l0.2-0.2l0,0l0.9,0.5l1,1.2c0.2,0.2,0.3,0.3,0.7,0.5l5.5,2.1l4.5,2.8
		c0.2,0.2,0.5,0.2,0.7,0.2h0.7l1.4,3.6l0.2,2.1c-0.2,0.2-0.3,0.3-0.5,0.7l-1.9,5.5l-0.9,0.9c-0.3,0.3-0.5,0.9-0.3,1.2l0.2,1.6v0.2
		l0.2,0.7c-0.2,0-0.3,0-0.7,0c-0.9,0-1.6,0.5-1.7,1.4c-0.3,1.4-0.5,2.1-0.7,2.4l-2.1,2.2l-0.2,0.2l-1.9,2.4c-0.3,0.5-1.2,1-2.4,1.4
		l-2.6,0.9l-1.7,0.3l-0.9-0.3c-0.2,0-0.3-0.2-0.5-0.2c-0.3,0-0.5,0-0.9,0.2l-2.1,1c0,0-7.4-0.5-7.6-0.5h-0.2l-0.9,0.2
		c-0.5,0-1,0.3-1.2,0.9c-0.3-0.2-0.7-0.3-1.2-0.7c-0.2-0.2-0.3-0.2-0.5-0.2l-8.5-1.7l-4.1-1.9h-0.2l-3.6-1l-0.7-1
		c-0.2-0.2-0.3-0.3-0.5-0.5l-1.2-0.9c-0.3-0.2-0.5-0.3-0.9-0.3c-0.2,0-0.2,0-0.3,0c-0.2-0.3-0.3-0.7-0.5-0.9c-0.3-0.3-0.9-0.7-1.6-1
		l-0.9-4c-0.2-0.9-0.9-1.4-1.7-1.4h-0.2c-1.9,0.3-3.6,1.2-5,2.9c-1,1-1.9,2.4-2.6,3.8c-0.9,1.6-1.2,2.8-1.2,4c0,1,0.7,2.1,3.1,3.6
		l3.5,2.1c0.2,0.2,0.3,0.2,0.7,0.2l2.9,0.3l4.5,3.3c0.2,0.2,0.5,0.3,0.7,0.3l3.6,0.5h0.2c0.5,0,1-0.2,1.4-0.5l3.1,1.7
		c0.2,0.2,0.5,0.2,0.7,0.2l7.4,0.5l1.9,0.5c0.2,0,0.3,0,0.3,0h5.7c0,0,2.9,0.2,3.1,0.2c1.6,0,3.1-0.3,4.3-0.9
		c0.7,0.2,0.9,0.2,1.2,0.2c0.9,0,1.9-0.3,3.3-0.9l5-1.6c0.2,0,0.3-0.2,0.3-0.2l9.8-6.4l1.4-0.7c0.2,0,0.3-0.2,0.3-0.3l2.6-2.4
		l2.4-2.6c0.2-0.2,0.2-0.2,0.2-0.3l1-1.9l3.3-4.5c0.5-0.9,0.9-2.1,0.9-4.3c0-1-0.3-1.9-0.9-2.6h1c0.7,0,1.4-0.5,1.6-1.2
		c0.5-1.6,0.7-2.9,0.7-4.1v-0.2L792.4,187z"/>
	<path class="st1" d="M877.3,193l-0.7-6l-0.2-1.7c0-0.3-0.2-0.5-0.3-0.9l-1-1.2c-3.5-4.3-4.7-5-5.9-5c-0.2,0-0.3,0-0.3,0
		s-0.2,0-0.3,0l-2.8-2.4c-1.6-1.4-3.1-2.1-5-2.1l-2.4,0.2l-3.3-0.2c-0.3,0-0.7,0.2-0.9,0.3l-2.1,1.4c0-0.3-0.2-0.7-0.2-1.2
		c-0.2-0.7-0.7-1.2-1.4-1.4l-4.8-1c-0.3-0.2-0.9-0.2-1.4-0.2h-0.2l-2.2,0.3h-0.2c-0.3-0.3-0.7-0.5-1.2-0.7l-3.8-0.3h-0.2h-0.2
		l-3.6,0.3l-0.9-0.7c-0.2-0.2-0.3-0.2-0.5-0.3l-5-2.2L824,166c-0.2-0.2-0.5-0.3-0.9-0.3l-1.6-0.3l0.3-0.2c0.9-0.3,1.2-1.4,0.9-2.2
		c-0.5-1-0.5-1.4-0.5-1.4c0-0.3,0-0.5,0.2-0.7c0.3-0.9,0-1.7-0.7-2.1l-0.2-0.2l1.7-1.2c0.2-0.2,0.3-0.3,0.5-0.5l2.6-4.7l1.2-1.4
		l2.8-2.1l4.3-2.1l5.9-3.1l3.1-0.2l2.8-0.2l5,1l1.4,0.2l2.9,2.2c0,0,0.2,0,0.2,0.2l1.4,0.7c0.3,0.2,0.5,0.2,0.9,0.2
		c0.2,0,0.3,0,0.5,0c2.6-0.7,4.3-1.4,5.5-2.2c0,0,0.2,0,0.2-0.2l1.4-1.2c0.2,0,0.5-0.2,1-0.3s0.9-0.5,1-1c0.2-0.3,0.2-0.9,0.2-1.4
		c0-2.6-3.5-3.5-4.5-3.8l-3.1-0.7l-1.7-0.7c-0.2,0-0.3-0.2-0.7-0.2l-2.8,0.2l-6.2-0.7h-0.2c-0.2,0-0.3,0-0.7,0.2l-1.7,0.7l-3.8,0.3
		l-1.7,0.2c-0.2,0-0.2,0-0.3,0l-1.6,0.5l-6.7,2.2c0,0-0.2,0-0.2,0.2l-5,2.6l-2.9,1.7c0,0-0.2,0-0.2,0.2l-6.9,5.2l-1.2,0.9
		c-0.3,0.3-0.7,0.9-0.7,1.4c0,1.2-0.2,1.9-0.7,2.2l-2.1,1.6c-0.3,0.2-0.5,0.5-0.5,0.7l-0.7,1.9l-0.7,1.4c0,0.2,0,0.2-0.2,0.3
		l-0.9,2.6c0,0.2,0,0.3,0,0.5v0.7v0.2l0.2,2.1l0.2,2.1c0,0.3,0.2,0.7,0.3,1l0.3,0.3c0,0.2,0,0.3,0,0.5c0.7,2.1,1.2,3.5,1.7,4.3
		c0.5,0.9,1.6,1.7,3.3,3.1c0.3,0.2,0.7,0.3,1,0.3c0.2,0,0.2,0,0.3,0s0.3-0.2,0.5-0.2l0.5,0.2v0.2c0,0.5,0.2,1.2,0.7,1.6
		c1,0.7,2.2,1.4,3.8,1.7c1.4,0.3,3.3,0.9,5.7,1.4l3.6,0.7l1.4,0.3c0.2,0,0.2,0,0.3,0c0.5,0,1-0.2,1.4-0.7l0.2-0.3l0.5,0.7
		c0.3,0.3,0.7,0.5,1.2,0.7l8.6,0.3c0.5,0,1.2-0.3,1.4-0.9l0.2-0.2l0,0l0.9,0.5l1,1.2c0.2,0.2,0.3,0.3,0.7,0.5l5.5,2.1l4.5,2.8
		c0.2,0.2,0.5,0.2,0.7,0.2h0.7l1.4,3.6l0.2,2.1c-0.2,0.2-0.3,0.3-0.5,0.7l-1.9,5.5l-0.9,0.9c-0.3,0.3-0.5,0.9-0.3,1.2l0.2,1.6v0.2
		l0.2,0.7c-0.2,0-0.3,0-0.7,0c-0.9,0-1.6,0.5-1.7,1.4c-0.3,1.4-0.5,2.1-0.7,2.4l-2.1,2.2l-0.2,0.2l-1.9,2.4c-0.3,0.5-1.2,1-2.4,1.4
		l-2.6,0.9l-1.7,0.3l-0.9-0.3c-0.2,0-0.3-0.2-0.5-0.2c-0.3,0-0.5,0-0.9,0.2l-2.1,1c0,0-7.4-0.5-7.6-0.5h-0.2l-0.9,0.2
		c-0.5,0-1,0.3-1.2,0.9c-0.3-0.2-0.7-0.3-1.2-0.7c-0.2-0.2-0.3-0.2-0.5-0.2l-8.5-1.7l-4.1-1.9h-0.2l-3.6-1l-0.7-1
		c-0.2-0.2-0.3-0.3-0.5-0.5l-1.2-0.9c-0.3-0.2-0.5-0.3-0.9-0.3c-0.2,0-0.2,0-0.3,0c-0.2-0.3-0.3-0.7-0.5-0.9c-0.3-0.3-0.9-0.7-1.6-1
		l-0.9-4c-0.2-0.9-0.9-1.4-1.7-1.4h-0.2c-1.9,0.3-3.6,1.2-5,2.9c-1,1-1.9,2.4-2.6,3.8c-0.9,1.6-1.2,2.8-1.2,4c0,1,0.7,2.1,3.1,3.6
		l3.5,2.1c0.2,0.2,0.3,0.2,0.7,0.2l2.9,0.3l4.5,3.3c0.2,0.2,0.5,0.3,0.7,0.3l3.6,0.5h0.2c0.5,0,1-0.2,1.4-0.5l3.1,1.7
		c0.2,0.2,0.5,0.2,0.7,0.2l7.4,0.5l1.9,0.5c0.2,0,0.3,0,0.3,0h5.7c0,0,2.9,0.2,3.1,0.2c1.6,0,3.1-0.3,4.3-0.9
		c0.7,0.2,0.9,0.2,1.2,0.2c0.9,0,1.9-0.3,3.3-0.9l5-1.6c0.2,0,0.3-0.2,0.3-0.2l9.8-6.4l1.4-0.7c0.2,0,0.3-0.2,0.3-0.3l2.6-2.4
		l2.4-2.6c0.2-0.2,0.2-0.2,0.2-0.3l1-1.9l3.3-4.5c0.5-0.9,0.9-2.1,0.9-4.3c0-1-0.3-1.9-0.9-2.6h1c0.7,0,1.4-0.5,1.6-1.2
		c0.5-1.6,0.7-2.9,0.7-4.1C877.3,193,877.3,193,877.3,193z"/>
</g>
</svg>
