<svg xmlns="http://www.w3.org/2000/svg" viewBox="0 0 93.74 132.31"><defs><style>.cls-1{fill:#264de3;}.cls-2{fill:#2965f0;}.cls-3{fill:#eaeaea;}.cls-4{fill:#fff;}</style></defs><title>icon_css</title><g id="レイヤー_2" data-name="レイヤー 2"><g id="レイヤー_1-2" data-name="レイヤー 1"><polygon id="polygon2989" class="cls-1" points="46.81 132.31 8.53 121.69 0 26 93.74 26 85.2 121.67 46.81 132.31"/><polygon id="polygon2991" class="cls-2" points="77.89 115.58 85.19 33.83 46.87 33.83 46.87 124.18 77.89 115.58"/><polygon id="polygon2993" class="cls-3" points="19.56 69.31 20.61 81.05 46.87 81.05 46.87 69.31 19.56 69.31"/><polygon id="polygon2995" class="cls-3" points="17.44 45.56 18.51 57.3 46.87 57.3 46.87 45.56 46.83 45.56 17.44 45.56"/><polygon id="polygon2997" class="cls-3" points="46.87 99.79 46.82 99.81 33.75 96.28 32.91 86.92 26.56 86.92 21.13 86.92 22.78 105.34 46.82 112.02 46.87 112 46.87 99.79"/><path id="path2999" d="M22.06,0H36.27V5.94H28v6h8.27v5.94H22.06Z"/><path id="path3001" d="M39.12,0H53.33V5.17H45.06v1h8.27V18.09H39.12V12.66h8.27v-1H39.12Z"/><path id="path3003" d="M56.17,0H70.39V5.17H62.12v1h8.27V18.09H56.17V12.66h8.27v-1H56.17Z"/><polygon id="polygon3005" class="cls-4" points="74.11 69.31 76.23 45.56 46.83 45.56 46.83 57.3 63.37 57.3 62.3 69.31 46.83 69.31 46.83 81.05 61.28 81.05 59.92 96.27 46.83 99.8 46.83 112.01 70.89 105.34 71.06 103.36 73.82 72.47 74.11 69.31"/></g></g></svg>