<?xml version="1.0" encoding="utf-8"?>
<!-- Generator: Adobe Illustrator 23.0.1, SVG Export Plug-In . SVG Version: 6.00 Build 0)  -->
<svg version="1.1" id="レイヤー_1" xmlns="http://www.w3.org/2000/svg" xmlns:xlink="http://www.w3.org/1999/xlink" x="0px"
	 y="0px" viewBox="0 0 112.7 29.8" style="enable-background:new 0 0 112.7 29.8;" xml:space="preserve">
<style type="text/css">
	.st0{fill:#FFFFFF;}
	.st1{fill:#663399;}
</style>
<g>
	<g>
		<path d="M66.8,12.8h3v10.6h-3V22c-1.1,1.6-2.4,1.7-3.3,1.7c-3.3,0-5.4-2.5-5.4-5.6c0-3.2,2.1-5.6,5.2-5.6c0.8,0,2.4,0.1,3.4,1.7
			L66.8,12.8C66.7,12.8,66.8,12.8,66.8,12.8z M61.3,18.1c0,1.7,1.2,3,3,3c1.7,0,3-1.3,3-3s-1.2-3-3-3C62.6,15.1,61.3,16.4,61.3,18.1
			z"/>
		<path d="M75.6,15.3v8.1h-3v-8.1h-1.2v-2.5h1.2V9.2h3v3.6h2v2.5H75.6z"/>
		<path d="M84.7,15.3c-0.7-0.6-1.4-0.7-1.7-0.7c-0.7,0-1.2,0.3-1.2,0.8c0,0.3,0.1,0.6,1,1l0.7,0.2c0.8,0.3,2.1,0.6,2.7,1.5
			c0.3,0.4,0.5,1.1,0.5,1.8c0,1-0.3,1.9-1.2,2.7c-0.8,0.7-1.9,1.2-3.2,1.2c-2.2,0-3.4-1.1-4.1-1.8l1.6-1.8c0.6,0.6,1.5,1.3,2.3,1.3
			s1.5-0.4,1.5-1.2c0-0.6-0.5-1-1-1.1L82,18.9c-0.7-0.3-1.6-0.6-2.2-1.3c-0.5-0.5-0.8-1.2-0.8-2c0-1.1,0.5-1.9,1.1-2.4
			c0.8-0.6,1.9-0.7,2.8-0.7c0.7,0,2,0.1,3.4,1.2L84.7,15.3z"/>
		<path d="M91.1,14.2c1.1-1.5,2.5-1.7,3.4-1.7c3.1,0,5.2,2.4,5.2,5.6s-2.1,5.6-5.3,5.6c-0.6,0-2.2-0.1-3.4-1.7v1.4h-2.9V5.6h3
			C91.1,5.6,91.1,14.2,91.1,14.2z M90.8,18.1c0,1.7,1.2,3,3,3c1.7,0,3-1.3,3-3s-1.2-3-3-3S90.8,16.4,90.8,18.1z"/>
		<path d="M104.6,21.8l-5.1-9h3.5l3.3,6.1l3-6.1h3.4l-8.5,16.3h-3.4L104.6,21.8z"/>
		<path d="M57.4,14.6h-3h-4.5v3h3.9c-0.6,2-2.1,3.4-4.9,3.4c-3.1,0-5.3-2.5-5.3-5.6s2.1-5.7,5.2-5.7c1.7,0,3.4,0.8,4.5,2.2l2.4-1.6
			c-1.6-2.2-4.1-3.5-6.9-3.5c-4.7,0-8.5,3.8-8.5,8.6s3.6,8.6,8.5,8.6s8.5-3.8,8.5-8.6C57.5,15,57.4,14.8,57.4,14.6z"/>
	</g>
	<g>
		<g>
			<path class="st0" d="M26.6,14.9h-7.4V17h5.1c-0.7,3.2-3.1,5.8-6.2,6.9L5.8,11.7c1.3-3.7,4.9-6.4,9-6.4c3.2,0,6.1,1.6,7.9,4
				l1.6-1.4c-2.1-2.9-5.5-4.8-9.5-4.8C9.3,3.1,4.6,7,3.4,12.2l14,14C22.6,25.1,26.6,20.4,26.6,14.9z"/>
			<path class="st0" d="M3.2,15c0,3,1.2,5.8,3.4,8.1s5.2,3.4,8.1,3.4L3.2,15z"/>
		</g>
		<path class="st1" d="M14.9,0C6.7,0,0,6.7,0,14.9s6.7,14.9,14.9,14.9s14.9-6.7,14.9-14.9S23,0,14.9,0z M6.6,23.2
			C4.4,21,3.2,18,3.2,15.1l11.6,11.5C11.8,26.5,8.8,25.4,6.6,23.2z M17.4,26.3L3.5,12.4c1.2-5.2,5.8-9.1,11.4-9.1
			c3.9,0,7.3,1.9,9.5,4.8l-1.7,1.3c-1.8-2.4-4.7-4-7.9-4c-4.1,0-7.6,2.7-9,6.4L18,24c3.1-1.1,5.4-3.7,6.2-6.9h-5.1V15h7.4
			C26.6,20.4,22.6,25.1,17.4,26.3z"/>
	</g>
</g>
</svg>
