<svg xmlns="http://www.w3.org/2000/svg" viewBox="0 0 330.29 330.73"><defs><style>.cls-1{fill:#019833;}.cls-2{fill:#66fe98;}.cls-3{fill:#45fe02;}.cls-4{fill:#017d17;}.cls-5{fill:#005d04;}.cls-6{fill:#fefefe;}.cls-7{fill:gray;}.cls-8{fill:#ccc;}</style></defs><title>icon_vim</title><g id="レイヤー_2" data-name="レイヤー 2"><g id="レイヤー_1-2" data-name="レイヤー 1"><g id="layer1"><g id="g3699"><path id="path2836" class="cls-1" d="M166.54,16.19,17.26,165.68,165.92,314.54,315.21,165.06Z"/><path d="M165.92,315l-.21-.21L16.84,165.68l.21-.21L166.54,15.77l.22.21L315.63,165.05l-.21.22ZM17.68,165.68,165.92,314.12,314.78,165.05,166.54,16.62Z"/><path id="path2838" class="cls-2" d="M165.92,16.82V3.74L3.58,166.3H17.26Z"/><path d="M17.38,166.6H2.86L166.22,3V16.94l-.09.09ZM4.3,166H17.14L165.62,16.69V4.46Z"/><path id="path2840" class="cls-3" d="M165.55,16.82V3.74L327.89,166.3H314.21Z"/><path d="M328.61,166.6H314.09l-.09-.09L165.25,16.94V3Zm-14.28-.6h12.84L165.85,4.46V16.69Z"/><path id="path2842" class="cls-4" d="M165.92,315.41v13.08L3.58,165.93H17.26Z"/><path d="M166.22,329.21,2.86,165.63H17.38l.09.09L166.22,315.29ZM4.3,166.23,165.62,327.77V315.53L17.14,166.23Z"/><path d="M84.15,297.51H52.77l-12.26-7.09V57.48H30.78l-8.33-8.34V23.64l8.63-9.36H140.85l9.86,9.89V48.36l-8.2,10h-8.29v77.1l78-77.1H207.9l-9.07-9.79V22.91l8.91-8.19h110.8l8.76,8.78V47.77l-1.69,1.74ZM56,285.58H79.12L315.38,42.93V28.44l-1.79-1.79H212.39l-1.64,1.5V43.89l2.36,2.55H241.3L122.3,164V46.44h14.57l1.92-2.34v-15l-2.89-2.89H36.31L34.38,28.3V44.2l1.35,1.35H52.44v238Z"/><path id="path2844" class="cls-5" d="M165.55,315.41v13.08L327.89,165.93H314.21Z"/><path d="M165.25,329.21V315.29l.09-.09L314.09,165.63h14.52Zm.6-13.68v12.24L327.17,166.23H314.33Z"/><path d="M164.8,330.73,0,165.71,165.48,0,330.29,165ZM5.06,165.71l159.74,160L325.23,165,165.48,5.06Z"/><path id="path3640" class="cls-6" d="M139.49,30.21l5.91-3.12L139.33,21H33.74l-5.36,5.37V46.71l5.95,6,2.84-6L33.43,43V28.65l2.8-2.49H137l2.49,4.05Z"/><path d="M34.41,53.18l-6.33-6.34V26.27l5.54-5.55H139.45l6.44,6.45-6.51,3.43-2.55-4.14H36.35l-2.62,2.33V42.85l3.8,3.8Zm-5.73-6.59,5.56,5.57,2.57-5.38L33.14,43.1V28.52l3-2.66h101l2.42,3.95L144.9,27l-5.69-5.7H33.87l-5.19,5.2Z"/><path d="M76.79,287.61h-20l-3.45-3.46V46.94H36.17l-3.51-3.51V29l3.45-3.46H136.17l3.8,2.94V42.64l-4.08,4.08H117.11V174.55L230.61,59.36V46.56H213.54l-3.45-3.46v-14L214,25.22h98.23l3.92,3.92V40.29l-.09.09ZM57.06,287H76.52L315.52,40V29.4L312,25.85h-97.7l-3.55,3.55V42.84l3.08,3.09h17.44V59.61l-.09.1L116.48,176.09v-130h19.15l3.71-3.71V28.79L136,26.17H36.37l-3.08,3.09V43.17l3.14,3.14H54V283.89Z"/><path id="path3646" class="cls-6" d="M53.49,46.23V284.06l3.08,3.52-2.42,4.61-6.82-6.81V52.4Z"/><path d="M54.23,292.69,47,285.5V52.27l6.75-6.76V284l3.14,3.59Zm-6.6-7.43,6.44,6.43,2.14-4.07-3-3.45V47l-5.56,5.57Z"/><path id="path3644" class="cls-7" d="M36.43,46.23,34.67,52H47.42l7-5.73Z"/><path d="M47.53,52.25H34.27l1.94-6.32H55.3Zm-12.46-.59H47.32l6.3-5.13h-17Z"/><path id="path3638" class="cls-6" d="M211.64,52.66l2.8-5.76-4-3.74V30.4l4.66-4.68h97.35l3.73,5L321.43,27,316,21.52H211.33l-5.21,5.22V47.21l5.4,5.1M127,150.63l-10.17,24.7L231.54,60.11V46.4L127,150.63Z"/><path d="M117,175.54l-.48-.32,10.19-24.76,0,0L231.84,45.68V60.23l-.08.09ZM127.2,150.8l-9.57,23.26L231.25,60V47.12Zm84.71-98-.54-.26.06-.12-.11.12-5.5-5.19V26.61l5.38-5.39H316.11L321.89,27l-5.82,4.11L312.26,26H215.18l-4.49,4.5V43l4.11,3.8Zm-5.49-5.71L211.63,52l2.44-5-4-3.68v-13l4.84-4.84h97.62l3.64,4.87L321,26.93l-5.1-5.11H211.45l-5,5Z"/><path id="path3642" class="cls-7" d="M139.25,29.5l5.06-3.31v20l-5.83,5.84H127.16v98.76l-10.34,24.44v-129h18.91l3.52-2.86V29.5Z"/><path d="M117.1,175.39l-.58-.12V45.93h19.11l3.33-2.7V29.33l5.65-3.69V46.36l-6,6H127.46v98.53l0,.06Zm0-128.86V173.8l9.74-23v-99h11.5L144,46.11V26.74l-4.46,2.92V43.51l-3.71,3Z"/><path id="path3622" class="cls-8" d="M214.14,25.53l-3.73,3.74V43l3.26,3.27h17.26V59.49L116.79,175.32V46.41h19l3.89-3.9V28.64l-3.59-2.78H36.24L33,29.13V43.3l3.32,3.32H53.66V284l3.27,3.27H76.66L315.83,40.17V29.27l-3.73-3.74Z"/><path d="M76.79,287.61h-20l-3.45-3.46V46.94H36.17l-3.51-3.51V29l3.45-3.46H136.17l3.8,2.94V42.64l-4.08,4.08H117.11V174.55L230.61,59.36V46.56H213.54l-3.45-3.46v-14L214,25.22h98.23l3.92,3.92V40.29l-.09.09ZM57.06,287H76.52L315.52,40V29.4L312,25.85h-97.7l-3.55,3.55V42.84l3.08,3.09h17.44V59.61l-.09.1L116.48,176.09v-130h19.15l3.71-3.71V28.79L136,26.17H36.37l-3.08,3.09V43.17l3.14,3.14H54V283.89Z"/><path id="path3636" class="cls-7" d="M316.14,29.59l5.31-3.08V45.78L80.52,292.31H54.94l2.44-4.87H77L315.83,40.49Z"/><path d="M80.64,292.61H54.45l2.75-5.46H76.85L315.53,40.36l.31-10.95L321.75,26V45.9l-.09.09ZM55.42,292h25L321.15,45.66V27l-4.72,2.73-.31,10.85-.08.08L77.1,287.74H57.57Z"/><path id="path3652" class="cls-7" d="M231.07,46.56l-5.39,5.62H211.61l3.29-5.62Z"/><path d="M225.81,52.48H211.08l3.65-6.22h17Zm-13.68-.6h13.42l4.82-5H215.08Z"/><g id="g3673"><path id="path3671" class="cls-8" d="M173.62,185.55a1,1,0,0,0-.49.25l-4.63,4a1,1,0,0,0-.3.46l-4.63,13a1.08,1.08,0,0,0,.25,1.12l3.54,3.54a1,1,0,0,0,.76.3h14.29a1,1,0,0,0,.76-.3l3.73-3.76a1.19,1.19,0,0,0,.27-.46l4-13.65a1.08,1.08,0,0,0-.27-1.07l-3.08-3.08a1.12,1.12,0,0,0-.76-.3H173.62Zm-26.18,36.57a1.1,1.1,0,0,0-.82.79l-1.77,7a1.09,1.09,0,0,0,.78,1.31,1.15,1.15,0,0,0,.26,0h8.4l-20.84,59.59a1.08,1.08,0,0,0,.68,1.37,1.14,1.14,0,0,0,.33.05H164.8a1.07,1.07,0,0,0,1-.73l2-6.41a1.08,1.08,0,0,0-.71-1.34,1.26,1.26,0,0,0-.33-.05h-6.85l20.62-60.22a1.07,1.07,0,0,0-.67-1.36,1,1,0,0,0-.33-.06H147.44Zm96.55.22a1,1,0,0,0-.6.36l-6.31,7.14H227l-6.69-7a1,1,0,0,0-.76-.33h-24a1.05,1.05,0,0,0-1,.71l-2.21,6.59a1.07,1.07,0,0,0,.68,1.36,1,1,0,0,0,.33.06h6.42l-20,58.94a1.07,1.07,0,0,0,.67,1.36,1,1,0,0,0,.33.06h25.53a1.09,1.09,0,0,0,1-.71l2-5.75a1.09,1.09,0,0,0-.68-1.36,1,1,0,0,0-.33-.06h-4.46l12.73-40.14h23l-14.53,46.63a1.08,1.08,0,0,0,.71,1.34,1.19,1.19,0,0,0,.32.05h24.63a1.08,1.08,0,0,0,1-.66L254,285.7a1.09,1.09,0,0,0-.61-1.4.94.94,0,0,0-.37-.07h-4.47l13-40.82h21.93l-14.75,46.84a1.08,1.08,0,0,0,.71,1.34,1.25,1.25,0,0,0,.32.05h27.05a1.08,1.08,0,0,0,1-.68l2.21-5.75a1.08,1.08,0,0,0-.64-1.38,1,1,0,0,0-.37-.07H293.6l16.3-53a1.08,1.08,0,0,0-.16-1L304.67,223a1.06,1.06,0,0,0-.87-.41H284.45a1.05,1.05,0,0,0-.79.33l-6.09,6.7H266.9l-6.31-6.92a1.07,1.07,0,0,0-.79-.33H244Z"/><path d="M164.81,294.81H134.46a3.54,3.54,0,0,1-1.14-.18,3.61,3.61,0,0,1-2.26-4.56l19.68-56.27h-4.85a3.51,3.51,0,0,1-.87-.11,3.6,3.6,0,0,1-2.62-4.36l1.77-7a3.62,3.62,0,0,1,2.74-2.64l.27,0a5.28,5.28,0,0,1,.56,0h31.81a3.82,3.82,0,0,1,1.13.19,3.57,3.57,0,0,1,2.08,1.81,3.62,3.62,0,0,1,.19,2.74l-19.49,56.9h3.32a3.7,3.7,0,0,1,1.07.16,3.6,3.6,0,0,1,2.38,4.49l-2,6.41A3.59,3.59,0,0,1,164.81,294.81Zm-10.52-66.05h3.56l-21.34,61h27.24l1.08-3.49H156.4l21.11-61.63H148.78l-1,4.11Zm10.49,61h0Zm2-3.49h0Zm-17.71-62.76h0Zm120.61,70.64a3.41,3.41,0,0,1-1-.16,3.6,3.6,0,0,1-2.38-4.49L280,245.93H263.33L252,281.7h1a3.67,3.67,0,0,1,1.3.26,3.6,3.6,0,0,1,2,4.67L254.1,292a3.6,3.6,0,0,1-3.29,2.21H226.16a3.64,3.64,0,0,1-1.06-.16,3.6,3.6,0,0,1-2.38-4.49l13.51-43.36H218.46l-11.14,35.09h1a3.53,3.53,0,0,1,1.13.19,3.6,3.6,0,0,1,2.27,4.55l-2,5.76a3.61,3.61,0,0,1-3.39,2.42H180.85a3.82,3.82,0,0,1-1.13-.19,3.59,3.59,0,0,1-2.26-4.55L196.3,233.8h-2.9a3.48,3.48,0,0,1-1.13-.19,3.6,3.6,0,0,1-2.27-4.55l2.23-6.65A3.58,3.58,0,0,1,195.6,220h24a3.64,3.64,0,0,1,2.57,1.09l6,6.18h7.83L241.5,221a3.6,3.6,0,0,1,2-1.16l.25,0a3.62,3.62,0,0,1,.57,0h15.5a3.59,3.59,0,0,1,2.6,1.09l.05.06,5.56,6.1h8.44l5.4-5.94A3.58,3.58,0,0,1,284.5,220h19.28a3.54,3.54,0,0,1,2.87,1.37l.05.05,5.06,6.82a3.58,3.58,0,0,1,.54,3.26L297,281.24H299a3.6,3.6,0,0,1,3.37,4.83l-2.21,5.79a3.63,3.63,0,0,1-3.36,2.3H269.68Zm-69.86-65.4h3.52l-20.46,60.36h22.46l1-2.84h-5.88l14.34-45.18h28.32l-15,48h21.7l1-2.37h-5.72l14.55-45.87h27.22l-15.19,48.24h24.1l1.08-2.84h-6.67l17.1-55.58-4.18-5.62h-18l-6.4,7H265.79l-6.61-7.25H244.84l-6.63,7.5H226l-7-7.28h-22.3l-1.23,3.68Zm69.88,60.36h0Zm-43.54,0h0Zm70.58,0h0Zm11-57.84v0Zm-.22-1.26v0Zm-23-4.94h0Zm-24.66-.22h0Zm-14.48-.53,0,0Zm-77.25-13.64a3.54,3.54,0,0,1-2.45-1L162,206.11a3.64,3.64,0,0,1-.83-3.75l4.62-12.94a3.5,3.5,0,0,1,1-1.5l0,0,4.63-4a3.54,3.54,0,0,1,1.62-.8l.26,0a3.54,3.54,0,0,1,.56,0H187a3.56,3.56,0,0,1,2.51,1l3.11,3.11a3.59,3.59,0,0,1,.91,3.55l-4,13.65a3.57,3.57,0,0,1-.91,1.54l-3.77,3.8a3.56,3.56,0,0,1-2.55,1h-14.3Zm0-5h0Zm-1.84-2.45,2.44,2.45h13.12l3-3.05,3.63-12.49-2-2h-12.1l-3.89,3.34Zm16.13,2.45h0ZM166,204.06Zm18.8-1.12v0Zm.35-.6ZM187,188.08h0Zm-12.23-.39,0,0Z"/><path id="path3665" class="cls-8" d="M173.83,186.62l-4.62,4-4.63,13,3.54,3.54h14.29l3.72-3.76,4-13.65L187,186.62Zm-26.18,36.57-1.76,7h9.9l-21.33,61H164.8l2-6.41h-8.35l21.12-61.63Zm96.56.21-6.62,7.5h-11l-7-7.28h-24l-2.2,6.6h7.92l-20.47,60.35h25.53l2-5.75h-5.93l13.41-42.26h25.31l-15,48h24.63l2.21-5.28h-5.94l13.64-43h24.19L269.7,290.57h27.05l2.21-5.75h-6.83l16.73-54.39-5.06-6.81H284.45l-6.39,7H266.41l-6.61-7.25Z"/><path d="M165,291.54H134l21.34-61h-9.87l1.93-7.66H180l-.14.42-21,61.22h8.34Zm-30.13-.63h29.67l1.79-5.77H158l.14-.42,21-61.22H147.9l-1.61,6.4h9.94Zm162.07,0h-27.7l15.19-48.23H260.93L247.49,285h6L251,290.89H225.74l15-48H216.05l-13.21,41.63h5.94l-2.17,6.38h-26.2l20.47-60.36H193l2.42-7.22h24.33l7,7.27h10.72l6.61-7.49h15.88l6.61,7.25h11.37l6.4-7H304l5.25,7.07,0,.15-16.62,54h6.87Zm-26.84-.63h26.41l2-5.12h-6.8l16.82-54.65-4.88-6.55H284.59l-6.39,7H266.27l-6.61-7.25H244.35l-6.61,7.49H226.47l-7-7.27H195.83l-2,6h7.92l-20.47,60.36h24.86l1.75-5.12H202l13.61-42.89h26l-15,48h24l1.94-4.66h-5.89L260.47,242h24.85Zm-87.59-82.84H168l-3.77-3.77,4.72-13.24,4.78-4.11h13.44l3.3,3.31-4.05,13.9Zm-14.29-.63h14l3.58-3.61,3.9-13.39-2.85-2.86H174l-4.47,3.85-4.54,12.7Z"/></g></g></g></g></g></svg>