<?xml version="1.0" encoding="utf-8"?>
<!-- Generator: Adobe Illustrator 22.1.0, SVG Export Plug-In . SVG Version: 6.00 Build 0)  -->
<svg version="1.1" id="レイヤー_1" xmlns="http://www.w3.org/2000/svg" xmlns:xlink="http://www.w3.org/1999/xlink" x="0px"
	 y="0px" viewBox="0 0 782.8 330.7" style="enable-background:new 0 0 782.8 330.7;" xml:space="preserve">
<style type="text/css">
	.st0{fill:url(#SVGID_1_);}
	.st1{fill:#FFFFFF;}
</style>
<title>icon_vim</title>
<path d="M357.9,330.7H20c-11,0-20-9-20-20V20C0,9,9,0,20,0h337.9c11,0,20,9,20,20v290.7C377.9,321.8,368.9,330.7,357.9,330.7z"/>
<linearGradient id="SVGID_1_" gradientUnits="userSpaceOnUse" x1="188.95" y1="436" x2="188.95" y2="766.7" gradientTransform="matrix(1 0 0 1 0 -436)">
	<stop  offset="0" style="stop-color:#FF1BB3"/>
	<stop  offset="1" style="stop-color:#FFB300"/>
</linearGradient>
<path class="st0" d="M357.9,10c5.5,0,10,4.5,10,10v290.7c0,5.5-4.5,10-10,10H20c-5.5,0-10-4.5-10-10V20c0-5.5,4.5-10,10-10H357.9
	 M357.9,0H20C9,0,0,9,0,20v290.7c0,11,9,20,20,20h337.9c11,0,20-9,20-20V20C377.9,9,368.9,0,357.9,0L357.9,0z"/>
<polygon class="st1" points="94.1,40.3 44,85.1 65.7,99.8 50.9,139.4 100.6,94 77.8,81.8 "/>
<rect x="117.8" y="122.7" class="st1" width="57.6" height="11.2"/>
<g>
	<path d="M497.5,55.6c-0.6,3.5-0.9,8.1-0.9,14.8v58.1c0,6.6,0.2,10,0.9,14.9H478c0.6-4.5,0.9-8,0.9-14.9v-22.8h-40.1v22.7
		c0,6.6,0.2,10.1,0.9,14.9h-19.4c0.6-4.3,0.9-7.8,0.9-14.9V70.5c0-6.9-0.2-10.4-0.9-14.9h19.4c-0.6,4.6-0.9,8.7-0.9,14.8v19.4h40.1
		V70.5c0-6.8-0.2-10.9-0.9-14.9C478,55.6,497.5,55.6,497.5,55.6z"/>
	<path d="M512,93.2c-4.5-10.1-5.1-11.2-6.4-13.8h19.7c0.6,3.2,2,8.4,3.9,12.5l11.9,28.4L552,92.9c2.6-6.6,3.6-9.8,4.3-13.5h19.7
		c-0.7,1.6-0.7,1.6-2.3,4.8c-0.7,1.5-0.7,1.5-3.9,9.1l-24.6,57.1c-4,9.1-10.9,13.3-22.1,13.3c-3.8,0-7.4-0.4-12.9-1.5l2.3-15
		c3.6,1.6,5.5,2.2,8.2,2.2c4.1,0,6.9-1.7,8.7-5.3l2.7-5.9L512,93.2z"/>
	<path d="M582.9,163.6c0.6-4.9,0.9-9.3,0.9-15.5v-53c0-6.7-0.2-10.7-0.9-15.6h17.6v3.6c0,1-0.1,2.2-0.2,3.2
		c6.5-6.1,13.2-8.7,22.3-8.7c9.1,0,16.3,2.7,21.6,8c5.7,5.6,8.7,13.9,8.7,24.7c0,10.9-3,19.5-9,25.3c-5.3,5.3-12.7,8.1-21.4,8.1
		c-5.3,0-10.7-1.2-14.9-3.2c-2.8-1.4-4.5-2.7-7.2-5.5c0.1,1.2,0.1,1.2,0.1,2.8c0.1,0.7,0.2,1.3,0.2,2.9v7c0,7.1,0.2,11,0.7,15.6
		L582.9,163.6L582.9,163.6z M635.5,110.4c0-11.7-6.2-18.9-16.5-18.9c-10.4,0-17.9,8.2-17.9,19.2c0,11.3,7.4,19.4,17.9,19.4
		C629.1,130.2,635.5,122.7,635.5,110.4z"/>
	<path d="M676.8,116c0.6,5.1,1.5,7.8,3.6,10.4c2.9,3.6,7.1,5.4,12.3,5.4c7.5,0,12.7-3.6,15-10.1l15.6,4.6c-2.3,5.2-4,7.7-6.9,10.4
		c-5.7,5.7-13.9,8.7-23.7,8.7c-9.7,0-17.8-2.9-23.4-8.5c-6.1-6.1-9.5-15.2-9.5-25.7c0-20.5,12.9-34.1,32.3-34.1
		c14.2,0,24.4,6.9,29,19.3c1.9,5.3,2.5,8.7,2.9,16.8c0,0.4,0,0.6,0.2,2.6C724.4,116,676.8,116,676.8,116z M707,103.5
		c-0.6-3.5-1.4-5.4-3-7.5c-2.6-3.3-6.7-5.2-11.7-5.2c-8,0-13.2,4.3-15.2,12.7C677.1,103.5,707,103.5,707,103.5z"/>
	<path d="M778.4,96c-4.5-1.5-6.6-1.9-10-1.9c-5.7,0-10,1.6-12.9,5.1c-2.3,2.7-3.2,5.2-3.8,10.3v18.7c0,6.5,0.2,10.4,0.7,15.1h-18.5
		c0.6-5.4,0.9-8.7,0.9-15.1V94.5c0-7.2-0.2-10.6-0.9-15.1h17.8v8.8c4.5-6.8,11.4-10,21-10c3.2,0,5.5,0.2,10.1,1.2L778.4,96z"/>
	<path d="M467.5,257.7c0,6.1,0.2,10.4,0.9,15.1h-19.8c0.6-4.6,0.9-8.8,0.9-15.1v-56.8h-13.7c-6.5,0-11.1,0.2-15.5,0.7v-17.4
		c4.3,0.6,9.1,0.7,15.3,0.7h44.9c7.5,0,11.9-0.2,16.3-0.7v17.4c-4.5-0.6-8.5-0.7-16.3-0.7h-12.9L467.5,257.7L467.5,257.7z"/>
	<path d="M508.1,245.6c0.6,5.1,1.5,7.8,3.6,10.4c2.9,3.6,7.1,5.4,12.3,5.4c7.5,0,12.7-3.6,15-10.1l15.6,4.6c-2.3,5.2-4,7.7-6.9,10.4
		c-5.7,5.7-13.9,8.7-23.7,8.7c-9.7,0-17.8-2.9-23.4-8.5c-6.1-6.1-9.5-15.2-9.5-25.7c0-20.5,12.9-34.1,32.3-34.1
		c14.2,0,24.4,6.9,29,19.3c1.9,5.3,2.5,8.7,2.9,16.8c0,0.4,0,0.6,0.2,2.6H508.1z M538.3,233c-0.6-3.5-1.4-5.4-3-7.5
		c-2.6-3.3-6.7-5.2-11.7-5.2c-8,0-13.2,4.3-15.2,12.7H538.3z"/>
	<path d="M609.7,225.6c-4.5-1.5-6.6-1.9-10-1.9c-5.7,0-10,1.6-12.9,5.1c-2.3,2.7-3.2,5.2-3.8,10.3v18.7c0,6.5,0.2,10.4,0.7,15.1
		h-18.5c0.6-5.4,0.9-8.7,0.9-15.1v-33.7c0-7.2-0.2-10.6-0.9-15.1h17.8v8.8c4.5-6.8,11.4-10,21-10c3.2,0,5.5,0.2,10.1,1.2
		L609.7,225.6z"/>
	<path d="M621.4,272.8c0.6-4.8,0.9-8.8,0.9-15.1v-33.7c0-7.4-0.2-11.1-0.9-15.1h17.8v4.1c-0.1,1.9-0.1,1.9-0.1,1.9
		c0,1.1,0,1.1-0.1,1.5c5.7-6.5,11.7-9.1,20.4-9.1c6.1,0,10.8,1.6,14.2,4.8c1.5,1.3,2.5,2.5,4,5.1c6.1-6.9,12.4-9.8,21.6-9.8
		c7.8,0,13.9,2.5,17.7,7.2c3.2,4,4.6,9,4.6,16.4v26.6c0,6.4,0.2,10.4,0.7,15.1h-18.8c0.6-4.9,0.9-8.3,0.9-15.1v-23.3
		c0-4.5-0.6-6.8-1.9-8.7c-1.4-2-4-3.2-7.1-3.2c-3.9,0-7.4,1.5-10,4.5c-2.3,2.3-3.5,4.3-5.1,9v21.9c0,6.2,0.2,10.1,0.7,15.1h-18.8
		c0.6-4.6,0.9-8.5,0.9-15.1v-23.3c0-4.5-0.6-6.9-2.2-8.8c-1.4-1.9-3.9-3-6.6-3c-3.6,0-7.2,1.7-10.1,4.8c-2,2.2-3.2,4.1-5.1,8.5V258
		c0,6.2,0.2,10,0.7,15.1h-18.5V272.8z"/>
</g>
</svg>
