<?xml version="1.0" encoding="utf-8"?>
<!-- Generator: Adobe Illustrator 23.0.1, SVG Export Plug-In . SVG Version: 6.00 Build 0)  -->
<svg version="1.1" id="レイヤー_1" xmlns="http://www.w3.org/2000/svg" xmlns:xlink="http://www.w3.org/1999/xlink" x="0px"
	 y="0px" viewBox="0 0 535.7 131.9" style="enable-background:new 0 0 535.7 131.9;" xml:space="preserve">
<style type="text/css">
	.st0{fill:#C9177E;}
	.st1{fill:#FF4088;}
	.st2{fill:#FFFFFF;}
	.st3{fill:#0083C0;}
	.st4{fill:#0594CB;}
	.st5{fill:#00A88A;}
	.st6{fill:#33BA91;}
	.st7{fill:#FCD804;}
	.st8{fill:#EBB951;}
</style>
<title>icon_hugo</title>
<g id="レイヤー_2_1_">
	<g id="レイヤー_1-2">
		<path class="st0" d="M109.1,107.9c6.7-3.9,12.1-13.3,12.1-21v-42c0-7.7-5.5-17.1-12.1-21l-36.4-21C66-1,55.1-1,48.5,2.9l-36.4,21
			C5.5,27.8,0,37.2,0,44.9v42c0,7.7,5.5,17.1,12.1,21l36.4,21c6.7,3.9,17.6,3.9,24.2,0L109.1,107.9z"/>
		<path class="st1" d="M103.9,98.9c4.1-2.7,6.7-7.1,6.9-12v-42c-0.3-4.9-2.8-9.3-6.9-12l-36.4-21c-4.4-2.2-9.5-2.2-13.8,0l-36.4,21
			c-4.1,2.7-6.7,7.1-6.9,12v42c0.3,4.9,2.8,9.3,6.9,12l36.4,21c4.4,2.2,9.5,2.2,13.8,0L103.9,98.9z"/>
		<path class="st2" d="M34.8,99.6V32.2h14.1v24.6h23.4V32.2h14.2v67.4H72.3V70.1H48.9v29.5L34.8,99.6L34.8,99.6z"/>
		<path class="st3" d="M247.3,107.9c6.7-3.9,12.1-13.3,12.1-21v-42c0-7.7-5.5-17.1-12.1-21l-36.4-21c-6.7-3.9-17.6-3.9-24.2,0
			l-36.4,21c-6.7,3.9-12.1,13.3-12.1,21v42c0,7.7,5.4,17.1,12.1,21l36.4,21c6.7,3.9,17.6,3.9,24.2,0L247.3,107.9z"/>
		<path class="st4" d="M242.1,98.9c4.1-2.7,6.7-7.1,6.9-12v-42c-0.3-4.9-2.8-9.3-6.9-12l-36.4-21c-4.4-2.2-9.5-2.2-13.9,0l-36.4,21
			c-4.1,2.7-6.7,7.1-6.9,12v42c0.3,4.9,2.8,9.3,6.9,12l36.4,21c4.4,2.2,9.5,2.2,13.9,0L242.1,98.9z"/>
		<path class="st2" d="M173.4,31.7h13.8v36.5c-0.1,3.8,0.1,7.5,0.5,11.3c0.4,2.5,1.7,4.8,3.6,6.3c2.1,1.7,4.5,2.1,8.1,2.1
			s4.9-0.6,6.7-2.1c1.8-1.3,3-3.2,3.3-5.4c0.7-3.8,1-7.6,1-11.4V31.7h13.8v35.4c0,8.1-0.3,13.8-1,17.2c-1.1,6.3-5.4,11.6-11.4,13.9
			c-3.1,1.3-7.2,2-12.2,2c-6.1,0-10.7-0.7-13.8-2.2c-2.9-1.3-5.5-3.3-7.5-5.8c-1.7-2.2-3-4.7-3.6-7.5c-0.8-3.9-1.3-9.6-1.3-17.1
			L173.4,31.7L173.4,31.7z"/>
		<path class="st5" d="M385.4,107.9c6.7-3.9,12.1-13.3,12.1-21v-42c0-7.7-5.5-17.1-12.1-21L349,2.9c-6.7-3.9-17.6-3.9-24.2,0
			l-36.4,21c-6.7,3.9-12.1,13.3-12.1,21v42c0,7.7,5.5,17.1,12.1,21l36.4,21c6.7,3.9,17.6,3.9,24.2,0L385.4,107.9z"/>
		<path class="st6" d="M380.2,98.9c4.1-2.7,6.7-7.1,6.9-12v-42c-0.3-4.9-2.8-9.3-6.9-12l-36.4-21c-4.4-2.2-9.5-2.2-13.9,0l-36.4,21
			c-4.1,2.7-6.7,7.1-6.9,12v42c0.3,4.9,2.8,9.3,6.9,12l36.4,21c4.4,2.2,9.5,2.2,13.9,0L380.2,98.9z"/>
		<path class="st2" d="M369.7,65.4c0,15.4-2.9,19.8-8.7,26.2s-13.5,9-23.1,9c-8.2,0.1-16-3-22-8.5c-14.5-12.5-16-34.4-3.5-48.8
			c6.6-7.6,16.2-12,26.2-12c11.8,0,22.8,5.8,29.4,15.4l-10.3,8.7c-4.4-8.1-10.7-10.9-19.8-11.1c-10-0.3-21.1,9.3-20.3,22
			c0.5,7.1,3.8,19.4,19.8,21.7c8.4,1.2,18-7.8,18-12.7h-15.8V63.1h30.1L369.7,65.4L369.7,65.4z"/>
		<path class="st7" d="M523.6,107.9c6.7-3.9,12.1-13.3,12.1-21v-42c0-7.7-5.5-17.1-12.1-21l-36.4-21C480.5-1,469.6-1,463,2.9
			l-36.4,21c-6.7,3.9-12.1,13.3-12.1,21v42c0,7.7,5.5,17.1,12.1,21l36.4,21c6.7,3.9,17.6,3.9,24.2,0L523.6,107.9z"/>
		<path class="st8" d="M518.4,98.9c4.1-2.7,6.7-7.1,6.9-12v-42c-0.3-4.9-2.8-9.3-6.9-12l-36.4-21c-4.4-2.2-9.5-2.2-13.9,0l-36.4,21
			c-4.1,2.7-6.7,7.1-6.9,12v42c0.3,4.9,2.8,9.3,6.9,12l36.4,21c4.4,2.2,9.5,2.2,13.9,0L518.4,98.9z"/>
		<path class="st2" d="M475.1,31.3c-19.1,0-34.7,15.5-34.6,34.7c0,19.1,15.5,34.7,34.7,34.6c19.1,0,34.6-15.5,34.6-34.7
			C509.7,46.8,494.2,31.3,475.1,31.3z M475.1,87.7c-12-0.3-21.6-10.2-21.3-22.3c0.3-11.7,9.6-21.1,21.3-21.3l0,0
			c12,0.3,21.6,10.2,21.3,22.3C496.1,78.1,486.7,87.5,475.1,87.7z"/>
	</g>
</g>
</svg>
