<svg id="グループ化_5" data-name="グループ化 5" xmlns="http://www.w3.org/2000/svg" viewBox="0 0 14.637 14">
  <defs>
    <style>
      .cls-1 {
        fill: #ffce00;
      }

      .cls-2 {
        fill: #ffe36c;
      }

      .cls-3 {
        fill: #ffb000;
      }

      .cls-4 {
        fill: #6b1700;
      }
    </style>
  </defs>
  <path id="パス_4" data-name="パス 4" class="cls-1" d="M16.414,10.443c.282-.58.745-.58,1.028,0l1.272,2.611a2.473,2.473,0,0,0,1.676,1.218l2.876.4c.639.09.782.529.318.978l-2.09,2.016a2.472,2.472,0,0,0-.64,1.97l.506,2.859c.112.636-.262.907-.831.6l-2.563-1.365a2.473,2.473,0,0,0-2.072,0L13.328,23.1c-.57.3-.944.032-.831-.6L13,19.637a2.472,2.472,0,0,0-.64-1.97l-2.09-2.016c-.465-.448-.322-.888.318-.978l2.875-.4a2.473,2.473,0,0,0,1.676-1.218Z" transform="translate(-9.609 -9.616)"/>
  <g id="グループ化_4" data-name="グループ化 4" transform="translate(0.391 0.391)">
    <path id="パス_5" data-name="パス 5" class="cls-2" d="M10.832,14.909l2.876-.4a2.473,2.473,0,0,0,1.676-1.218l1.272-2.611c.191-.393.465-.519.71-.38-.284-.432-.69-.385-.947.143l-1.272,2.611A2.473,2.473,0,0,1,13.47,14.27l-2.876.4c-.639.09-.782.529-.318.978l.15.144C10.072,15.38,10.236,14.993,10.832,14.909Z" transform="translate(-10.004 -10.007)"/>
    <path id="パス_6" data-name="パス 6" class="cls-2" d="M20.8,157.97a1.265,1.265,0,0,0,.087.093l1.944,1.876c-.03-.034-.06-.067-.092-.1Z" transform="translate(-20.378 -152.182)"/>
  </g>
  <path id="パス_7" data-name="パス 7" class="cls-3" d="M81.38,290.69l-2.563-1.365a2.473,2.473,0,0,0-2.072,0l-2.563,1.365c-.4.213-.7.142-.81-.14l-.021.12c-.112.636.262.908.831.6l2.563-1.365a2.473,2.473,0,0,1,2.072,0l2.563,1.365c.57.3.944.032.831-.6l-.021-.12C82.084,290.832,81.781,290.9,81.38,290.69Z" transform="translate(-70.463 -277.789)"/>
  <path id="パス_8" data-name="パス 8" class="cls-4" d="M7.318.391c.186,0,.372.145.514.435L9.1,3.437A2.473,2.473,0,0,0,10.78,4.655l2.876.4c.639.09.782.529.318.978l-2.09,2.016a2.472,2.472,0,0,0-.64,1.97l.506,2.859c.081.459-.092.728-.408.728a.923.923,0,0,1-.423-.124L8.354,12.12a2.263,2.263,0,0,0-1.036-.228,2.263,2.263,0,0,0-1.036.228L3.719,13.485a.926.926,0,0,1-.423.124c-.317,0-.489-.269-.408-.728l.506-2.859a2.472,2.472,0,0,0-.64-1.97L.664,6.035C.2,5.587.342,5.147.981,5.057l2.875-.4A2.473,2.473,0,0,0,5.533,3.437L6.8.827c.141-.29.327-.435.514-.435m0-.391a1.009,1.009,0,0,0-.866.655L5.181,3.266a2.094,2.094,0,0,1-1.378,1l-2.876.4a1.008,1.008,0,0,0-.89.621A1.009,1.009,0,0,0,.392,6.316l2.09,2.016a2.094,2.094,0,0,1,.527,1.621L2.5,12.812a1.066,1.066,0,0,0,.18.913A.784.784,0,0,0,3.3,14a1.3,1.3,0,0,0,.607-.17l2.563-1.365a1.885,1.885,0,0,1,.852-.182,1.885,1.885,0,0,1,.852.182l2.563,1.365a1.3,1.3,0,0,0,.607.17.784.784,0,0,0,.613-.275,1.065,1.065,0,0,0,.18-.913l-.506-2.859a2.094,2.094,0,0,1,.527-1.621l2.09-2.016A1.009,1.009,0,0,0,14.6,5.291a1.009,1.009,0,0,0-.89-.621l-2.876-.4a2.092,2.092,0,0,1-1.378-1L8.184.655A1.008,1.008,0,0,0,7.318,0Z" transform="translate(0)"/>
</svg>
