<svg xmlns="http://www.w3.org/2000/svg" viewBox="0 0 48 48"><defs><style>.cls-1{fill:#ff1612;}.cls-2{fill:#fedf00;}</style></defs><title>アセット 1</title><g id="レイヤー_2" data-name="レイヤー 2"><g id="レイヤー_1-2" data-name="レイヤー 1"><circle class="cls-1" cx="24" cy="24" r="24"/><path class="cls-2" d="M24.8,2.5a3,3,0,0,0-.5.7c-.1.1-.4.7-.5.7a2.61,2.61,0,0,1-.8-.3,6.89,6.89,0,0,1-.8-.3c.2.2.3.5.5.7a3,3,0,0,1,.5.7c0,.2-.4.6-.5.7a6.53,6.53,0,0,1-.7.8l.9-.3a3.18,3.18,0,0,1,.9-.3c.2.1.4.6.5.7s.3.5.5.7V6.1c0-.2-.1-.8,0-.9a9.44,9.44,0,0,1,.9-.3l.9-.3a6.89,6.89,0,0,1-.8-.3c-.2-.1-.7-.1-.8-.3s0-.7,0-.9c-.2,0-.2-.3-.2-.6Zm5.9,5.6a6.89,6.89,0,0,0-.8.3,4.12,4.12,0,0,1-.8.3c-.2-.1-.4-.6-.5-.7a3,3,0,0,1-.5-.7v.9c0,.2.1.8,0,.9s-.7.2-.8.3a6.89,6.89,0,0,0-.8.3l.9.3c.2,0,.8.1.9.3s0,.7,0,.9v.9c.2-.2.3-.5.5-.7s.4-.7.5-.7.7.2.9.3l.9.3a3,3,0,0,1-.5-.7c-.1-.1-.5-.5-.5-.7s.4-.6.5-.7a1.27,1.27,0,0,1,.1-1.1Zm.4,8h-.9c-.2,0-.8.1-.9,0a9.44,9.44,0,0,1-.3-.9l-.3-.9a6.89,6.89,0,0,1-.3.8c-.1.2-.1.7-.3.8s-.7,0-.9,0h-.9a3,3,0,0,0,.7.5c.1.1.7.4.7.5s-.2.7-.3.8a6.89,6.89,0,0,1-.3.8c.2-.2.5-.3.7-.5a3,3,0,0,1,.7-.5c.2,0,.6.4.7.5a3,3,0,0,0,.7.5l-.3-.9c0-.2-.3-.7-.3-.9s.6-.4.7-.5c.7.2.9.1,1.1-.1Zm-4.7,5.5-.9-.3c-.2,0-.8-.1-.9-.3s0-.7,0-.9v-.9c-.2.2-.3.5-.5.7s-.4.7-.5.7-.7-.2-.9-.3l-.9-.3a3,3,0,0,1,.5.7c.1.1.5.5.5.7s-.4.6-.5.7-.3.5-.5.7a6.89,6.89,0,0,0,.8-.3,4.12,4.12,0,0,1,.8-.3c.2.1.4.6.5.7a3,3,0,0,1,.5.7v-.9c0-.2-.1-.8,0-.9s.7-.2.8-.3c.7.3,1,.2,1.2.1ZM12,4.8c-.3.8-.5,1.7-.8,2.5l-.6,1.8c0,.1-.1.7-.3.8s-.6,0-.8,0H5l2.1,1.5c.5.4,1,.7,1.5,1.1.1.1.6.3.7.5s-.2.6-.2.7c-.2.6-.4,1.2-.6,1.7A19.75,19.75,0,0,1,7.7,18l2.1-1.5c.5-.4,1-.7,1.5-1.1.1-.1.5-.5.7-.5s.5.4.6.5c.5.4,1,.7,1.5,1.1l2.2,1.6c-.3-.8-.5-1.7-.8-2.5l-.6-1.8c0-.1-.3-.7-.3-.8s.5-.4.6-.5c.5-.4,1-.7,1.5-1.1l2.2-1.6H14.4c-.2,0-.7.1-.8,0a1.85,1.85,0,0,1-.2-.7c-.2-.6-.4-1.1-.6-1.7A25.82,25.82,0,0,0,12,4.8Z"/></g></g></svg>