<?xml version="1.0" encoding="utf-8"?>
<!-- Generator: Adobe Illustrator 23.0.1, SVG Export Plug-In . SVG Version: 6.00 Build 0)  -->
<svg version="1.1" id="レイヤー_1" xmlns="http://www.w3.org/2000/svg" xmlns:xlink="http://www.w3.org/1999/xlink" x="0px"
	 y="0px" viewBox="0 0 112.7 38.2" style="enable-background:new 0 0 112.7 38.2;" xml:space="preserve">
<style type="text/css">
	.st0{fill:#0E1E25;}
	.st1{fill:url(#SVGID_1_);}
</style>
<g>
	<path class="st0" d="M47.3,12.4l0.1,1.6c1-1.3,2.3-1.9,3.9-1.9c2.8,0,4.2,1.7,4.2,5v9.2h-3v-9.1c0-0.9-0.2-1.5-0.5-2
		c-0.4-0.4-1-0.6-1.8-0.6c-1.2,0-2.1,0.6-2.7,1.7v10h-3v-14L47.3,12.4L47.3,12.4z M64.4,26.7c-1.9,0-3.4-0.6-4.6-1.9
		c-1.2-1.3-1.8-2.9-1.8-5v-0.4c0-1.4,0.3-2.6,0.8-3.7s1.2-2,2.2-2.6c0.9-0.6,2-0.9,3.1-0.9c1.8,0,3.2,0.6,4.2,1.8
		c1,1.2,1.5,2.9,1.5,5.2v1.3H61c0.1,1.2,0.5,2.1,1.1,2.7c0.6,0.7,1.5,1,2.4,1c1.4,0,2.5-0.6,3.3-1.7l1.6,1.6
		c-0.5,0.8-1.2,1.5-2.1,1.9C66.5,26.4,65.5,26.7,64.4,26.7L64.4,26.7z M64,14.7c-0.8,0-1.5,0.3-2,0.9c-0.5,0.6-0.8,1.4-1,2.5h5.7
		v-0.2c-0.1-1.1-0.3-1.8-0.8-2.4C65.5,15,64.8,14.7,64,14.7z M75.8,9v3.4h2.3v2.3h-2.3v7.8c0,0.5,0.1,0.9,0.3,1.2
		c0.2,0.2,0.6,0.4,1.1,0.4c0.4,0,0.7,0,1-0.1v2.4c-0.7,0.2-1.3,0.3-2,0.3c-2.3,0-3.4-1.3-3.4-4v-7.9h-2.2v-2.3h2.2V9H75.8L75.8,9z
		 M83.6,26.4h-3V6.6h3V26.4z M90,26.4h-3v-14h3V26.4z M86.8,8.8c0-0.5,0.1-0.9,0.4-1.2s0.7-0.5,1.2-0.5s1,0.2,1.3,0.5
		s0.4,0.7,0.4,1.2S90,9.7,89.7,10c-0.3,0.3-0.7,0.5-1.3,0.5c-0.5,0-1-0.2-1.2-0.5C87,9.7,86.8,9.3,86.8,8.8L86.8,8.8z M94.3,26.4
		V14.7h-2v-2.3h2v-1.3c0-1.6,0.4-2.7,1.2-3.6c0.8-0.8,2-1.3,3.4-1.3c0.5,0,1.1,0.1,1.7,0.2V9c-0.4-0.1-0.8-0.1-1.1-0.1
		c-1.4,0-2.1,0.8-2.1,2.3v1.2h2.7v2.3h-2.7v11.7H94.3L94.3,26.4z M106.8,21.9l2.7-9.5h3.2l-5.3,16.1c-0.8,2.4-2.2,3.5-4.1,3.5
		c-0.4,0-0.9-0.1-1.4-0.2v-2.4h0.6c0.8,0,1.3-0.1,1.7-0.4c0.4-0.3,0.7-0.8,0.9-1.5l0.4-1.2l-4.7-13.9h3.2L106.8,21.9z"/>
	
		<radialGradient id="SVGID_1_" cx="-1572.3954" cy="346.6286" r="1.0014" gradientTransform="matrix(0 38.301 44.1228 0 -15275.0225 60224.2461)" gradientUnits="userSpaceOnUse">
		<stop  offset="0" style="stop-color:#20C6B7"/>
		<stop  offset="1" style="stop-color:#4D9ABF"/>
	</radialGradient>
	<path class="st1" d="M27.8,13.3L27.8,13.3C27.7,13.3,27.7,13.3,27.8,13.3c-0.1,0-0.1-0.1-0.1-0.1l0.8-4.7l3.6,3.6l-3.8,1.6l0,0l0,0
		l0,0C28.1,13.5,27.9,13.4,27.8,13.3z M33,13l3.9,3.9c0.8,0.8,1.2,1.2,1.4,1.7c0,0.1,0,0.1,0.1,0.2L29,14.9l0,0c0,0-0.1,0-0.1-0.1
		s0-0.1,0.1-0.1l0,0L33,13z M38.1,20c-0.2,0.4-0.6,0.8-1.2,1.4l-4.4,4.4l-5.7-1.2l0,0c0,0-0.1,0-0.1-0.1c0-0.5-0.3-0.9-0.7-1.2v-0.1
		l0,0l1.1-6.5l0,0c0,0,0-0.1,0.1-0.1c0.5-0.1,0.9-0.3,1.2-0.7l0,0h0.1L38.1,20L38.1,20z M31.5,26.8L24.3,34l1.2-7.6l0,0l0,0
		c0,0,0,0,0.1,0l0,0c0.3-0.1,0.5-0.3,0.7-0.5l0.1-0.1l0,0L31.5,26.8L31.5,26.8z M22.8,35.5L22,36.3l-9-12.9l0,0c0,0,0,0,0-0.1l0,0
		l0,0l0.1-0.1l0,0l0,0c0,0,0,0,0.1-0.1h0.1l9.9,2h0.1l0,0c0.1,0.5,0.5,1,1,1.2c0,0,0,0,0,0.1l0,0C24.2,27.2,23.1,33.8,22.8,35.5z
		 M21.1,37.2c-0.6,0.6-0.9,0.9-1.3,1s-0.8,0.1-1.2,0c-0.5-0.1-0.9-0.5-1.7-1.4l-9-9l2.3-3.6l0,0h0.1c0.5,0.2,1.1,0.1,1.6-0.1H12l0,0
		L21.1,37.2L21.1,37.2z M7,27l-2-2l4-1.8l0,0c0,0,0.1,0,0.1,0.1s0.1,0.1,0.1,0.2l0,0l0,0L7,27L7,27z M4.1,24.1l-2.6-2.6
		c-0.4-0.4-0.8-0.8-1-1l7.9,1.6l0,0c0,0,0.1,0,0.1,0.1l-0.1,0.1l0,0L4.1,24.1z M0,19.1c0-0.2,0-0.3,0.1-0.5c0.1-0.5,0.6-0.9,1.4-1.7
		l3.3-3.3c1.5,2.2,3.1,4.5,4.6,6.7c0,0,0.1,0.1,0,0.1c-0.1,0.2-0.3,0.3-0.4,0.5c0,0,0,0-0.1,0.1l0,0l0,0L0,19.1L0,19.1z M5.7,12.7
		l4.5-4.5c0.4,0.2,2,0.8,3.3,1.4c1,0.4,2,0.8,2.3,1c0,0,0.1,0,0.1,0.1c0,0,0,0,0,0.1c-0.1,0.7,0.1,1.3,0.5,1.8v0.1l0,0l-4.6,7.1l0,0
		h-0.1c-0.2,0-0.4-0.1-0.5-0.1c-0.2,0-0.3,0-0.5,0.1l0,0c0,0,0,0-0.1,0c0,0,0,0,0-0.1L5.7,12.7L5.7,12.7z M11.1,7.3l5.8-5.8
		c0.8-0.8,1.2-1.2,1.7-1.4C19,0,19.4,0,19.8,0.1c0.5,0.1,0.9,0.5,1.7,1.4l1.3,1.3l-4.1,6.4l0,0h-0.1c-0.7-0.2-1.4-0.1-1.9,0.4h-0.1
		C15.9,9.3,11.7,7.5,11.1,7.3z M23.6,3.6l3.8,3.8l-0.9,5.7l0,0l0,0l0,0c-0.2,0.1-0.4,0.2-0.5,0.3l0,0l0,0l0,0L20,11l0,0
		c0,0-0.1,0-0.1-0.1c0-0.3-0.1-0.6-0.3-0.9c0,0-0.1-0.1,0-0.1L23.6,3.6z M19.7,12.2l5.5,2.3c0,0,0.1,0,0.1,0.1c0,0,0,0,0,0.1
		s0,0.2,0,0.3l0,0c0,0,0,0.1-0.1,0.1l0,0c-0.9,0.4-12.1,5.2-12.1,5.2s0,0-0.1,0v-0.1l0,0l4.5-6.9l0,0l0.1-0.1l0,0c0.1,0,0.2,0,0.3,0
		c0.7,0,1.3-0.3,1.7-0.9C19.5,12.2,19.5,12.2,19.7,12.2C19.6,12.2,19.6,12.2,19.7,12.2z M13.4,21.4l12.3-5.2l0,0
		c0.1,0.1,0.1,0.1,0.2,0.2l0,0c0,0,0,0,0.1,0.1l0,0L24.9,23l0,0c0,0,0,0.1-0.1,0.1c-0.6,0-1.1,0.4-1.4,0.8l0,0c0,0,0,0,0,0.1
		c0,0,0,0-0.1,0l-9.8-2C13.6,21.9,13.4,21.4,13.4,21.4z"/>
</g>
</svg>
