<svg xmlns="http://www.w3.org/2000/svg" viewBox="0 0 14.62 14"><defs><style>.cls-1{fill:#ffce00;}.cls-2{fill:#ffe36c;}.cls-3{fill:#ffb000;}.cls-4{fill:#6b1700;}</style></defs><title>アセット 1</title><g id="レイヤー_2" data-name="レイヤー 2"><g id="グループ化_5" data-name="グループ化 5"><path id="パス_4" data-name="パス 4" class="cls-1" d="M6.8.83c.28-.58.74-.58,1,0L9.1,3.44a2.49,2.49,0,0,0,1.67,1.22l2.88.4c.64.09.78.53.32,1l-2.09,2a2.42,2.42,0,0,0-.64,2l.5,2.86c.11.63-.26.91-.83.6L8.35,12.11a2.49,2.49,0,0,0-2.07,0L3.71,13.48c-.57.3-.94,0-.83-.6L3.38,10a2.46,2.46,0,0,0-.64-2L.65,6c-.46-.44-.32-.88.32-1l2.88-.4A2.46,2.46,0,0,0,5.52,3.44Z"/><path class="cls-2" d="M1.41,5.49l2.87-.4A2.49,2.49,0,0,0,6,3.88L7.23,1.26c.17-.34.4-.45.61-.39l0,0c-.28-.58-.74-.58-1,0L5.52,3.44A2.46,2.46,0,0,1,3.85,4.66L1,5.06c-.64.09-.78.53-.32,1L1,6.37C.65,6,.81,5.58,1.41,5.49Z"/><path id="パス_7" data-name="パス 7" class="cls-3" d="M10.91,12.9,8.35,11.54a2.44,2.44,0,0,0-2.08,0L3.71,12.9c-.4.21-.7.14-.81-.14l0,.12c-.11.64.26.91.83.6l2.56-1.36a2.44,2.44,0,0,1,2.08,0l2.56,1.36c.57.3.94,0,.83-.6l0-.12C11.61,13,11.31,13.11,10.91,12.9Z"/><path id="パス_8" data-name="パス 8" class="cls-4" d="M7.31.39c.19,0,.37.15.51.44L9.09,3.44a2.53,2.53,0,0,0,1.68,1.22l2.88.4c.64.09.78.52.32,1l-2.09,2a2.42,2.42,0,0,0-.64,2l.5,2.86c.08.46-.09.73-.41.73a.9.9,0,0,1-.42-.13L8.35,12.12a2.22,2.22,0,0,0-1-.23,2.22,2.22,0,0,0-1,.23L3.71,13.48a.9.9,0,0,1-.42.13c-.32,0-.49-.27-.41-.73L3.39,10a2.49,2.49,0,0,0-.64-2L.66,6c-.47-.44-.33-.88.31-1l2.88-.4A2.46,2.46,0,0,0,5.52,3.44L6.79.83c.14-.29.33-.44.52-.44m0-.39a1,1,0,0,0-.87.66L5.17,3.27a2.12,2.12,0,0,1-1.38,1l-2.87.4A1,1,0,0,0,0,5.29a1,1,0,0,0,.35,1l2.09,2A2.09,2.09,0,0,1,3,10l-.51,2.86a1.08,1.08,0,0,0,.18.92.78.78,0,0,0,.62.27,1.33,1.33,0,0,0,.61-.17l2.56-1.36a2,2,0,0,1,1.71,0l2.56,1.36a1.27,1.27,0,0,0,.61.17.82.82,0,0,0,.61-.27,1.08,1.08,0,0,0,.18-.92L11.62,10a2.09,2.09,0,0,1,.53-1.62l2.09-2a1,1,0,0,0,.35-1,1,1,0,0,0-.89-.62l-2.87-.4a2.08,2.08,0,0,1-1.38-1L8.18.65A1,1,0,0,0,7.31,0Z"/></g></g></svg>