<?xml version="1.0" encoding="utf-8"?>
<!-- Generator: Adobe Illustrator 23.0.0, SVG Export Plug-In . SVG Version: 6.00 Build 0)  -->
<svg version="1.1" id="グループ化_5" xmlns="http://www.w3.org/2000/svg" xmlns:xlink="http://www.w3.org/1999/xlink" x="0px"
	 y="0px" viewBox="0 0 14.6 14" style="enable-background:new 0 0 14.6 14;" xml:space="preserve">
<style type="text/css">
	.st0{fill:#FFCE00;}
	.st1{fill:#FFE36C;}
	.st2{fill:#FFB000;}
	.st3{fill:#6B1700;}
</style>
<path id="パス_4" class="st0" d="M6.8,0.8c0.3-0.6,0.7-0.6,1,0l1.3,2.6c0.4,0.6,1,1.1,1.7,1.2l2.9,0.4c0.6,0.1,0.8,0.5,0.3,1
	l-2.1,2c-0.5,0.5-0.7,1.3-0.6,2l0.5,2.9c0.1,0.6-0.3,0.9-0.8,0.6l-2.6-1.4c-0.7-0.3-1.4-0.3-2.1,0l-2.6,1.4c-0.6,0.3-0.9,0-0.8-0.6
	L3.4,10c0.1-0.7-0.1-1.4-0.6-2L0.7,6C0.2,5.6,0.3,5.1,1,5.1l2.9-0.4c0.7-0.1,1.3-0.6,1.7-1.2L6.8,0.8z"/>
<g>
	<path class="st1" d="M1.4,5.5l2.9-0.4C5,4.9,5.6,4.5,5.9,3.9l1.3-2.6c0.2-0.3,0.4-0.5,0.6-0.4l0,0c-0.3-0.6-0.7-0.6-1,0L5.5,3.4
		c-0.4,0.6-1,1.1-1.7,1.2L1,5.1C0.3,5.1,0.2,5.6,0.7,6L1,6.4C0.6,5.9,0.8,5.6,1.4,5.5z"/>
</g>
<path id="パス_7" class="st2" d="M10.9,12.9l-2.6-1.4c-0.7-0.3-1.4-0.3-2.1,0l-2.6,1.4C3.3,13.1,3,13,2.9,12.8l0,0.1
	c-0.1,0.6,0.3,0.9,0.8,0.6l2.6-1.4c0.7-0.3,1.4-0.3,2.1,0l2.6,1.4c0.6,0.3,0.9,0,0.8-0.6l0-0.1C11.6,13,11.3,13.1,10.9,12.9z"/>
<path id="パス_8" class="st3" d="M7.3,0.4c0.2,0,0.4,0.1,0.5,0.4l1.3,2.6c0.4,0.6,1,1.1,1.7,1.2l2.9,0.4c0.6,0.1,0.8,0.5,0.3,1
	l-2.1,2c-0.5,0.5-0.7,1.3-0.6,2l0.5,2.9c0.1,0.5-0.1,0.7-0.4,0.7c-0.1,0-0.3,0-0.4-0.1l-2.6-1.4c-0.3-0.2-0.7-0.2-1-0.2
	c-0.4,0-0.7,0.1-1,0.2l-2.6,1.4c-0.1,0.1-0.3,0.1-0.4,0.1c-0.3,0-0.5-0.3-0.4-0.7L3.4,10c0.1-0.7-0.1-1.4-0.6-2L0.7,6
	C0.2,5.6,0.3,5.1,1,5.1l2.9-0.4c0.7-0.1,1.3-0.6,1.7-1.2l1.3-2.6C6.9,0.5,7.1,0.4,7.3,0.4 M7.3,0C6.9,0,6.6,0.3,6.4,0.7L5.2,3.3
	c-0.3,0.5-0.8,0.9-1.4,1L0.9,4.7C0.5,4.7,0.2,4.9,0,5.3c-0.1,0.4,0,0.8,0.4,1l2.1,2C2.9,8.8,3.1,9.4,3,10l-0.5,2.9
	c-0.1,0.3,0,0.7,0.2,0.9C2.8,13.9,3.1,14,3.3,14c0.2,0,0.4-0.1,0.6-0.2l2.6-1.4c0.3-0.1,0.6-0.2,0.9-0.2c0.3,0,0.6,0.1,0.9,0.2
	l2.6,1.4c0.2,0.1,0.4,0.2,0.6,0.2c0.2,0,0.5-0.1,0.6-0.3c0.2-0.3,0.3-0.6,0.2-0.9L11.6,10c-0.1-0.6,0.1-1.2,0.5-1.6l2.1-2
	c0.3-0.2,0.4-0.6,0.4-1c-0.2-0.4-0.5-0.6-0.9-0.6l-2.9-0.4c-0.6-0.1-1.1-0.5-1.4-1L8.2,0.7C8,0.3,7.7,0,7.3,0L7.3,0z"/>
</svg>
