<?xml version="1.0" encoding="utf-8"?>
<!-- Generator: Adobe Illustrator 22.1.0, SVG Export Plug-In . SVG Version: 6.00 Build 0)  -->
<svg version="1.1" id="レイヤー_1" xmlns="http://www.w3.org/2000/svg" xmlns:xlink="http://www.w3.org/1999/xlink" x="0px"
	 y="0px" viewBox="0 0 118.6 45.3" style="enable-background:new 0 0 118.6 45.3;" xml:space="preserve">
<style type="text/css">
	.st0{fill:#202838;}
	.st1{fill:url(#SVGID_1_);}
	.st2{fill:url(#SVGID_2_);}
	.st3{fill:url(#SVGID_3_);}
	.st4{fill:url(#SVGID_4_);}
	.st5{fill:url(#SVGID_5_);}
	.st6{fill:url(#SVGID_6_);}
	.st7{fill:#F2F3F6;}
	.st8{fill:#BCC0CF;}
	.st9{fill:#4DBA87;}
	.st10{fill:#435466;}
</style>
<g>
	<path class="st0" d="M44.3,29.8l-5.4-14.6h3.3l2.7,8.2l0.7,2.3c0.1,0.2,0.1,0.3,0.1,0.3s0.1-0.1,0.1-0.3l0.7-2.3l2.7-8.2h3.3
		l-5.4,14.6H44.3z"/>
	<path class="st0" d="M58.5,29.8v-0.2c-0.6,0.3-1.4,0.6-2.2,0.6c-2.6,0-3.9-1.6-3.9-3.4V20h2.7v6.6c0,0.8,0.6,1.5,1.7,1.5
		c0.9,0,1.6-0.5,1.8-1.2V20h2.7v9.8H58.5z"/>
	<path class="st0" d="M72.1,29.2c-0.9,0.6-2.3,0.9-4,0.9c-3.4,0-5.4-2.1-5.4-5.2c0-2.9,1.7-5.3,5-5.3c3.4,0,4.9,2.3,4.9,5.1v0.7
		h-7.4v0.1c0,1.3,1.1,2.4,2.9,2.4c1.6,0,3.2-0.5,4-1.3V29.2z M70,23.5c-0.1-0.9-0.7-1.8-2.3-1.8c-1.4,0-2.2,0.9-2.4,1.8H70z"/>
	<path class="st0" d="M74.5,29.8V15.2h4.8c3.1,0,4.8,2.2,4.8,4.5c0,2.4-1.7,4.5-4.8,4.5h-2v5.6L74.5,29.8z M79.2,21.8
		c1.2,0,2-0.8,2-2.1c0-1-0.7-2-2-2h-1.8v4.1H79.2z"/>
	<path class="st0" d="M85.7,29.8V20h2.7v0.3c0.5-0.4,1.2-0.6,1.9-0.6h0.6v2.5c-0.2,0-0.5,0-0.8,0c-0.8,0-1.4,0.4-1.7,0.9v6.7H85.7z"
		/>
	<path class="st0" d="M101.4,29.2c-0.9,0.6-2.3,0.9-4,0.9C94,30.1,92,28,92,24.9c0-2.9,1.7-5.3,5-5.3c3.4,0,4.9,2.3,4.9,5.1v0.7
		h-7.4v0.1c0,1.3,1.1,2.4,2.9,2.4c1.6,0,3.2-0.5,4-1.3V29.2z M99.2,23.5c-0.1-0.9-0.7-1.8-2.3-1.8c-1.4,0-2.2,0.9-2.4,1.8H99.2z"/>
	<path class="st0" d="M103,26.7c1.1,0.8,2,1.3,3.3,1.3c0.8,0,1.3-0.5,1.3-1s-0.4-0.8-1.2-1.1l-0.6-0.2c-1.9-0.6-2.8-1.5-2.8-3
		c0-1.7,1.3-3,3.6-3c1.1,0,2,0.2,2.7,0.5v2.6c-1.1-0.6-1.9-0.9-2.7-0.9s-1.1,0.4-1.1,0.8s0.2,0.7,1,0.9l0.8,0.3
		c1.6,0.5,2.9,1.4,2.9,3.2c0,2-1.9,3.2-4,3.2c-1.2,0-2.1-0.2-3.2-0.7L103,26.7L103,26.7z"/>
	<path class="st0" d="M111.4,26.7c1.1,0.8,2,1.3,3.3,1.3c0.8,0,1.3-0.5,1.3-1s-0.4-0.8-1.2-1.1l-0.6-0.2c-1.9-0.6-2.8-1.5-2.8-3
		c0-1.7,1.3-3,3.6-3c1.1,0,2,0.2,2.7,0.5v2.6c-1.1-0.6-1.9-0.9-2.7-0.9s-1.1,0.4-1.1,0.8s0.2,0.7,1,0.9l0.8,0.3
		c1.6,0.5,2.9,1.4,2.9,3.2c0,2-1.9,3.2-4,3.2c-1.2,0-2.1-0.2-3.2-0.7L111.4,26.7L111.4,26.7z"/>
</g>
<g>
	
		<linearGradient id="SVGID_1_" gradientUnits="userSpaceOnUse" x1="10.0245" y1="36.3516" x2="18.4337" y2="8.7976" gradientTransform="matrix(1 0 0 -1 0 48)">
		<stop  offset="0" style="stop-color:#40465D"/>
		<stop  offset="1" style="stop-color:#1D212F"/>
	</linearGradient>
	<path class="st1" d="M30.3,35.5c0.2,0.5-0.1,1-0.6,1.2L7.1,41.5c-0.5,0.1-1.1-0.2-1.2-0.8L0,13.9c-0.1-0.5,0.2-1,0.7-1.1L20.3,10
		c0.5-0.1,1.1,0.3,1.2,0.7L30.3,35.5z"/>
	
		<linearGradient id="SVGID_2_" gradientUnits="userSpaceOnUse" x1="10.1853" y1="36.2564" x2="18.317" y2="9.44" gradientTransform="matrix(1 0 0 -1 0 48)">
		<stop  offset="0" style="stop-color:#616B8C"/>
		<stop  offset="1" style="stop-color:#2D3247"/>
	</linearGradient>
	<path class="st2" d="M30.2,35.2c0.2,0.5-0.1,1.1-0.6,1.2L7.2,41.2c-0.5,0.2-1-0.2-1.2-0.7L0.2,13.9c-0.1-0.5,0.2-1,0.7-1.1L20.5,10
		c0.5-0.1,1.1,0.3,1.2,0.7L30.2,35.2z"/>
	
		<linearGradient id="SVGID_3_" gradientUnits="userSpaceOnUse" x1="12.3116" y1="39.9449" x2="20.6651" y2="12.5731" gradientTransform="matrix(1 0 0 -1 0 48)">
		<stop  offset="0" style="stop-color:#84C98C"/>
		<stop  offset="1" style="stop-color:#1D6D4B"/>
	</linearGradient>
	<path class="st3" d="M32.1,31.9c0.2,0.5-0.1,1-0.6,1.1L9.8,37.7c-0.5,0.1-1-0.2-1.2-0.8L2.1,10.4c-0.1-0.5,0.2-1,0.7-1l19.4-2.9
		c0.5-0.1,1.1,0.3,1.2,0.8L32.1,31.9z"/>
	
		<linearGradient id="SVGID_4_" gradientUnits="userSpaceOnUse" x1="12.482" y1="39.8533" x2="20.5624" y2="13.2056" gradientTransform="matrix(1 0 0 -1 0 48)">
		<stop  offset="0" style="stop-color:#9BECA6"/>
		<stop  offset="1" style="stop-color:#2B9465"/>
	</linearGradient>
	<path class="st4" d="M32,31.5c0.2,0.5-0.1,1-0.6,1.1L9.9,37.4c-0.5,0.1-1-0.2-1.2-0.7L2.3,10.4C2.2,9.9,2.5,9.4,3,9.3l19.4-2.9
		c0.5-0.1,1.1,0.3,1.2,0.8L32,31.5z"/>
	
		<linearGradient id="SVGID_5_" gradientUnits="userSpaceOnUse" x1="15.0016" y1="42.8104" x2="22.9259" y2="16.231" gradientTransform="matrix(1 0 0 -1 0 48)">
		<stop  offset="0" style="stop-color:#E6E6E6"/>
		<stop  offset="1" style="stop-color:#C8CBCD"/>
	</linearGradient>
	<path class="st5" d="M34.3,28.5c0.2,0.5-0.1,1-0.6,1.1l-21.5,4.3c-0.5,0.1-1-0.2-1.2-0.7L4.3,7.6c-0.1-0.5,0.2-1,0.7-1l19.4-2.8
		c0.5-0.1,1.1,0.3,1.3,0.8L34.3,28.5z"/>
	<g>
		
			<linearGradient id="SVGID_6_" gradientUnits="userSpaceOnUse" x1="15.0031" y1="42.7887" x2="22.9294" y2="16.6494" gradientTransform="matrix(1 0 0 -1 0 48)">
			<stop  offset="0" style="stop-color:#FFFFFF"/>
			<stop  offset="1" style="stop-color:#F2F3F6"/>
		</linearGradient>
		<path class="st6" d="M34.2,28.2c0.2,0.5-0.1,1-0.6,1.1l-21.2,4.4c-0.5,0.1-1-0.2-1.2-0.7L4.5,7.6c-0.1-0.5,0.2-1,0.7-1l19.4-2.8
			c0.5-0.1,1.1,0.3,1.2,0.8L34.2,28.2z"/>
		<path class="st7" d="M24.7,3.9c0.4,0,0.8,0.3,1,0.7L34,28.3c0.1,0.2,0.1,0.4,0,0.6s-0.3,0.3-0.5,0.3l-21.2,4.4c-0.1,0-0.1,0-0.2,0
			c-0.4,0-0.7-0.3-0.8-0.6L4.6,7.6c0-0.2,0-0.4,0.1-0.6C4.8,6.8,5,6.7,5.2,6.7l19.4-2.8C24.6,3.9,24.7,3.9,24.7,3.9 M24.7,3.7h-0.1
			L5.2,6.5C4.7,6.6,4.4,7,4.5,7.5l6.7,25.3c0.1,0.4,0.5,0.7,1,0.7c0.1,0,0.1,0,0.2,0l21.2-4.4c0.5-0.1,0.8-0.6,0.6-1.1L25.8,4.5
			C25.7,4.1,25.2,3.7,24.7,3.7L24.7,3.7z"/>
	</g>
	<path class="st8" d="M17,28c-0.3,0-0.6-0.2-0.7-0.5l-1.4-4.9c-0.1-0.2,0-0.4,0.1-0.5c0.1-0.2,0.3-0.3,0.4-0.3l8.7-1.6
		c0.4-0.1,0.8,0.2,0.9,0.5l1.3,4.6c0.1,0.2,0,0.4-0.1,0.5c-0.1,0.2-0.3,0.3-0.4,0.3L17.2,28C17.1,28,17.1,28,17,28z M24.3,20.6
		L24.3,20.6l-8.8,1.6c-0.1,0-0.1,0-0.1,0.1c0,0,0,0.1,0,0.2l1.4,4.9c0,0.1,0.2,0.2,0.3,0.2l8.6-1.9c0.1,0,0.1,0,0.1-0.1
		c0,0,0-0.1,0-0.2l-1.3-4.6C24.5,20.7,24.4,20.6,24.3,20.6z"/>
	<g id="g10" transform="matrix(1.3333333,0,0,-1.3333333,0,400)">
		<g id="g12" transform="translate(178.0626,235.0086)">
			<path id="path14" class="st9" d="M-164.5,58l-0.6-1.7l-1.5,1.4l-3.7-0.5l6.7-6.4l2.4,7.8L-164.5,58z"/>
		</g>
		<g id="g16" transform="translate(178.0626,235.0086)">
			<path id="path18" class="st10" d="M-164.5,58l-0.6-1.7l-1.5,1.4l-1.7-0.3l4-3.5l1.5,4.4L-164.5,58z"/>
		</g>
	</g>
	<polygon class="st8" points="17.5,26.2 16.6,23.1 17.6,22.9 18.9,23.8 19.5,22.5 20.5,22.3 21.4,25.5 20.4,25.7 19.9,23.9 
		19.3,25.2 18,24.3 18.5,26 	"/>
	<polygon class="st8" points="22.2,22 22.7,23.7 21.8,23.8 23.6,25.1 24.6,23.3 23.6,23.5 23.1,21.8 	"/>
</g>
</svg>
