<?xml version="1.0" encoding="utf-8"?>
<!-- Generator: Adobe Illustrator 23.0.1, SVG Export Plug-In . SVG Version: 6.00 Build 0)  -->
<svg version="1.1" id="レイヤー_1" xmlns="http://www.w3.org/2000/svg" xmlns:xlink="http://www.w3.org/1999/xlink" x="0px"
	 y="0px" viewBox="0 0 118.6 37.8" style="enable-background:new 0 0 118.6 37.8;" xml:space="preserve">
<style type="text/css">
	.st0{fill:#202838;}
	.st1{fill:url(#SVGID_1_);}
	.st2{fill:url(#SVGID_2_);}
	.st3{fill:url(#SVGID_3_);}
	.st4{fill:url(#SVGID_4_);}
	.st5{fill:url(#SVGID_5_);}
	.st6{fill:url(#SVGID_6_);}
	.st7{fill:#F2F3F6;}
	.st8{fill:#BCC0CF;}
	.st9{fill:#4DBA87;}
	.st10{fill:#435466;}
</style>
<g>
	<path class="st0" d="M44.3,26.1l-5.4-14.6h3.3l2.7,8.2l0.7,2.3c0.1,0.2,0.1,0.3,0.1,0.3s0.1-0.1,0.1-0.3l0.7-2.3l2.7-8.2h3.3
		l-5.4,14.6H44.3z"/>
	<path class="st0" d="M58.5,26.1v-0.2c-0.6,0.3-1.4,0.6-2.2,0.6c-2.6,0-3.9-1.6-3.9-3.4v-6.8h2.7v6.6c0,0.8,0.6,1.5,1.7,1.5
		c0.9,0,1.6-0.5,1.8-1.2v-6.9h2.7v9.8H58.5z"/>
	<path class="st0" d="M72.1,25.5c-0.9,0.6-2.3,0.9-4,0.9c-3.4,0-5.4-2.1-5.4-5.2c0-2.9,1.7-5.3,5-5.3c3.4,0,4.9,2.3,4.9,5.1v0.7
		h-7.4v0.1c0,1.3,1.1,2.4,2.9,2.4c1.6,0,3.2-0.5,4-1.3V25.5z M70,19.8c-0.1-0.9-0.7-1.8-2.3-1.8c-1.4,0-2.2,0.9-2.4,1.8H70z"/>
	<path class="st0" d="M74.5,26.1V11.5h4.8c3.1,0,4.8,2.2,4.8,4.5c0,2.4-1.7,4.5-4.8,4.5h-2v5.6L74.5,26.1z M79.2,18.1
		c1.2,0,2-0.8,2-2.1c0-1-0.7-2-2-2h-1.8v4.1H79.2z"/>
	<path class="st0" d="M85.7,26.1v-9.8h2.7v0.3c0.5-0.4,1.2-0.6,1.9-0.6h0.6v2.5c-0.2,0-0.5,0-0.8,0c-0.8,0-1.4,0.4-1.7,0.9v6.7H85.7
		z"/>
	<path class="st0" d="M101.4,25.5c-0.9,0.6-2.3,0.9-4,0.9c-3.4,0-5.4-2.1-5.4-5.2c0-2.9,1.7-5.3,5-5.3c3.4,0,4.9,2.3,4.9,5.1v0.7
		h-7.4v0.1c0,1.3,1.1,2.4,2.9,2.4c1.6,0,3.2-0.5,4-1.3V25.5z M99.2,19.8c-0.1-0.9-0.7-1.8-2.3-1.8c-1.4,0-2.2,0.9-2.4,1.8H99.2z"/>
	<path class="st0" d="M103,23c1.1,0.8,2,1.3,3.3,1.3c0.8,0,1.3-0.5,1.3-1s-0.4-0.8-1.2-1.1l-0.6-0.2c-1.9-0.6-2.8-1.5-2.8-3
		c0-1.7,1.3-3,3.6-3c1.1,0,2,0.2,2.7,0.5v2.6c-1.1-0.6-1.9-0.9-2.7-0.9s-1.1,0.4-1.1,0.8s0.2,0.7,1,0.9l0.8,0.3
		c1.6,0.5,2.9,1.4,2.9,3.2c0,2-1.9,3.2-4,3.2c-1.2,0-2.1-0.2-3.2-0.7L103,23L103,23z"/>
	<path class="st0" d="M111.4,23c1.1,0.8,2,1.3,3.3,1.3c0.8,0,1.3-0.5,1.3-1s-0.4-0.8-1.2-1.1l-0.6-0.2c-1.9-0.6-2.8-1.5-2.8-3
		c0-1.7,1.3-3,3.6-3c1.1,0,2,0.2,2.7,0.5v2.6c-1.1-0.6-1.9-0.9-2.7-0.9s-1.1,0.4-1.1,0.8s0.2,0.7,1,0.9l0.8,0.3
		c1.6,0.5,2.9,1.4,2.9,3.2c0,2-1.9,3.2-4,3.2c-1.2,0-2.1-0.2-3.2-0.7L111.4,23L111.4,23z"/>
</g>
<g>
	
		<linearGradient id="SVGID_1_" gradientUnits="userSpaceOnUse" x1="10.0245" y1="555.224" x2="18.4337" y2="582.778" gradientTransform="matrix(1 0 0 1 0 -547.2756)">
		<stop  offset="0" style="stop-color:#40465D"/>
		<stop  offset="1" style="stop-color:#1D212F"/>
	</linearGradient>
	<path class="st1" d="M30.3,31.8c0.2,0.5-0.1,1-0.6,1.2L7.1,37.8C6.6,37.9,6,37.6,5.9,37L0,10.2c-0.1-0.5,0.2-1,0.7-1.1l19.6-2.8
		c0.5-0.1,1.1,0.3,1.2,0.7L30.3,31.8z"/>
	
		<linearGradient id="SVGID_2_" gradientUnits="userSpaceOnUse" x1="10.1853" y1="555.3192" x2="18.317" y2="582.1356" gradientTransform="matrix(1 0 0 1 0 -547.2756)">
		<stop  offset="0" style="stop-color:#616B8C"/>
		<stop  offset="1" style="stop-color:#2D3247"/>
	</linearGradient>
	<path class="st2" d="M30.2,31.5c0.2,0.5-0.1,1.1-0.6,1.2L7.2,37.5c-0.5,0.2-1-0.2-1.2-0.7L0.2,10.2c-0.1-0.5,0.2-1,0.7-1.1
		l19.6-2.8C21,6.2,21.6,6.6,21.7,7L30.2,31.5z"/>
	
		<linearGradient id="SVGID_3_" gradientUnits="userSpaceOnUse" x1="12.3116" y1="551.6307" x2="20.6651" y2="579.0024" gradientTransform="matrix(1 0 0 1 0 -547.2756)">
		<stop  offset="0" style="stop-color:#84C98C"/>
		<stop  offset="1" style="stop-color:#1D6D4B"/>
	</linearGradient>
	<path class="st3" d="M32.1,28.2c0.2,0.5-0.1,1-0.6,1.1L9.8,34c-0.5,0.1-1-0.2-1.2-0.8L2.1,6.7c-0.1-0.5,0.2-1,0.7-1l19.4-2.9
		c0.5-0.1,1.1,0.3,1.2,0.8L32.1,28.2z"/>
	
		<linearGradient id="SVGID_4_" gradientUnits="userSpaceOnUse" x1="12.4819" y1="551.7223" x2="20.5623" y2="578.37" gradientTransform="matrix(1 0 0 1 0 -547.2756)">
		<stop  offset="0" style="stop-color:#9BECA6"/>
		<stop  offset="1" style="stop-color:#2B9465"/>
	</linearGradient>
	<path class="st4" d="M32,27.8c0.2,0.5-0.1,1-0.6,1.1L9.9,33.7c-0.5,0.1-1-0.2-1.2-0.7L2.3,6.7C2.2,6.2,2.5,5.7,3,5.6l19.4-2.9
		c0.5-0.1,1.1,0.3,1.2,0.8L32,27.8z"/>
	
		<linearGradient id="SVGID_5_" gradientUnits="userSpaceOnUse" x1="15.0017" y1="548.7651" x2="22.926" y2="575.3445" gradientTransform="matrix(1 0 0 1 0 -547.2756)">
		<stop  offset="0" style="stop-color:#E6E6E6"/>
		<stop  offset="1" style="stop-color:#C8CBCD"/>
	</linearGradient>
	<path class="st5" d="M34.3,24.8c0.2,0.5-0.1,1-0.6,1.1l-21.5,4.3c-0.5,0.1-1-0.2-1.2-0.7L4.3,3.9c-0.1-0.5,0.2-1,0.7-1l19.4-2.8
		c0.5-0.1,1.1,0.3,1.3,0.8L34.3,24.8z"/>
	<g>
		
			<linearGradient id="SVGID_6_" gradientUnits="userSpaceOnUse" x1="15.0031" y1="548.7869" x2="22.9294" y2="574.9261" gradientTransform="matrix(1 0 0 1 0 -547.2756)">
			<stop  offset="0" style="stop-color:#FFFFFF"/>
			<stop  offset="1" style="stop-color:#F2F3F6"/>
		</linearGradient>
		<path class="st6" d="M34.2,24.5c0.2,0.5-0.1,1-0.6,1.1L12.4,30c-0.5,0.1-1-0.2-1.2-0.7L4.5,3.9c-0.1-0.5,0.2-1,0.7-1l19.4-2.8
			c0.5-0.1,1.1,0.3,1.2,0.8L34.2,24.5z"/>
		<path class="st7" d="M24.7,0.2c0.4,0,0.8,0.3,1,0.7L34,24.6c0.1,0.2,0.1,0.4,0,0.6s-0.3,0.3-0.5,0.3l-21.2,4.4c-0.1,0-0.1,0-0.2,0
			c-0.4,0-0.7-0.3-0.8-0.6L4.6,3.9c0-0.2,0-0.4,0.1-0.6C4.8,3.1,5,3,5.2,3l19.4-2.8C24.6,0.2,24.7,0.2,24.7,0.2 M24.7,0h-0.1
			L5.2,2.8c-0.5,0.1-0.8,0.5-0.7,1l6.7,25.3c0.1,0.4,0.5,0.7,1,0.7c0.1,0,0.1,0,0.2,0l21.2-4.4c0.5-0.1,0.8-0.6,0.6-1.1L25.8,0.8
			C25.7,0.4,25.2,0,24.7,0L24.7,0z"/>
	</g>
	<path class="st8" d="M17,24.3c-0.3,0-0.6-0.2-0.7-0.5l-1.4-4.9c-0.1-0.2,0-0.4,0.1-0.5c0.1-0.2,0.3-0.3,0.4-0.3l8.7-1.6
		c0.4-0.1,0.8,0.2,0.9,0.5l1.3,4.6c0.1,0.2,0,0.4-0.1,0.5c-0.1,0.2-0.3,0.3-0.4,0.3l-8.6,1.9C17.1,24.3,17.1,24.3,17,24.3z
		 M24.3,16.9L24.3,16.9l-8.8,1.6c-0.1,0-0.1,0-0.1,0.1c0,0,0,0.1,0,0.2l1.4,4.9c0,0.1,0.2,0.2,0.3,0.2l8.6-1.9c0.1,0,0.1,0,0.1-0.1
		c0,0,0-0.1,0-0.2l-1.3-4.6C24.5,17,24.4,16.9,24.3,16.9z"/>
	<g id="g10" transform="matrix(1.3333333,0,0,-1.3333333,0,400)">
		<g id="g12" transform="translate(178.0626,235.0086)">
			<path id="path14" class="st9" d="M-164.5,60.8l-0.6-1.7l-1.5,1.4l-3.7-0.5l6.7-6.4l2.4,7.8L-164.5,60.8z"/>
		</g>
		<g id="g16" transform="translate(178.0626,235.0086)">
			<path id="path18" class="st10" d="M-164.5,60.8l-0.6-1.7l-1.5,1.4l-1.7-0.3l4-3.5l1.5,4.4L-164.5,60.8z"/>
		</g>
	</g>
	<polygon class="st8" points="17.5,22.5 16.6,19.4 17.6,19.2 18.9,20.1 19.5,18.8 20.5,18.6 21.4,21.8 20.4,22 19.9,20.2 19.3,21.5 
		18,20.6 18.5,22.3 	"/>
	<polygon class="st8" points="22.2,18.3 22.7,20 21.8,20.1 23.6,21.4 24.6,19.6 23.6,19.8 23.1,18.1 	"/>
</g>
</svg>
