<?xml version="1.0" encoding="utf-8"?>
<!-- Generator: Adobe Illustrator 23.0.1, SVG Export Plug-In . SVG Version: 6.00 Build 0)  -->
<svg version="1.1" id="レイヤー_1" xmlns="http://www.w3.org/2000/svg" xmlns:xlink="http://www.w3.org/1999/xlink" x="0px"
	 y="0px" viewBox="0 0 501.5 204.6" style="enable-background:new 0 0 501.5 204.6;" xml:space="preserve">
<style type="text/css">
	.st0{opacity:0.1;enable-background:new    ;}
	.st1{fill:url(#SVGID_1_);}
	.st2{fill:url(#SVGID_2_);}
	.st3{fill:#333333;}
	.st4{opacity:0.3;fill:#FFFFFF;enable-background:new    ;}
	.st5{opacity:0.5;}
	.st6{fill:#FFFFFF;}
	.st7{fill:url(#SVGID_3_);}
</style>
<title>icon_jekyll</title>
<g id="レイヤー_2_1_">
	<g id="レイヤー_1-2">
		<path class="st0" d="M450.7,4.2c-0.1,0.4-0.1,0.8,0,1.2c0,0,1.3,8.3-0.2,12l-60.3,157c-4,11.8,2.3,24.5,14,28.6
			c11.2,3.8,23.3-1.6,28-12.5l60.3-157c1.2-3,7.9-9,7.9-9c0.3-0.3,0.6-0.6,0.8-0.9v-0.1c0-0.1,0.1-0.1,0.1-0.2
			c1.6-4-8.5-11.7-22.4-17s-26.5-6.5-28.1-2.4C450.7,4,450.7,4.1,450.7,4.2z"/>
		
			<linearGradient id="SVGID_1_" gradientUnits="userSpaceOnUse" x1="-708.9146" y1="1856.558" x2="-708.8246" y2="1856.538" gradientTransform="matrix(561.01 0 0 -1011.59 398121.7812 1878168.25)">
			<stop  offset="0" style="stop-color:#909090"/>
			<stop  offset="1" style="stop-color:#FFFFFF"/>
		</linearGradient>
		<path class="st1" d="M449,2.8c-0.1,0.4-0.1,0.8,0,1.2c0,0,1.3,8.3-0.2,12l-60.4,157c-4,11.8,2.3,24.5,14,28.6
			c11.2,3.8,23.3-1.6,28-12.5l60.3-157c1.2-3,7.9-9,7.9-9c0.3-0.3,0.6-0.6,0.8-0.9v-0.1c0-0.1,0.1-0.1,0.1-0.2
			c1.6-4-8.5-11.7-22.4-17S450.6-1.6,449,2.5C449.1,2.6,449,2.7,449,2.8L449,2.8z"/>
		
			<linearGradient id="SVGID_2_" gradientUnits="userSpaceOnUse" x1="-709.7186" y1="1857.3701" x2="-709.6386" y2="1857.3501" gradientTransform="matrix(373.69 0 0 -614.11 265626.5938 1140754.625)">
			<stop  offset="0" style="stop-color:#980000"/>
			<stop  offset="1" style="stop-color:#E70000"/>
		</linearGradient>
		<path class="st2" d="M468,73.8L424.4,187c-3.3,8.2-12.6,12.3-20.9,9.1c-8.3-3.2-12.7-12.7-9.7-20.9l27.8-72.4
			c2.7-3.9,6.2-7.2,10.3-9.6c6.9-4,12.4-3.1,20-6.5S468,73.8,468,73.8L468,73.8z"/>
		<path class="st3" d="M489.1,18.6c0.9-2.3-5.4-6.8-14-10.1c-8.6-3.3-16.2-4.2-17.1-1.9c-0.9,2.3,5.4,6.8,14,10.1
			C480.6,20,488.2,20.9,489.1,18.6L489.1,18.6z"/>
		<path class="st4" d="M448.5,4c0,0,1.3,8.3-0.2,12l-59.9,156.5c-4.3,11.5,1.5,24.3,12.9,28.7c1.9,0.8,3.9,1.2,6,1.4
			c-7.9-6-10.9-16.5-7.5-25.8l58.8-153.4C453.4,18.1,449.9,11.3,448.5,4z"/>
		<g class="st5">
			<ellipse class="st6" cx="429.3" cy="105" rx="1.8" ry="1.8"/>
			<ellipse class="st6" cx="440.7" cy="117.6" rx="2.6" ry="2.6"/>
			<ellipse class="st6" cx="423.2" cy="132.6" rx="5" ry="5"/>
			<ellipse class="st6" cx="415.3" cy="141.8" rx="2.6" ry="2.6"/>
			<ellipse class="st6" cx="425.7" cy="161.3" rx="1.8" ry="1.8"/>
		</g>
		<path class="st0" d="M118.2,95.3c2.6,2.2,7.4,0.9,10.7-2.6c3.4-3.7,3.9-8.5,1.3-10.7c-2.6-2.1-7.4-0.9-10.7,2.8
			C116,88.6,115.5,93.2,118.2,95.3L118.2,95.3z M110.2,102.2c-0.7,0-2,1.3-0.9,1.8c1.5,0.5,2.2,1.8,2.2,3.5
			c-1.3,7.3-10.4,15.6-13.9,18.5c-0.9,0.9,0.4,2.8,1.3,2.1c3.5-2.6,6.6-5.7,9.4-9.1c-5.5,12.2-16.2,28-20.4,33.6
			c-16.1,22.2-40.5,42.6-57.2,42.6c-13.3,0.2-24.8-9.3-27.2-22.4c-0.2-1.5-2.2-1.8-1.8,0.2c3,18.3,17.1,25.4,34.2,25.4
			c18.7,0,40.7-13.5,52.8-27.4c19.6-22.4,32.2-48.1,28.9-62.7C116.2,103,112.4,102.1,110.2,102.2L110.2,102.2z M230.6,151
			c5.2-1.3,9.4-4.1,9.4-8.6c0-0.5-0.9-0.5-0.9,0c0,2.6-3,4.9-6.5,5.4c-8,1.3-23.9-8.1-31.3-17.8c8,3,24.4-1.4,32.1-6.9
			c7.1-5.2,10-10.8,10.5-15.4c0.9-7.6-7.4-12.1-19.1-7.6c-7.4,3-16.4,9.6-25.7,21.9c9.8-16.1,29.1-42.5,48-59.3
			c23-20.4,36.3-16.5,15.7,5.2c-8.5,8.9-24.6,20.4-35.7,25.4c-3.4,1.5-1.8,3.4,0.7,2.3c11.8-5.2,27.4-15.8,36.9-24.7
			c28-26.9,4.6-47.1-26.4-18.7c-21.1,19.3-34.8,39.5-46.7,65.9c-4.1,5-7.1,9.1-10.9,12.2c-0.4,0.3-0.8,0.7-1.1,1.2
			c-10.3,8.8-26.4,20.7-36.5,20.8c-7.1,0.2-10.2-5.2-8.9-12.1c2-10.8,13.2-23.6,22.8-28c12.4-5.7,19.8,5.4,3.4,14.2
			c-6.3,3.2-13.7,5-16.8,5c-3.5,0-3.2,1.5-0.2,1.6c5,0.2,13-1.9,18.3-4.4c16.8-8,17.8-23-0.4-23.4c-19.8-0.7-43.5,16.1-43.3,37.3
			c0.2,9.6,7.8,14.8,18.3,14.8c17.5-0.2,33.1-13.5,45.9-25.2c1.9-1.6,3.6-3.2,5.4-5c-4.5,11.3-6.8,21.9-5.7,29.7
			c0.7,5.7,3.9,8.3,6.5,10.4c0.5,0.4,1.6,0,0.9-1.1c-3.7-4.4-2.6-17.6,2.4-30.4C196.3,144.1,213.1,155,230.6,151L230.6,151z
			 M209.6,114c20.5-18.3,28.5-2,15.5,8c-6.8,5.2-20.2,9.1-24.4,6.5l-0.9-0.5c-0.5-0.9-1.1-1.8-1.5-2.6
			C201.8,121.3,205.5,117.5,209.6,114L209.6,114z M323.4,93.2c8.2,0.9,4.8-9.1-3.5-6.6c-3.7,1.1-7.3,8.2-10,14.4
			c-8.2,12.2-21.9,28.9-31.5,37.7c-8.5,7.3-16.4,9.3-6.8-4.4c3.9-5.5,8.9-11.3,11.8-17.2c6.8-14.8-7.6-21.3-19.3-12.4
			c-6.8,5.2-15.9,15.8-23,21.7c-2,1.6-1.5,3.9,0.5,2.3c5.7-4.6,15.7-15.1,24.3-21.3c7.1-5.5,10-2,5.9,2.6
			c-5.7,6.6-15.7,18-18.2,25.2c-3.5,10.9,0.7,15.6,7.8,15.6c9.8,0,24.4-15.2,34.2-27.3c3.2-4.1,6.8-8.9,9.8-13.5
			c-8.5,16.5-17.4,33.2-28.5,48.3c-15.7,21.3-35.3,37.3-53.9,37.3c-13.4,0-25-9.1-27.4-22.4c-0.2-1.5-2-1.8-1.8,0.2
			c3,18.3,17.1,25.4,34.2,25.4c18.7,0,36.7-10.9,49.4-24.1c25.5-26.9,28.5-57,36.3-73.9C317.3,93.2,320.6,92.9,323.4,93.2
			L323.4,93.2z M427,67.4c3.7-6.4,3.5-11.4-5.2-11.4c-6.6,0.2-18.5,4.8-24.1,9.1c-1.3,1.3-0.7,2,0.9,1.3c1.1-0.4,2.4-1.1,3.5-1.6
			c6.3-3.4,3.7,3.7,2.4,6.3c-7.4,13-20.7,31.2-27.6,40.3c-3.3,4.4-6.9,8.7-10.7,12.7c-6.7,6.3-19.9,17.6-30,21.3
			c-32.4,12.1,8.9-43,12.3-47.5c7.6-9.6,24.8-26.3,30-34.7c3.7-6.3,3.5-11.3-5.2-11.3c-6.6,0.2-18.5,4.8-24.1,9.1
			c-1.3,1.3-0.7,2,0.9,1.3c1.1-0.4,2.4-1.1,3.5-1.6c6.3-3.4,3.7,3.7,2.4,6.3c-7.5,13-20.7,31.3-27.6,40.3
			c-5.7,7.6-12.6,15.2-18,19.5c-2.1,1.8-0.9,3.4,1.3,1.9c2-1.3,4.8-4.1,8-7.4c-5.9,11.7-10.7,28.2,4.8,30.2
			c13.2,1.8,28.9-11.6,39.1-21.6l3.6-3.6l0.9-0.9c-5.9,11.7-10.7,28.2,4.8,30.2c17,2.4,38-20.4,46.1-28.8c1.6-1.6,1.1-4.3-1.6-1.6
			c-4.8,5-21.1,19.7-32.8,24.1c-32.4,12.1,8.9-43,12.3-47.5C404.7,92.3,421.8,75.6,427,67.4L427,67.4z"/>
		
			<linearGradient id="SVGID_3_" gradientUnits="userSpaceOnUse" x1="-707.0522" y1="1856.766" x2="-707.0522" y2="1856.9659" gradientTransform="matrix(2127.1699 0 0 -798.93 1504234.125 1483617.5)">
			<stop  offset="0" style="stop-color:#1A1A1A"/>
			<stop  offset="0.4" style="stop-color:#4A4A4C"/>
			<stop  offset="1" style="stop-color:#333333"/>
		</linearGradient>
		<path class="st7" d="M116.4,93.6c2.7,2.1,7.4,0.9,10.7-2.6c3.4-3.7,3.9-8.5,1.3-10.6c-2.7-2.2-7.4-0.9-10.7,2.8
			C114.3,86.9,113.8,91.5,116.4,93.6L116.4,93.6z M108.6,100.6c-0.7,0-2,1.3-0.9,1.8c1.5,0.5,2.2,1.8,2.2,3.5
			c-1.3,7.3-10.4,15.6-13.9,18.5c-0.9,0.9,0.4,2.8,1.3,2.2c3.5-2.6,6.6-5.7,9.4-9.1c-5.5,12.2-16.3,28-20.4,33.6
			c-16.1,22.2-40.5,42.6-57.2,42.6c-13.3,0.2-24.8-9.3-27.2-22.4c-0.2-1.5-2.2-1.8-1.8,0.2c3,18.3,17.1,25.4,34.2,25.4
			c18.7,0,40.6-13.5,52.8-27.4c19.6-22.4,32.2-48.1,28.9-62.7C114.5,101.2,110.7,100.4,108.6,100.6L108.6,100.6z M228.9,149.3
			c5.2-1.3,9.4-4.1,9.4-8.6c0-0.5-0.9-0.5-0.9,0c0,2.6-3,4.9-6.5,5.4c-8,1.3-23.9-8.1-31.4-17.8c8,3,24.4-1.4,32.1-6.9
			c7.1-5.2,10-10.8,10.5-15.4c0.9-7.6-7.4-12.1-19.1-7.6c-7.4,3-16.4,9.6-25.7,21.9c9.8-16.1,29.1-42.5,48-59.3
			c23-20.4,36.3-16.5,15.7,5.2c-8.5,8.9-24.6,20.4-35.7,25.4c-3.4,1.5-1.8,3.4,0.7,2.3c11.7-5.2,27.4-15.8,36.9-24.7
			c28-26.9,4.6-47.1-26.3-18.7c-21,19.2-34.7,39.5-46.7,65.8c-4.1,5-7.1,9.1-10.9,12.2c-0.4,0.3-0.8,0.7-1.1,1.2
			c-10.3,8.8-26.4,20.7-36.5,20.8c-7.1,0.2-10.2-5.2-8.9-12.1c2-10.8,13.2-23.6,22.8-28c12.4-5.7,19.8,5.4,3.4,14.2
			c-6.3,3.2-13.7,5-16.8,5c-3.5,0-3.2,1.5-0.2,1.6c5,0.2,13-1.9,18.3-4.4c16.8-8,17.8-23-0.4-23.4c-19.8-0.7-43.5,16.1-43.3,37.3
			c0.2,9.6,7.8,14.8,18.3,14.8c17.5-0.2,33.1-13.5,45.9-25.2c1.9-1.6,3.6-3.2,5.4-5c-4.5,11.3-6.8,21.9-5.7,29.7
			c0.7,5.7,3.9,8.3,6.5,10.4c0.5,0.4,1.6,0,0.9-1.1c-3.7-4.4-2.6-17.6,2.4-30.4C194.7,142.4,211.5,153.2,228.9,149.3L228.9,149.3z
			 M207.8,112.2c20.5-18.3,28.5-2,15.5,8c-6.8,5.2-20.2,9.1-24.4,6.6l-0.9-0.5c-0.5-0.9-1.1-1.8-1.5-2.6
			C200,119.5,203.8,115.7,207.8,112.2L207.8,112.2z M321.6,91.5c8.2,0.9,4.8-9.1-3.5-6.6c-3.7,1.1-7.3,8.2-10,14.4
			c-8.2,12.2-21.9,28.9-31.5,37.7c-8.5,7.3-16.4,9.3-6.8-4.4c3.9-5.5,8.9-11.3,11.8-17.2c6.8-14.8-7.6-21.3-19.3-12.4
			c-6.8,5.2-15.9,15.8-23,21.7c-2,1.6-1.5,3.9,0.5,2.3c5.7-4.6,15.7-15.1,24.3-21.3c7.1-5.5,10-2,5.9,2.6
			c-5.7,6.6-15.7,18-18.2,25.2c-3.5,10.9,0.7,15.6,7.8,15.6c9.8,0,24.4-15.2,34.2-27.3c3.2-4.1,6.8-8.9,9.8-13.5
			c-8.5,16.5-17.4,33.2-28.5,48.3c-15.7,21.3-35.3,37.3-53.9,37.3c-13.4,0-25-9.1-27.4-22.4c-0.2-1.5-2-1.8-1.8,0.2
			c3,18.3,17.1,25.4,34.2,25.4c18.7,0,36.7-10.8,49.4-24.1c25.5-26.9,28.5-57,36.3-73.9C315.5,91.5,319,91.1,321.6,91.5L321.6,91.5z
			 M425.2,65.6c3.7-6.3,3.5-11.3-5.2-11.3c-6.6,0.2-18.5,4.8-24.1,9.1c-1.3,1.3-0.7,2,0.9,1.3c1.1-0.4,2.4-1.1,3.5-1.6
			c6.3-3.4,3.7,3.7,2.4,6.3c-7.4,13-20.7,31.3-27.6,40.3c-3.3,4.4-6.9,8.7-10.7,12.7c-6.7,6.4-19.9,17.6-30,21.3
			c-32.4,12.1,8.9-43,12.3-47.5c7.6-9.6,24.8-26.3,30-34.7c3.7-6.3,3.5-11.3-5.2-11.3c-6.6,0.2-18.5,4.8-24.1,9.1
			c-1.3,1.3-0.7,1.9,0.9,1.3c1.1-0.4,2.4-1.1,3.5-1.6c6.3-3.4,3.7,3.7,2.4,6.3c-7.5,13-20.7,31.2-27.6,40.3
			c-5.7,7.6-12.6,15.2-18,19.5c-2.1,1.8-0.9,3.4,1.3,2c2-1.3,4.8-4.1,8-7.4c-5.9,11.7-10.7,28.2,4.8,30.2
			c13.2,1.8,28.9-11.6,39.1-21.6l3.6-3.6l0.9-0.9c-5.9,11.7-10.7,28.2,4.8,30.2c17,2.4,38-20.4,46.1-28.8c1.6-1.6,1.1-4.3-1.6-1.6
			c-4.8,5-21.1,19.7-32.8,24.1c-32.4,12.1,8.9-43,12.3-47.5C403,90.6,420.1,73.9,425.2,65.6z"/>
	</g>
</g>
</svg>
