<?xml version="1.0" encoding="utf-8"?>
<!-- Generator: Adobe Illustrator 22.1.0, SVG Export Plug-In . SVG Version: 6.00 Build 0)  -->
<svg version="1.1" id="レイヤー_1" xmlns="http://www.w3.org/2000/svg" xmlns:xlink="http://www.w3.org/1999/xlink" x="0px"
	 y="0px" viewBox="0 0 112.7 50.5" style="enable-background:new 0 0 112.7 50.5;" xml:space="preserve">
<style type="text/css">
	.st0{fill:#0E1E25;}
	.st1{fill:url(#SVGID_1_);}
</style>
<g>
	<path class="st0" d="M47.3,18.5l0.1,1.6c1-1.3,2.3-1.9,3.9-1.9c2.8,0,4.2,1.7,4.2,5v9.2h-3v-9.1c0-0.9-0.2-1.5-0.5-2
		c-0.4-0.4-1-0.6-1.8-0.6c-1.2,0-2.1,0.6-2.7,1.7v10h-3v-14h2.8V18.5z M64.4,32.8c-1.9,0-3.4-0.6-4.6-1.9c-1.2-1.3-1.8-2.9-1.8-5
		v-0.4c0-1.4,0.3-2.6,0.8-3.7s1.2-2,2.2-2.6c0.9-0.6,2-0.9,3.1-0.9c1.8,0,3.2,0.6,4.2,1.8c1,1.2,1.5,2.9,1.5,5.2v1.3H61
		c0.1,1.2,0.5,2.1,1.1,2.7c0.6,0.7,1.5,1,2.4,1c1.4,0,2.5-0.6,3.3-1.7l1.6,1.6c-0.5,0.8-1.2,1.5-2.1,1.9
		C66.5,32.5,65.5,32.8,64.4,32.8L64.4,32.8z M64,20.8c-0.8,0-1.5,0.3-2,0.9c-0.5,0.6-0.8,1.4-1,2.5h5.7V24c-0.1-1.1-0.3-1.8-0.8-2.4
		C65.5,21.1,64.8,20.8,64,20.8z M75.8,15.1v3.4h2.3v2.3h-2.3v7.8c0,0.5,0.1,0.9,0.3,1.2c0.2,0.2,0.6,0.4,1.1,0.4c0.4,0,0.7,0,1-0.1
		v2.4c-0.7,0.2-1.3,0.3-2,0.3c-2.3,0-3.4-1.3-3.4-4v-7.9h-2.2v-2.3h2.2v-3.5H75.8L75.8,15.1z M83.6,32.5h-3V12.7h3V32.5z M90,32.5
		h-3v-14h3V32.5z M86.8,14.9c0-0.5,0.1-0.9,0.4-1.2s0.7-0.5,1.2-0.5s1,0.2,1.3,0.5s0.4,0.7,0.4,1.2s-0.1,0.9-0.4,1.2
		c-0.3,0.3-0.7,0.5-1.3,0.5c-0.5,0-1-0.2-1.2-0.5C87,15.8,86.8,15.4,86.8,14.9L86.8,14.9z M94.3,32.5V20.8h-2v-2.3h2v-1.3
		c0-1.6,0.4-2.7,1.2-3.6c0.8-0.8,2-1.3,3.4-1.3c0.5,0,1.1,0.1,1.7,0.2v2.6c-0.4-0.1-0.8-0.1-1.1-0.1c-1.4,0-2.1,0.8-2.1,2.3v1.2h2.7
		v2.3h-2.7v11.7H94.3L94.3,32.5z M106.8,28l2.7-9.5h3.2l-5.3,16.1c-0.8,2.4-2.2,3.5-4.1,3.5c-0.4,0-0.9-0.1-1.4-0.2v-2.4h0.6
		c0.8,0,1.3-0.1,1.7-0.4c0.4-0.3,0.7-0.8,0.9-1.5l0.4-1.2l-4.7-13.9h3.2L106.8,28z"/>
	
		<radialGradient id="SVGID_1_" cx="-1215.4971" cy="-21.2283" r="1.0014" gradientTransform="matrix(0 38.301 -44.1228 0 -917.4513 46560.8086)" gradientUnits="userSpaceOnUse">
		<stop  offset="0" style="stop-color:#20C6B7"/>
		<stop  offset="1" style="stop-color:#4D9ABF"/>
	</radialGradient>
	<path class="st1" d="M27.8,19.4L27.8,19.4C27.7,19.4,27.7,19.4,27.8,19.4c-0.1,0-0.1-0.1-0.1-0.1l0.8-4.7l3.6,3.6l-3.8,1.6l0,0l0,0
		l0,0C28.1,19.6,27.9,19.5,27.8,19.4z M33,19.1l3.9,3.9c0.8,0.8,1.2,1.2,1.4,1.7c0,0.1,0,0.1,0.1,0.2L29,21l0,0c0,0-0.1,0-0.1-0.1
		s0-0.1,0.1-0.1l0,0L33,19.1z M38.1,26.1c-0.2,0.4-0.6,0.8-1.2,1.4l-4.4,4.4l-5.7-1.2l0,0c0,0-0.1,0-0.1-0.1c0-0.5-0.3-0.9-0.7-1.2
		v-0.1l0,0l1.1-6.5l0,0c0,0,0-0.1,0.1-0.1c0.5-0.1,0.9-0.3,1.2-0.7l0,0h0.1L38.1,26.1L38.1,26.1z M31.5,32.9l-7.2,7.2l1.2-7.6l0,0
		l0,0c0,0,0,0,0.1,0l0,0c0.3-0.1,0.5-0.3,0.7-0.5l0.1-0.1l0,0L31.5,32.9L31.5,32.9z M22.8,41.6L22,42.4l-9-12.9l0,0c0,0,0,0,0-0.1
		l0,0l0,0l0.1-0.1l0,0l0,0c0,0,0,0,0.1-0.1h0.1l9.9,2h0.1l0,0c0.1,0.5,0.5,1,1,1.2c0,0,0,0,0,0.1l0,0C24.2,33.3,23.1,39.9,22.8,41.6
		z M21.1,43.3c-0.6,0.6-0.9,0.9-1.3,1s-0.8,0.1-1.2,0c-0.5-0.1-0.9-0.5-1.7-1.4l-9-9l2.3-3.6l0,0h0.1c0.5,0.2,1.1,0.1,1.6-0.1H12
		l0,0L21.1,43.3L21.1,43.3z M7,33.1l-2-2l4-1.8l0,0c0,0,0.1,0,0.1,0.1s0.1,0.1,0.1,0.2l0,0l0,0L7,33.1L7,33.1z M4.1,30.2l-2.6-2.6
		c-0.4-0.4-0.8-0.8-1-1l7.9,1.6l0,0c0,0,0.1,0,0.1,0.1l-0.1,0.1l0,0L4.1,30.2z M0,25.2c0-0.2,0-0.3,0.1-0.5c0.1-0.5,0.6-0.9,1.4-1.7
		l3.3-3.3c1.5,2.2,3.1,4.5,4.6,6.7c0,0,0.1,0.1,0,0.1C9.3,26.7,9.1,26.8,9,27c0,0,0,0-0.1,0.1l0,0l0,0L0,25.2L0,25.2z M5.7,18.8
		l4.5-4.5c0.4,0.2,2,0.8,3.3,1.4c1,0.4,2,0.8,2.3,1c0,0,0.1,0,0.1,0.1c0,0,0,0,0,0.1c-0.1,0.7,0.1,1.3,0.5,1.8v0.1l0,0l-4.6,7.1l0,0
		h-0.1c-0.2,0-0.4-0.1-0.5-0.1c-0.2,0-0.3,0-0.5,0.1l0,0c0,0,0,0-0.1,0c0,0,0,0,0-0.1L5.7,18.8L5.7,18.8z M11.1,13.4l5.8-5.8
		c0.8-0.8,1.2-1.2,1.7-1.4c0.4-0.1,0.8-0.1,1.2,0c0.5,0.1,0.9,0.5,1.7,1.4l1.3,1.3l-4.1,6.4l0,0h-0.1c-0.7-0.2-1.4-0.1-1.9,0.4h-0.1
		C15.9,15.4,11.7,13.6,11.1,13.4z M23.6,9.7l3.8,3.8l-0.9,5.7l0,0l0,0l0,0c-0.2,0.1-0.4,0.2-0.5,0.3l0,0l0,0l0,0l-6-2.4l0,0
		c0,0-0.1,0-0.1-0.1c0-0.3-0.1-0.6-0.3-0.9c0,0-0.1-0.1,0-0.1L23.6,9.7z M19.7,18.3l5.5,2.3c0,0,0.1,0,0.1,0.1c0,0,0,0,0,0.1
		s0,0.2,0,0.3l0,0c0,0,0,0.1-0.1,0.1l0,0c-0.9,0.4-12.1,5.2-12.1,5.2s0,0-0.1,0v-0.1l0,0l4.5-6.9l0,0l0.1-0.1l0,0c0.1,0,0.2,0,0.3,0
		c0.7,0,1.3-0.3,1.7-0.9C19.5,18.3,19.5,18.3,19.7,18.3C19.6,18.3,19.6,18.3,19.7,18.3z M13.4,27.5l12.3-5.2l0,0
		c0.1,0.1,0.1,0.1,0.2,0.2l0,0c0,0,0,0,0.1,0.1l0,0l-1.1,6.5l0,0c0,0,0,0.1-0.1,0.1c-0.6,0-1.1,0.4-1.4,0.8l0,0c0,0,0,0,0,0.1
		c0,0,0,0-0.1,0l-9.8-2C13.6,28,13.4,27.5,13.4,27.5z"/>
</g>
</svg>
