<?xml version="1.0" encoding="utf-8"?>
<!-- Generator: Adobe Illustrator 23.0.1, SVG Export Plug-In . SVG Version: 6.00 Build 0)  -->
<svg version="1.1" id="レイヤー_1" xmlns="http://www.w3.org/2000/svg" xmlns:xlink="http://www.w3.org/1999/xlink" x="0px"
	 y="0px" viewBox="0 0 469 132.2" style="enable-background:new 0 0 469 132.2;" xml:space="preserve">
<style type="text/css">
	.st0{opacity:0.54;enable-background:new    ;}
	.st1{fill:url(#path-2_2_);}
	.st2{fill:#FFA000;}
	.st3{fill:#F57C00;}
	.st4{fill:#FFCA28;}
	.st5{fill:#FFFFFF;fill-opacity:0.2;}
	.st6{opacity:0.2;fill:#A52714;enable-background:new    ;}
	.st7{fill:url(#path-4_2_);}
</style>
<title>logo_lockup_firebase_horizontal</title>
<desc>Created with Sketch.</desc>
<g>
	<path id="Shape" class="st0" d="M140.8,100.6H132V32.9h39.8v8.3h-31.1v22.2h28v8.1h-28v29.1H140.8z M188.3,42.6
		c-2.1,2.1-5.4,2.4-7.8,0.8c-2.5-1.6-3.4-4.8-2.3-7.5s4-4.3,6.9-3.7c2.9,0.6,5,3.1,5,6C190.2,39.9,189.5,41.5,188.3,42.6L188.3,42.6
		z M188.3,100.6h-8.8V54.3h8.8V100.6z M207.6,100.6h-8.8V54.3h8.4v7.6h0.4c1-2.7,3-4.9,5.5-6.2c2.4-1.5,5.2-2.4,8.1-2.5
		c2.2-0.1,4.5,0.3,6.6,1.1l-3.3,8.1c-1.5-0.5-3.1-0.7-4.7-0.7c-3.2,0-6.3,1.4-8.4,3.7c-2.4,2.5-3.7,5.8-3.7,9.8L207.6,100.6z
		 M251.7,102.1c-7.1,0-12.8-2.3-17.2-7c-4.4-4.7-6.6-10.6-6.6-17.7c-0.1-6.4,2.2-12.6,6.4-17.4c4.1-4.8,10.1-7.5,16.4-7.3
		c6.9,0,12.5,2.2,16.6,6.7s6.2,10.5,6.2,18l-0.1,1.6h-36.9c0.3,4.7,1.8,8.4,4.7,11.1c2.7,2.6,6.4,4.1,10.2,4.1
		c6.3,0,10.5-2.6,12.8-7.9l7.8,3.2c-1.6,3.7-4.2,6.8-7.5,9C261.1,100.9,256.8,102.1,251.7,102.1z M264.3,71.8
		c-0.2-2.7-1.4-5.2-3.7-7.6c-2.3-2.4-5.6-3.6-10.1-3.5c-3.1-0.1-6.1,1-8.4,3c-2.5,2.1-4.2,5-4.9,8.1H264.3z M305.4,102.1
		c-3.3,0.1-6.6-0.7-9.5-2.2c-2.6-1.3-4.8-3.3-6.3-5.7h-0.4v6.4h-8.4V32.9h8.8v21.4l-0.4,6.4h0.4c1.6-2.4,3.8-4.4,6.3-5.7
		c2.9-1.5,6.2-2.3,9.5-2.3c6,0,11.3,2.4,15.6,7.1c4.4,4.7,6.6,10.6,6.6,17.6S325.4,90.3,321,95C316.6,99.8,311.4,102.1,305.4,102.1z
		 M303.9,94.1c4,0,7.8-1.6,10.5-4.6c2.9-3.1,4.4-7.1,4.4-12.2c0-5-1.5-9.1-4.4-12.2c-2.7-2.9-6.5-4.6-10.5-4.6s-7.8,1.6-10.5,4.5
		c-2.9,3-4.3,7.1-4.3,12.2s1.5,9.2,4.4,12.2C296.1,92.6,300,94.2,303.9,94.1L303.9,94.1z M349.9,102.1c-5,0-9.1-1.4-12.4-4.3
		c-3.3-2.8-5-6.6-5-11.3c0-5,2-9,5.9-11.9s8.8-4.3,14.6-4.3c5.1,0,9.4,0.9,12.7,2.8v-1.3c0.1-3.1-1.2-6.1-3.5-8.2
		c-2.4-2.1-5.5-3.1-8.7-3c-2.4,0-4.8,0.6-6.9,1.8c-2,1.1-3.5,2.8-4.2,4.9l-8-3.4c1.1-2.8,3.2-5.4,6.4-7.7c3.2-2.4,7.4-3.6,12.6-3.5
		c6,0,10.9,1.7,14.9,5.2c4,3.4,5.9,8.3,5.9,14.7v28.1h-8.4v-6.4h-0.4C361.8,99.5,356.6,102.1,349.9,102.1L349.9,102.1z M351.3,94.1
		c3.7,0,7.2-1.4,9.9-4c2.8-2.4,4.5-5.8,4.5-9.5c-2.5-2-6.2-3-11.2-3c-4.3,0-7.5,0.9-9.6,2.7c-2,1.5-3.2,3.9-3.2,6.4
		c0,2.2,1.1,4.2,3,5.4C346.6,93.5,349,94.2,351.3,94.1L351.3,94.1z M399.9,102.1c-5.2,0-9.5-1.3-12.9-3.8c-3.3-2.4-5.9-5.7-7.4-9.5
		l7.8-3.2c2.5,5.8,6.7,8.7,12.7,8.7c2.4,0.1,4.7-0.5,6.7-1.8c1.6-1,2.6-2.8,2.6-4.7c0-3-2.1-5.1-6.4-6.2l-9.4-2.3
		c-3.1-0.8-6-2.3-8.5-4.3c-2.6-2-4.1-5.2-4-8.6c0-4.1,1.8-7.4,5.5-10c3.8-2.6,8.4-3.9,13-3.8c3.9-0.1,7.7,0.9,11.1,2.8
		c3.2,1.8,5.6,4.6,7,8l-7.6,3.1c-1.7-4.1-5.3-6.2-10.7-6.2c-2.3-0.1-4.6,0.5-6.6,1.6c-1.6,0.8-2.7,2.5-2.7,4.4
		c0,2.7,2.1,4.5,6.2,5.4l9.2,2.2c4.4,1,7.6,2.7,9.7,5.2c2,2.3,3.2,5.3,3.1,8.3c0,4.1-1.9,7.9-5.1,10.4
		C409.7,100.7,405.3,102.1,399.9,102.1L399.9,102.1z M447.1,102.1c-7.1,0-12.8-2.3-17.2-7s-6.6-10.6-6.6-17.7
		c-0.1-6.4,2.2-12.6,6.4-17.4c4.1-4.8,10.2-7.4,16.5-7.3c7,0,12.5,2.2,16.6,6.7s6.2,10.5,6.2,18l-0.1,1.6H432
		c0.3,4.7,1.8,8.4,4.7,11.1c2.7,2.6,6.4,4.1,10.2,4.1c6.3,0,10.5-2.6,12.8-7.9l7.8,3.2c-1.6,3.7-4.2,6.8-7.5,9
		C456.4,100.9,452.1,102.1,447.1,102.1L447.1,102.1z M459.6,71.8c-0.2-2.7-1.4-5.2-3.7-7.6c-2.3-2.4-5.6-3.6-10.1-3.5
		c-3.1-0.1-6.1,1-8.4,3c-2.5,2.1-4.2,5-4.9,8.1H459.6z"/>
	<g id="_Clip_Group_" transform="translate(23.833333, 5.958333)">
		<g id="_Path_3">
			
				<linearGradient id="path-2_2_" gradientUnits="userSpaceOnUse" x1="-569.9221" y1="-37.9719" x2="-568.8789" y2="-37.2131" gradientTransform="matrix(95.3333 0 0 131.0572 54306.2148 4992.9043)">
				<stop  offset="0" style="stop-color:#FFFFFF;stop-opacity:0.1"/>
				<stop  offset="0.14" style="stop-color:#FFFFFF;stop-opacity:8.000000e-02"/>
				<stop  offset="0.61" style="stop-color:#FFFFFF;stop-opacity:2.000000e-02"/>
				<stop  offset="1" style="stop-color:#FFFFFF;stop-opacity:0"/>
			</linearGradient>
			<path id="path-2_1_" class="st1" d="M60,23.4c-0.2-1.1-1-2-2-2.3c-1.1-0.3-2.2-0.1-3,0.7L39.5,37.3L27.3,14.1
				c-0.5-1-1.5-1.6-2.6-1.6s-2.1,0.6-2.6,1.6l-6.7,12.7L-1.3-4.3C-1.9-5.4-3.2-6-4.4-5.8c-1.3,0.2-2.2,1.2-2.4,2.5L-23,99.9
				l43.1,24.2c2.7,1.5,6,1.5,8.7,0l43.5-24.2L60,23.4z"/>
		</g>
		<g id="_Group_2">
			<g transform="translate(-5.958333, 0.000000)">
				<path id="_Path_" class="st2" d="M-17,99.9L-0.9-3.4c0.2-1.3,1.2-2.3,2.4-2.5C2.8-6.1,4-5.5,4.6-4.4l16.7,31.1L28,14.1
					c0.5-1,1.5-1.6,2.6-1.6s2.1,0.6,2.6,1.6l45,85.7H-17V99.9z"/>
				<g id="_Group_3" transform="translate(0.000000, 26.067708)">
					<polygon id="Shape_1_" class="st3" points="38.7,33.6 21.3,0.7 -17,73.8 					"/>
				</g>
			</g>
		</g>
		<g id="_Group_4">
			<g transform="translate(-2.979167, 20.109375)">
				<path id="Shape_2_" class="st4" d="M75.3,79.8L63,3.3c-0.2-1.1-1-2-2-2.3c-1.1-0.3-2.2-0.1-3,0.7l-78,78.1L23.1,104
					c2.7,1.5,6,1.5,8.7,0L75.3,79.8z"/>
			</g>
		</g>
		<path id="_Compound_Path_" class="st5" d="M60,23.4c-0.2-1.1-1-2-2-2.3c-1.1-0.3-2.2-0.1-3,0.7L39.5,37.3L27.3,14.1
			c-0.5-1-1.5-1.6-2.6-1.6s-2.1,0.6-2.6,1.6l-6.7,12.7L-1.3-4.3C-1.9-5.4-3.2-6-4.4-5.8c-1.3,0.2-2.2,1.2-2.4,2.5L-23,99.9h-0.1
			l0.1,0.1l0.4,0.2l62-62.1l15.5-15.5c0.8-0.8,2-1.1,3-0.7c1.1,0.3,1.8,1.2,2,2.3L72.2,100l0.1-0.1L60,23.4z M-22.9,99.7l16-102.3
			c0.2-1.3,1.2-2.3,2.4-2.5C-3.2-5.3-2-4.7-1.4-3.6l16.7,31.1L22,14.9c0.5-1,1.5-1.6,2.6-1.6s2.1,0.6,2.6,1.6l11.9,22.7L-22.9,99.7z
			"/>
		<path id="_Path_2" class="st6" d="M28.8,123.3c-2.7,1.5-6,1.5-8.7,0l-43-24.1l-0.1,0.7l43.1,24.2c2.7,1.5,6,1.5,8.7,0l43.5-24.2
			l-0.1-0.7L28.8,123.3z"/>
	</g>
	
		<linearGradient id="path-4_2_" gradientUnits="userSpaceOnUse" x1="-522.235" y1="-37.9705" x2="-521.1918" y2="-37.2117" gradientTransform="matrix(95 0 0 131 49610 4996.5293)">
		<stop  offset="0" style="stop-color:#FFFFFF;stop-opacity:0.1"/>
		<stop  offset="0.14" style="stop-color:#FFFFFF;stop-opacity:8.000000e-02"/>
		<stop  offset="0.61" style="stop-color:#FFFFFF;stop-opacity:2.000000e-02"/>
		<stop  offset="1" style="stop-color:#FFFFFF;stop-opacity:0"/>
	</linearGradient>
	<path id="path-4_1_" class="st7" d="M83.7,29.4c-0.2-1.1-1-2-2-2.3c-1.1-0.3-2.2-0.1-3,0.7L63.2,43.3L51.1,20.1
		c-0.5-1-1.5-1.6-2.6-1.6s-2.1,0.6-2.6,1.6l-6.6,12.7L22.6,1.7C22,0.6,20.7,0,19.5,0.2c-1.3,0.2-2.2,1.2-2.4,2.5L1,105.8L44,130
		c2.7,1.5,6,1.5,8.7,0L96,105.8L83.7,29.4z"/>
</g>
</svg>
