<svg xmlns="http://www.w3.org/2000/svg" viewBox="0 0 129.58 129.58"><defs><style>.cls-1{fill:#31c3ee;}.cls-2{fill:#14141d;}</style></defs><title>icon_psd</title><g id="レイヤー_2" data-name="レイヤー 2"><g id="レイヤー_1-2" data-name="レイヤー 1"><rect class="cls-1" width="129.58" height="129.58"/><rect class="cls-2" x="5.68" y="5.68" width="118.22" height="118.22"/><path class="cls-1" d="M48.43,33.19H30.08v61h9.1V72.42H47.5C60,72.42,66.92,64.67,66.92,52S56.63,33.19,48.43,33.19ZM47.09,63.7H39.93V42.25h7.16c3,0,10.29,1.4,10.29,10.72S50.07,63.7,47.09,63.7Z"/><path class="cls-1" d="M89.11,68.25c-.46-.23-.91-.47-1.33-.7-4.17-2.26-5.94-4.09-5.94-6.13,0-1,0-3.7,5.55-3.7,3.68,0,8.36,2.43,9.86,3.36V49.93a26.73,26.73,0,0,0-9.86-2.21c-9.3,0-15.55,5.51-15.55,13.7C71.84,70.28,80,74.68,83,76.34l1.5.79c3.69,1.91,5,2.84,5,4.26,0,2.28-.9,5-5.22,5S73.91,83.3,72,82.11V93.36a31.81,31.81,0,0,0,12.28,3c9,0,15.22-6.17,15.22-15C99.5,73.64,93,70.27,89.11,68.25Z"/></g></g></svg>