<?xml version="1.0" encoding="utf-8"?>
<!-- Generator: Adobe Illustrator 22.1.0, SVG Export Plug-In . SVG Version: 6.00 Build 0)  -->
<svg version="1.1" id="レイヤー_1" xmlns="http://www.w3.org/2000/svg" xmlns:xlink="http://www.w3.org/1999/xlink" x="0px"
	 y="0px" viewBox="0 0 112.7 45" style="enable-background:new 0 0 112.7 45;" xml:space="preserve">
<style type="text/css">
	.st0{fill:#FFFFFF;}
	.st1{fill:#663399;}
</style>
<g>
	<g>
		<path d="M66.8,20.4h3V31h-3v-1.4c-1.1,1.6-2.4,1.7-3.3,1.7c-3.3,0-5.4-2.5-5.4-5.6c0-3.2,2.1-5.6,5.2-5.6c0.8,0,2.4,0.1,3.4,1.7
			v-1.4H66.8z M61.3,25.7c0,1.7,1.2,3,3,3c1.7,0,3-1.3,3-3c0-1.7-1.2-3-3-3C62.6,22.7,61.3,24,61.3,25.7z"/>
		<path d="M75.6,22.9V31h-3v-8.1h-1.2v-2.5h1.2v-3.6h3v3.6h2v2.5H75.6z"/>
		<path d="M84.7,22.9c-0.7-0.6-1.4-0.7-1.7-0.7c-0.7,0-1.2,0.3-1.2,0.8c0,0.3,0.1,0.6,1,1l0.7,0.2c0.8,0.3,2.1,0.6,2.7,1.5
			c0.3,0.4,0.5,1.1,0.5,1.8c0,1-0.3,1.9-1.2,2.7c-0.8,0.7-1.9,1.2-3.2,1.2c-2.2,0-3.4-1.1-4.1-1.8l1.6-1.8c0.6,0.6,1.5,1.3,2.3,1.3
			c0.8,0,1.5-0.4,1.5-1.2c0-0.6-0.5-1-1-1.1L82,26.5c-0.7-0.3-1.6-0.6-2.2-1.3c-0.5-0.5-0.8-1.2-0.8-2c0-1.1,0.5-1.9,1.1-2.4
			c0.8-0.6,1.9-0.7,2.8-0.7c0.7,0,2,0.1,3.4,1.2L84.7,22.9z"/>
		<path d="M91.1,21.8c1.1-1.5,2.5-1.7,3.4-1.7c3.1,0,5.2,2.4,5.2,5.6s-2.1,5.6-5.3,5.6c-0.6,0-2.2-0.1-3.4-1.7V31h-2.9V13.2h3V21.8z
			 M90.8,25.7c0,1.7,1.2,3,3,3c1.7,0,3-1.3,3-3c0-1.7-1.2-3-3-3C92,22.7,90.8,24,90.8,25.7z"/>
		<path d="M104.6,29.4l-5.1-9h3.5l3.3,6.1l3-6.1h3.4l-8.5,16.3h-3.4L104.6,29.4z"/>
		<path d="M57.4,22.2h-3h-4.5v3h3.9c-0.6,2-2.1,3.4-4.9,3.4c-3.1,0-5.3-2.5-5.3-5.6s2.1-5.7,5.2-5.7c1.7,0,3.4,0.8,4.5,2.2l2.4-1.6
			c-1.6-2.2-4.1-3.5-6.9-3.5c-4.7,0-8.5,3.8-8.5,8.6s3.6,8.6,8.5,8.6s8.5-3.8,8.5-8.6C57.5,22.6,57.4,22.4,57.4,22.2z"/>
	</g>
	<g>
		<g>
			<path class="st0" d="M26.6,22.5h-7.4v2.1h5.1c-0.7,3.2-3.1,5.8-6.2,6.9L5.8,19.3c1.3-3.7,4.9-6.4,9-6.4c3.2,0,6.1,1.6,7.9,4
				l1.6-1.4c-2.1-2.9-5.5-4.8-9.5-4.8c-5.5,0-10.2,3.9-11.4,9.1l14,14C22.6,32.7,26.6,28,26.6,22.5z"/>
			<path class="st0" d="M3.2,22.6c0,3,1.2,5.8,3.4,8.1s5.2,3.4,8.1,3.4L3.2,22.6z"/>
		</g>
		<path class="st1" d="M14.9,7.6C6.7,7.6,0,14.3,0,22.5s6.7,14.9,14.9,14.9s14.9-6.7,14.9-14.9S23,7.6,14.9,7.6z M6.6,30.8
			c-2.2-2.2-3.4-5.2-3.4-8.1l11.6,11.5C11.8,34.1,8.8,33,6.6,30.8z M17.4,33.9L3.5,20c1.2-5.2,5.8-9.1,11.4-9.1
			c3.9,0,7.3,1.9,9.5,4.8L22.7,17c-1.8-2.4-4.7-4-7.9-4c-4.1,0-7.6,2.7-9,6.4l12.2,12.2c3.1-1.1,5.4-3.7,6.2-6.9h-5.1v-2.1h7.4
			C26.6,28,22.6,32.7,17.4,33.9z"/>
	</g>
</g>
</svg>
