<?xml version="1.0" encoding="utf-8"?>
<!-- Generator: Adobe Illustrator 22.1.0, SVG Export Plug-In . SVG Version: 6.00 Build 0)  -->
<svg version="1.1" id="レイヤー_1" xmlns="http://www.w3.org/2000/svg" xmlns:xlink="http://www.w3.org/1999/xlink" x="0px"
	 y="0px" viewBox="0 0 299.1 250" style="enable-background:new 0 0 299.1 250;" xml:space="preserve">
<style type="text/css">
	.st0{fill:#217599;}
	.st1{fill:#464646;}
</style>
<title>icon_wordpress</title>
<g id="レイヤー_2_1_">
	<g id="レイヤー_1-2">
		<g id="layer1">
			<g id="g4207">
				<path id="path4187" class="st0" d="M105.9,199.6c3.1-3.6,0.9-8.4-4.2-9.1l-2.8-0.4v11.7l2.8-0.3
					C103.3,201.5,104.9,200.8,105.9,199.6z M140.2,212.2c3.3-1.7,4.8-5,4.8-10.5c0-4.1-1.9-8.2-4.5-9.7c-1.8-0.8-3.6-1.3-5.5-1.4
					l-3.8-0.4v11.1c0,10,0.1,11.2,1.1,11.8C133.5,213.8,138.1,213.3,140.2,212.2z M86.9,215.5c0-0.9,0.4-1.2,1.8-1.2
					c3.2,0,3.6-1.4,3.6-12.4c0-8.9-0.1-9.9-1.2-10.9c-0.7-0.7-1.7-1.1-2.7-1.2c-1.1,0-1.5-0.3-1.5-1.2c0-1.2,0.2-1.2,10-1
					c9,0.2,10.3,0.3,12.6,1.6c3.9,1.9,5.5,6.7,3.6,10.6c-0.7,1.4-1.7,2.5-3,3.3c-1,0.6-2,1.1-3.2,1.2c-1.4,0,6.4,8,9.1,9.3
					s6.5,1.2,7.5-0.1c0.6-0.8,0.8-3.5,0.8-11.4c0-9.6-0.1-10.5-1.2-11.3c-0.9-0.5-1.8-0.8-2.8-0.9c-1.3,0-1.7-0.3-1.7-1.2
					c0-1.1,0.4-1.2,9.5-1.2c10.6,0,15.2,0.8,19,3.5c7.4,5.1,7.2,17.6-0.4,22.7c-4.1,2.8-7.2,3.2-23.1,3.2h-14.2l-4.7-6
					c-2.6-3.3-5-6-5.2-6s-0.5,1.6-0.5,3.5c0,4.2,1.1,6.1,3.6,6.1c1.4,0,1.8,0.3,1.8,1.2c0,1.1-0.4,1.2-8.7,1.2
					S86.9,216.6,86.9,215.5L86.9,215.5z M74.2,212.7c5.9-4.3,5.8-17.1,0-21.3c-2.6-1.9-7.8-2.1-10.6-0.6c-3.1,1.7-5.4,6.4-5.4,11.2
					s2.3,9.6,5.4,11.3C66.3,214.7,71.8,214.4,74.2,212.7L74.2,212.7z M63.8,217.3c-5.3-1.4-10.8-6.3-12.2-10.7
					c-2.3-7.6,1.5-15.3,9.5-18.9c3.9-1.8,10.6-1.7,14.9,0.2c3.4,1.5,7.6,5.6,8.9,8.8c1.2,2.9,1.1,8.5-0.3,11.4s-5.8,7.1-8.9,8.4
					C73.1,217.5,66.4,218,63.8,217.3L63.8,217.3z M12.6,202.4c-6.4-20-7-21.1-11.1-21.1c-1.1,0-1.5-0.3-1.5-1.2
					c0-1.1,0.4-1.2,9.6-1.2s9.6,0.1,9.6,1.2c0,0.9-0.4,1.2-1.8,1.2c-1.6,0-3.6,1.3-3.6,2.3c0,0.2,1.4,4.8,3.1,10.2
					c2.3,7.4,3.2,9.5,3.7,8.8c0.3-0.6,2.2-6,4.3-12.2c5-15.1,4.9-15.1,9.9,0.4c2.1,6.5,4,12.1,4.2,12.3s1.8-4,3.6-9.5
					c3.6-11,3.6-11.8-0.2-12.1c-1.7-0.1-2.2-0.4-2.2-1.4c0-1.1,0.5-1.2,8.4-1.2s8.4,0.1,8.4,1.2c0,1-0.4,1.2-2.1,1.2
					c-4,0-4.8,1.6-11,20c-4.3,12.8-5.8,16.6-6.5,16.5s-2.2-4-4.8-12.2c-2.1-6.6-4-12.2-4.3-12.4s-2.2,5.2-4.6,12.1
					c-3.1,9.3-4.4,12.6-5.1,12.6S16.4,214,12.6,202.4L12.6,202.4z"/>
				<path id="path4179" class="st1" d="M204.6,200.8c4.4-1.9,4-8.6-0.7-9.9c-5-1.4-5-1.4-5,5.1v5.7h1.8
					C202.1,201.6,203.4,201.3,204.6,200.8z M187,215.5c0-0.9,0.4-1.2,1.8-1.2c1,0,1.9-0.3,2.6-0.9c1.2-1.2,1.8-7.6,1.4-15.1
					c-0.4-6.9-1.1-8.6-4.1-8.6c-1.3,0-1.7-0.3-1.7-1.3c0-1.2,0.2-1.2,10.3-1c10.9,0.2,11.8,0.4,15,3.4c4.1,3.9,1.9,11.8-3.7,13
					l-1.8,0.4l2.8,3.3c5.4,6.2,10.9,8.5,13,5.5c0.8-1.1,0.9-3.2,0.9-11.1c0-8.9-0.1-9.9-1.2-10.9c-0.7-0.7-1.7-1.1-2.7-1.2
					c-1.1,0-1.5-0.3-1.5-1.2c0-1.2,0.4-1.2,12.8-1.2h12.8l0.4,4.2c0.3,1.5,0.3,3.1,0.1,4.6c-0.7,0.8-2-0.4-2.4-2.1
					c-0.5-2.4-1.5-2.9-7.1-3.4l-4.6-0.4v9.7l2.5-0.4c2.8-0.4,4.1-1.5,4.1-3.6c0-1,0.3-1.4,1.2-1.4c1.1,0,1.2,0.4,1.2,6.9
					s-0.1,6.9-1.2,6.9c-0.9,0-1.2-0.4-1.2-1.8c0-2.2-1.9-3.6-4.6-3.6h-2v3.8c0,5.4,1.1,6.7,5.8,6.6c5.3-0.1,6.6-0.6,7.5-3
					c0.5-1.4,1.1-2.1,1.9-2.1c1,0,1.1,0.3,0.8,1.9c-0.2,1.4-0.4,2.8-0.4,4.2v2.3h-18.1h-18.1l-4.7-6c-2.6-3.3-4.9-6-5.2-6
					c-1.2,0,0,8.2,1.3,9.1c0.8,0.4,1.6,0.5,2.5,0.5c1.2,0,1.6,0.3,1.6,1.2c0,1.1-0.4,1.2-9,1.2S187,216.6,187,215.5L187,215.5z
					 M174.9,196.1c4.5-2.3,4.5-10.4,0-12.7c-1.5-0.6-3.1-0.9-4.7-0.9h-3v14.3h3C171.8,196.9,173.4,196.6,174.9,196.1L174.9,196.1z
					 M153.4,215.5c0-0.9,0.4-1.2,1.8-1.2c1.2,0,2.4-0.5,3.2-1.4c1.2-1.2,1.5-2.3,1.9-7.4c0.3-4.5,0.3-8.9,0.1-13.4
					c-0.4-8.7-1.2-10.4-4.8-10.7c-1.7-0.1-2.2-0.4-2.2-1.4c0-1.2,0.3-1.2,12.1-1c12.1,0.2,12.1,0.2,15,1.9c4.9,2.9,6.5,8.4,3.8,13.6
					c-2,4-6.2,6-12.6,6H167l0.2,5.8c0.2,5.2,0.4,5.9,1.6,6.9c0.9,0.7,2,1.1,3.1,1.1c1.3,0,1.7,0.3,1.7,1.2c0,1.1-0.4,1.2-10.2,1.2
					S153.4,216.7,153.4,215.5L153.4,215.5z M277.5,211.6c0-5.8,0.1-6.3,1.1-6.3c0.8,0,1.3,0.6,1.5,1.8c0.9,2.7,2.7,4.9,5.1,6.3
					c3.8,1.9,8.4,0.5,8.4-2.6c0-2.2-1.6-3.6-7.2-6.4c-5-2.4-6.9-4-8.1-6.4c-1.8-3.7-0.4-8.2,3.2-10.3c3.4-1.7,6-1.7,11.4-0.1
					c1,0.3,1.4,0.2,1.4-0.6c0-0.6,0.5-1,1.2-1c1.1,0,1.2,0.4,1.2,5.4c0,4.8-0.1,5.4-1.1,5.4c-0.7,0-1.4-0.8-1.8-2.1
					c-1.6-4.5-7-6.6-9.7-3.9c-2.5,2.5-1.1,4.2,6.1,7.6c6.6,3.1,8.9,5.6,8.9,9.9c0,5.4-3.2,8.7-9.2,9.3c-2,0.3-4.1,0-6-0.9
					c-3-1.3-3.9-1.2-3.9,0.3c0,0.5-0.5,0.9-1.2,0.9C277.6,217.9,277.6,217.5,277.5,211.6L277.5,211.6z M251.1,211.6
					c0-5.9,0.1-6.3,1.2-6.3c0.6-0.1,1.1,0.3,1.2,0.9v0.1c0,1.9,2.7,5.7,4.8,6.8c4.2,2.2,9,0.8,9-2.7c0-1.9-1.8-3.4-8.1-6.6
					s-8.1-5.3-8.1-9.5c-0.1-3,1.7-5.7,4.4-6.9c3.1-1.3,6.7-1.3,9.8-0.1c1.8,0.9,1.9,0.9,2.3-0.2c0.2-0.7,0.8-1.1,1.5-1.1
					c1.1,0,1.2,0.5,1.2,5.4s-0.1,5.4-1.1,5.4c-0.8,0-1.4-0.7-1.8-2.1c-0.9-2.8-3.8-5.1-6.2-5.1c-4.3,0-6.1,3.6-2.9,5.9
					c2.1,1.3,4.2,2.5,6.4,3.6c6.3,3.1,7.6,4.6,7.9,8.7s-1.3,6.7-5.2,8.7c-3.2,1.7-6.9,1.7-10.1,0.1c-2.7-1.2-3.7-1.1-3.7,0.4
					c0,0.5-0.5,0.9-1.2,0.9C251.2,217.9,251.1,217.5,251.1,211.6L251.1,211.6z"/>
				<path id="path4165" class="st1" d="M125.1,101.7c-5.5-16.4-10-30.1-10-30.5s1.4-0.8,3.3-1c3.9-0.3,5.8-1.6,4.5-3.2
					c-0.7-0.8-2-0.9-10.6-0.5c-5.4,0.2-9.8,0.2-9.8,0c0-1,3.8-5.8,7.9-9.7C120.8,46.7,134.7,41,149.2,41c6.3-0.1,12.6,1,18.5,3.1
					c5.6,1.9,14.3,6.7,17.6,9.9l1.6,1.6l-2.6,0.8c-3.4,1-6,3.7-6.9,7.1c-0.9,3.4,0.2,6.9,4.1,13.5c7,11.8,7.1,16.5,0.4,38.6
					c-2.5,8.2-4.7,15.1-4.8,15.2s-0.4-0.1-0.6-0.5c-0.9-2.5-20.1-59.5-20.1-59.6c0.8-0.2,1.7-0.3,2.6-0.3c4.1-0.1,5.6-0.7,5.6-2.4
					v-1.5h-16.3c-12.8,0-16.4,0.1-16.6,0.7c-0.6,1.6,0.4,2.5,3.2,2.9l3.6,0.5c0.5,0.1,2.6,4.8,5.2,12.1l4.4,12l-6.1,18.4
					c-3.4,10.2-6.3,18.5-6.4,18.4C135.3,131.5,130.6,118.1,125.1,101.7z M176.8,145.2c0-0.1,4.1-11.9,9.1-26.2
					c11.2-32.2,12-34.9,12-43.1c0-5.5,0.1-6.1,0.9-5.1c1.4,1.9,4.3,10,5.3,14.8c1.1,7,1.2,14.1,0.3,21.2
					c-2.2,11.9-8.1,22.8-16.8,31.1C182.9,142.1,176.8,146.3,176.8,145.2z M119.3,144.3c-13.2-8.5-22.3-22.1-25.1-37.5
					c-1-5.6-0.8-15.5,0.5-21.7c1.1-5.2,3.4-11.5,4-10.9c0.2,0.2,26.7,72.4,26.7,72.8C125.3,147.7,123.1,146.7,119.3,144.3z
					 M141.8,152.4c-6.2-0.8-8.9-1.6-8.5-2.6c0.2-0.5,3.9-11.2,8.2-23.8s8.1-23.3,8.4-23.8c0.4-0.7,0.6-0.5,1.2,0.9
					c2.7,7,16.8,46,16.8,46.4c0,1.2-13.7,3.8-19.5,3.6C147,153,144.1,152.7,141.8,152.4L141.8,152.4z M159.8,157.6
					c31.2-5.5,54.2-35.5,50.7-66.5c-1.7-15.5-7.4-27-18.6-38.1c-11.2-11.4-26.6-17.7-42.6-17.5c-11.2,0-22.3,3-31.9,8.8
					C111.2,48,101.9,57,98,63c-14.5,22.6-13.6,49.7,2.5,71C114.3,152.4,137.1,161.4,159.8,157.6L159.8,157.6z M137.7,161.2
					c-35.5-6.5-59-40.6-52.4-76c2.3-12.5,8.1-24,16.9-33.2c9.2-9.8,21.3-16.4,34.5-19c8.4-1.2,16.9-1.2,25.2,0
					c35.3,7,58.3,41.4,51.2,76.7c-4.1,20.5-17.7,37.7-36.6,46.5c-8.2,3.8-15.2,5.4-25.4,5.6C146.6,162.1,142.1,161.9,137.7,161.2
					L137.7,161.2z"/>
			</g>
		</g>
	</g>
</g>
</svg>
