<?xml version="1.0" encoding="utf-8"?>
<!-- Generator: Adobe Illustrator 22.1.0, SVG Export Plug-In . SVG Version: 6.00 Build 0)  -->
<svg version="1.1" id="レイヤー_1" xmlns="http://www.w3.org/2000/svg" xmlns:xlink="http://www.w3.org/1999/xlink" x="0px"
	 y="0px" viewBox="0 0 469 170" style="enable-background:new 0 0 469 170;" xml:space="preserve">
<style type="text/css">
	.st0{opacity:0.54;enable-background:new    ;}
	.st1{fill:url(#path-2_6_);}
	.st2{filter:url(#Adobe_OpacityMaskFilter);}
	.st3{fill:#FFFFFF;}
	.st4{mask:url(#mask-3_1_);}
	.st5{fill:#FFA000;}
	.st6{fill:#F57C00;}
	.st7{filter:url(#Adobe_OpacityMaskFilter_1_);}
	.st8{mask:url(#mask-3_2_);}
	.st9{fill:#FFCA28;}
	.st10{filter:url(#Adobe_OpacityMaskFilter_2_);}
	.st11{mask:url(#mask-3_3_);fill:#FFFFFF;fill-opacity:0.2;}
	.st12{filter:url(#Adobe_OpacityMaskFilter_3_);}
	.st13{opacity:0.2;mask:url(#mask-3_4_);fill:#A52714;enable-background:new    ;}
	.st14{fill:none;}
	.st15{fill:url(#path-4_2_);}
</style>
<title>logo_lockup_firebase_horizontal</title>
<desc>Created with Sketch.</desc>
<g id="Page-1">
	<g id="styleguide" transform="translate(-243.000000, -875.000000)">
		<g id="Group-10" transform="translate(154.000000, 835.000000)">
			<g id="logo_lockup_firebase_horizontal" transform="translate(66.000000, 34.000000)">
				<path id="Shape" class="st0" d="M163.8,125.5H155V57.8h39.8v8.3h-31.1v22.2h28v8.1h-28V125.5z M211.3,67.5
					c-2.1,2.1-5.4,2.4-7.8,0.8c-2.5-1.6-3.4-4.8-2.3-7.5s4-4.3,6.9-3.7c2.9,0.6,5,3.1,5,6C213.2,64.8,212.5,66.4,211.3,67.5
					L211.3,67.5z M211.3,125.5h-8.8V79.2h8.8V125.5z M230.6,125.5h-8.8V79.2h8.4v7.6h0.4c1-2.7,3-4.9,5.5-6.2
					c2.4-1.5,5.2-2.4,8.1-2.5c2.2-0.1,4.5,0.3,6.6,1.1l-3.3,8.1c-1.5-0.5-3.1-0.7-4.7-0.7c-3.2,0-6.3,1.4-8.4,3.7
					c-2.4,2.5-3.7,5.8-3.7,9.8L230.6,125.5z M274.7,127c-7.1,0-12.8-2.3-17.2-7c-4.4-4.7-6.6-10.6-6.6-17.7
					c-0.1-6.4,2.2-12.6,6.4-17.4c4.1-4.8,10.1-7.5,16.4-7.3c6.9,0,12.5,2.2,16.6,6.7s6.2,10.5,6.2,18l-0.1,1.6h-36.9
					c0.3,4.7,1.8,8.4,4.7,11.1c2.7,2.6,6.4,4.1,10.2,4.1c6.3,0,10.5-2.6,12.8-7.9l7.8,3.2c-1.6,3.7-4.2,6.8-7.5,9
					C284.1,125.8,279.8,127,274.7,127z M287.3,96.7c-0.2-2.7-1.4-5.2-3.7-7.6c-2.3-2.4-5.6-3.6-10.1-3.5c-3.1-0.1-6.1,1-8.4,3
					c-2.5,2.1-4.2,5-4.9,8.1L287.3,96.7z M328.4,127c-3.3,0.1-6.6-0.7-9.5-2.2c-2.6-1.3-4.8-3.3-6.3-5.7h-0.4v6.4h-8.4V57.8h8.8
					v21.4l-0.4,6.4h0.4c1.6-2.4,3.8-4.4,6.3-5.7c2.9-1.5,6.2-2.3,9.5-2.3c6,0,11.3,2.4,15.6,7.1c4.4,4.7,6.6,10.6,6.6,17.6
					c0,7-2.2,12.9-6.6,17.6C339.6,124.7,334.4,127,328.4,127z M326.9,119c4,0,7.8-1.6,10.5-4.6c2.9-3.1,4.4-7.1,4.4-12.2
					c0-5-1.5-9.1-4.4-12.2c-2.7-2.9-6.5-4.6-10.5-4.6c-4,0-7.8,1.6-10.5,4.5c-2.9,3-4.3,7.1-4.3,12.2c0,5.1,1.5,9.2,4.4,12.2
					C319.1,117.5,323,119.1,326.9,119L326.9,119z M372.9,127c-5,0-9.1-1.4-12.4-4.3c-3.3-2.8-5-6.6-5-11.3c0-5,2-9,5.9-11.9
					c3.9-2.9,8.8-4.3,14.6-4.3c5.1,0,9.4,0.9,12.7,2.8v-1.3c0.1-3.1-1.2-6.1-3.5-8.2c-2.4-2.1-5.5-3.1-8.7-3c-2.4,0-4.8,0.6-6.9,1.8
					c-2,1.1-3.5,2.8-4.2,4.9l-8-3.4c1.1-2.8,3.2-5.4,6.4-7.7c3.2-2.4,7.4-3.6,12.6-3.5c6,0,10.9,1.7,14.9,5.2
					c4,3.4,5.9,8.3,5.9,14.7v28.1h-8.4v-6.4h-0.4C384.8,124.4,379.6,127,372.9,127L372.9,127z M374.3,119c3.7,0,7.2-1.4,9.9-4
					c2.8-2.4,4.5-5.8,4.5-9.5c-2.5-2-6.2-3-11.2-3c-4.3,0-7.5,0.9-9.6,2.7c-2,1.5-3.2,3.9-3.2,6.4c0,2.2,1.1,4.2,3,5.4
					C369.6,118.4,372,119.1,374.3,119L374.3,119z M422.9,127c-5.2,0-9.5-1.3-12.9-3.8c-3.3-2.4-5.9-5.7-7.4-9.5l7.8-3.2
					c2.5,5.8,6.7,8.7,12.7,8.7c2.4,0.1,4.7-0.5,6.7-1.8c1.6-1,2.6-2.8,2.6-4.7c0-3-2.1-5.1-6.4-6.2l-9.4-2.3c-3.1-0.8-6-2.3-8.5-4.3
					c-2.6-2-4.1-5.2-4-8.6c0-4.1,1.8-7.4,5.5-10c3.8-2.6,8.4-3.9,13-3.8c3.9-0.1,7.7,0.9,11.1,2.8c3.2,1.8,5.6,4.6,7,8l-7.6,3.1
					c-1.7-4.1-5.3-6.2-10.7-6.2c-2.3-0.1-4.6,0.5-6.6,1.6c-1.6,0.8-2.7,2.5-2.7,4.4c0,2.7,2.1,4.5,6.2,5.4l9.2,2.2
					c4.4,1,7.6,2.7,9.7,5.2c2,2.3,3.2,5.3,3.1,8.3c0,4.1-1.9,7.9-5.1,10.4C432.7,125.6,428.3,127,422.9,127L422.9,127z M470.1,127
					c-7.1,0-12.8-2.3-17.2-7s-6.6-10.6-6.6-17.7c-0.1-6.4,2.2-12.6,6.4-17.4c4.1-4.8,10.2-7.4,16.5-7.3c7,0,12.5,2.2,16.6,6.7
					c4.1,4.5,6.2,10.5,6.2,18l-0.1,1.6H455c0.3,4.7,1.8,8.4,4.7,11.1c2.7,2.6,6.4,4.1,10.2,4.1c6.3,0,10.5-2.6,12.8-7.9l7.8,3.2
					c-1.6,3.7-4.2,6.8-7.5,9C479.4,125.8,475.1,127,470.1,127L470.1,127z M482.6,96.7c-0.2-2.7-1.4-5.2-3.7-7.6
					c-2.3-2.4-5.6-3.6-10.1-3.5c-3.1-0.1-6.1,1-8.4,3c-2.5,2.1-4.2,5-4.9,8.1L482.6,96.7z"/>
				<g id="_Group_">
					<g id="_Clip_Group_" transform="translate(23.833333, 5.958333)">
						<g id="_Path_3">
							
								<linearGradient id="path-2_6_" gradientUnits="userSpaceOnUse" x1="-362.0396" y1="397.9868" x2="-360.9964" y2="397.228" gradientTransform="matrix(95.3333 0 0 -131.0572 34511.1133 52200.3359)">
								<stop  offset="0" style="stop-color:#FFFFFF;stop-opacity:0.1"/>
								<stop  offset="0.14" style="stop-color:#FFFFFF;stop-opacity:8.000000e-02"/>
								<stop  offset="0.61" style="stop-color:#FFFFFF;stop-opacity:2.000000e-02"/>
								<stop  offset="1" style="stop-color:#FFFFFF;stop-opacity:0"/>
							</linearGradient>
							<path id="path-2_1_" class="st1" d="M83,48.3c-0.2-1.1-1-2-2-2.3c-1.1-0.3-2.2-0.1-3,0.7L62.5,62.2L50.3,39
								c-0.5-1-1.5-1.6-2.6-1.6c-1.1,0-2.1,0.6-2.6,1.6l-6.7,12.7L21.7,20.6c-0.6-1.1-1.9-1.7-3.1-1.5c-1.3,0.2-2.2,1.2-2.4,2.5
								L0,124.8l43.1,24.2c2.7,1.5,6,1.5,8.7,0l43.5-24.2L83,48.3z"/>
						</g>
						<defs>
							<filter id="Adobe_OpacityMaskFilter" filterUnits="userSpaceOnUse" x="-6" y="19" width="101.3" height="108.7">
								<feColorMatrix  type="matrix" values="1 0 0 0 0  0 1 0 0 0  0 0 1 0 0  0 0 0 1 0"/>
							</filter>
						</defs>
						<mask maskUnits="userSpaceOnUse" x="-6" y="19" width="101.3" height="108.7" id="mask-3_1_">
							<g class="st2">
								<path id="path-2_2_" class="st3" d="M83,48.3c-0.2-1.1-1-2-2-2.3c-1.1-0.3-2.2-0.1-3,0.7L62.5,62.2L50.3,39
									c-0.5-1-1.5-1.6-2.6-1.6c-1.1,0-2.1,0.6-2.6,1.6l-6.7,12.7L21.7,20.6c-0.6-1.1-1.9-1.7-3.1-1.5c-1.3,0.2-2.2,1.2-2.4,2.5
									L0,124.8l43.1,24.2c2.7,1.5,6,1.5,8.7,0l43.5-24.2L83,48.3z"/>
							</g>
						</mask>
						<g id="_Group_2" class="st4">
							<g transform="translate(-5.958333, 0.000000)">
								<path id="_Path_" class="st5" d="M6,124.8L22.1,21.5c0.2-1.3,1.2-2.3,2.4-2.5c1.3-0.2,2.5,0.4,3.1,1.5l16.7,31.1L51,39
									c0.5-1,1.5-1.6,2.6-1.6c1.1,0,2.1,0.6,2.6,1.6l45,85.7H6z"/>
								<g id="_Group_3" transform="translate(0.000000, 26.067708)">
									<g style="opacity:0.12;enable-background:new    ;">
										
											<image style="overflow:visible;" width="87" height="111" id="Bitmap" xlink:href="CBCB28A87E911A94.png"  transform="matrix(0.7448 0 0 0.7448 0 19)">
										</image>
									</g>
									<polygon id="Shape_1_" class="st6" points="61.7,58.5 44.3,25.6 6,98.7 									"/>
								</g>
							</g>
						</g>
						<defs>
							<filter id="Adobe_OpacityMaskFilter_1_" filterUnits="userSpaceOnUse" x="-3" y="39.1" width="104.3" height="114">
								<feColorMatrix  type="matrix" values="1 0 0 0 0  0 1 0 0 0  0 0 1 0 0  0 0 0 1 0"/>
							</filter>
						</defs>
						<mask maskUnits="userSpaceOnUse" x="-3" y="39.1" width="104.3" height="114" id="mask-3_2_">
							<g class="st7">
								<path id="path-2_3_" class="st3" d="M83,48.3c-0.2-1.1-1-2-2-2.3c-1.1-0.3-2.2-0.1-3,0.7L62.5,62.2L50.3,39
									c-0.5-1-1.5-1.6-2.6-1.6c-1.1,0-2.1,0.6-2.6,1.6l-6.7,12.7L21.7,20.6c-0.6-1.1-1.9-1.7-3.1-1.5c-1.3,0.2-2.2,1.2-2.4,2.5
									L0,124.8l43.1,24.2c2.7,1.5,6,1.5,8.7,0l43.5-24.2L83,48.3z"/>
							</g>
						</mask>
						<g id="_Group_4" class="st8">
							<g transform="translate(-2.979167, 20.109375)">
								<g style="opacity:0.2;enable-background:new    ;">
									
										<image style="overflow:visible;" width="140" height="153" id="Bitmap_2_" xlink:href="CBCB28A87E911A97.png"  transform="matrix(0.7448 0 0 0.7448 0 19)">
									</image>
								</g>
								<path id="Shape_2_" class="st9" d="M98.3,104.7L86,28.2c-0.2-1.1-1-2-2-2.3c-1.1-0.3-2.2-0.1-3,0.7L3,104.7l43.1,24.2
									c2.7,1.5,6,1.5,8.7,0L98.3,104.7z"/>
							</g>
						</g>
						<defs>
							<filter id="Adobe_OpacityMaskFilter_2_" filterUnits="userSpaceOnUse" x="-0.1" y="19" width="95.4" height="106">
								<feColorMatrix  type="matrix" values="1 0 0 0 0  0 1 0 0 0  0 0 1 0 0  0 0 0 1 0"/>
							</filter>
						</defs>
						<mask maskUnits="userSpaceOnUse" x="-0.1" y="19" width="95.4" height="106" id="mask-3_3_">
							<g class="st10">
								<path id="path-2_4_" class="st3" d="M83,48.3c-0.2-1.1-1-2-2-2.3c-1.1-0.3-2.2-0.1-3,0.7L62.5,62.2L50.3,39
									c-0.5-1-1.5-1.6-2.6-1.6c-1.1,0-2.1,0.6-2.6,1.6l-6.7,12.7L21.7,20.6c-0.6-1.1-1.9-1.7-3.1-1.5c-1.3,0.2-2.2,1.2-2.4,2.5
									L0,124.8l43.1,24.2c2.7,1.5,6,1.5,8.7,0l43.5-24.2L83,48.3z"/>
							</g>
						</mask>
						<path id="_Compound_Path_" class="st11" d="M83,48.3c-0.2-1.1-1-2-2-2.3c-1.1-0.3-2.2-0.1-3,0.7L62.5,62.2L50.3,39
							c-0.5-1-1.5-1.6-2.6-1.6c-1.1,0-2.1,0.6-2.6,1.6l-6.7,12.7L21.7,20.6c-0.6-1.1-1.9-1.7-3.1-1.5c-1.3,0.2-2.2,1.2-2.4,2.5
							L0,124.8h-0.1l0.1,0.1l0.4,0.2l62-62.1l15.5-15.5c0.8-0.8,2-1.1,3-0.7c1.1,0.3,1.8,1.2,2,2.3l12.3,75.8l0.1-0.1L83,48.3z
							 M0.1,124.6l16-102.3c0.2-1.3,1.2-2.3,2.4-2.5c1.3-0.2,2.5,0.4,3.1,1.5l16.7,31.1L45,39.8c0.5-1,1.5-1.6,2.6-1.6
							c1.1,0,2.1,0.6,2.6,1.6l11.9,22.7L0.1,124.6z"/>
						<defs>
							<filter id="Adobe_OpacityMaskFilter_3_" filterUnits="userSpaceOnUse" x="0" y="124.1" width="95.3" height="26">
								<feColorMatrix  type="matrix" values="1 0 0 0 0  0 1 0 0 0  0 0 1 0 0  0 0 0 1 0"/>
							</filter>
						</defs>
						<mask maskUnits="userSpaceOnUse" x="0" y="124.1" width="95.3" height="26" id="mask-3_4_">
							<g class="st12">
								<path id="path-2_5_" class="st3" d="M83,48.3c-0.2-1.1-1-2-2-2.3c-1.1-0.3-2.2-0.1-3,0.7L62.5,62.2L50.3,39
									c-0.5-1-1.5-1.6-2.6-1.6c-1.1,0-2.1,0.6-2.6,1.6l-6.7,12.7L21.7,20.6c-0.6-1.1-1.9-1.7-3.1-1.5c-1.3,0.2-2.2,1.2-2.4,2.5
									L0,124.8l43.1,24.2c2.7,1.5,6,1.5,8.7,0l43.5-24.2L83,48.3z"/>
							</g>
						</mask>
						<path id="_Path_2" class="st13" d="M51.8,148.2c-2.7,1.5-6,1.5-8.7,0l-43-24.1L0,124.8l43.1,24.2c2.7,1.5,6,1.5,8.7,0
							l43.5-24.2l-0.1-0.7L51.8,148.2z"/>
					</g>
					<polygon id="_Rectangle_3" class="st14" points="0,19 143,19 143,162 0,162 					"/>
				</g>
				<g id="_Path_3-Copy">
					
						<linearGradient id="path-4_2_" gradientUnits="userSpaceOnUse" x1="-338.1928" y1="403.9442" x2="-337.1496" y2="403.1855" gradientTransform="matrix(95 0 0 -131 32149 52964)">
						<stop  offset="0" style="stop-color:#FFFFFF;stop-opacity:0.1"/>
						<stop  offset="0.14" style="stop-color:#FFFFFF;stop-opacity:8.000000e-02"/>
						<stop  offset="0.61" style="stop-color:#FFFFFF;stop-opacity:2.000000e-02"/>
						<stop  offset="1" style="stop-color:#FFFFFF;stop-opacity:0"/>
					</linearGradient>
					<path id="path-4_1_" class="st15" d="M106.7,54.3c-0.2-1.1-1-2-2-2.3c-1.1-0.3-2.2-0.1-3,0.7L86.2,68.2L74.1,45
						c-0.5-1-1.5-1.6-2.6-1.6S69.4,44,68.9,45l-6.6,12.7L45.6,26.6c-0.6-1.1-1.9-1.7-3.1-1.5c-1.3,0.2-2.2,1.2-2.4,2.5L24,130.7
						l43,24.2c2.7,1.5,6,1.5,8.7,0l43.3-24.2L106.7,54.3z"/>
				</g>
			</g>
		</g>
	</g>
</g>
</svg>
