<?xml version="1.0" encoding="utf-8"?>
<!-- Generator: Adobe Illustrator 23.0.1, SVG Export Plug-In . SVG Version: 6.00 Build 0)  -->
<svg version="1.1" id="レイヤー_1" xmlns="http://www.w3.org/2000/svg" xmlns:xlink="http://www.w3.org/1999/xlink" x="0px"
	 y="0px" viewBox="0 0 141.6 106.5" style="enable-background:new 0 0 141.6 106.5;" xml:space="preserve">
<style type="text/css">
	.st0{fill:#CC6798;}
</style>
<title>icon_sass</title>
<g id="レイヤー_2_1_">
	<g id="レイヤー_1-2">
		<path class="st0" d="M0,42.5c0.1-0.5,0.2-1,0.2-1.6c0.6-2.8,1.6-5.4,3.1-7.8c1.7-2.9,3.7-5.5,6-7.9c3.6-3.7,7.6-7,11.9-9.9
			c3.2-2.1,6.5-4,9.9-5.8C36,7,41.1,4.8,46.4,3c5.4-1.8,11-2.8,16.7-3c4.7-0.2,9.5,0.5,14,2c3.2,1,6.1,2.8,8.5,5.2
			c1.9,2,3.1,4.5,3.5,7.3c0.6,4,0,8.1-1.6,11.8c-1.4,3.4-3.5,6.6-6,9.4c-3.2,3.6-7.1,6.5-11.5,8.6c-3.4,1.6-7,2.7-10.7,3.5
			c-2,0.5-4.1,0.8-6.2,1c-3.8,0.4-7.6,0.2-11.3-0.7c-2.7-0.7-5.1-2.1-7-4.1c-0.9-0.9-1.6-2-2-3.2c-0.1-0.3-0.2-0.7-0.1-1
			c0-0.4,0.4-0.7,0.8-0.6c0.2,0,0.3,0.1,0.4,0.2c0.5,0.4,0.9,0.9,1.3,1.3c1.5,1.2,3.2,2.1,5,2.6c2.2,0.7,4.5,0.9,6.8,0.8
			c3-0.2,6-0.6,8.9-1.4c4.6-1.2,9-3.1,12.9-5.7c3.8-2.4,7.1-5.6,9.6-9.3c1.4-2,2.4-4.2,3-6.5c0.6-2.1,0.4-4.4-0.4-6.4
			c-0.6-1.4-1.7-2.6-3-3.3c-1.8-1.1-3.7-1.8-5.7-2.2c-2.5-0.5-5.1-0.7-7.7-0.6c-3.3,0.1-6.5,0.5-9.7,1.3c-4.9,1.1-9.6,2.8-14.1,4.9
			c-4.7,2.2-9.3,4.7-13.6,7.6c-3.6,2.3-6.9,5-9.9,8c-2,2-3.6,4.3-4.9,6.8c-1,2-1.6,4.1-1.7,6.3c-0.2,3.2,0.7,6.3,2.6,8.9
			c1.4,1.8,2.9,3.5,4.6,5c2.8,2.5,5.9,4.7,8.8,7c2,1.5,3.9,3.2,5.7,5c0.5,0.5,0.5,0.5,1,0.2l13.3-7.1c0.2-0.1,0.3-0.2,0.4-0.4
			c2.2-3.1,5.2-5.6,8.6-7.3c1.1-0.6,2.2-0.9,3.5-1c2.3-0.3,4.4,1.4,4.7,3.7c0.3,1.7,0.3,3.5,0,5.2c0,0.1,0,0.1,0,0.2
			c0.2-0.2,0.4-0.4,0.7-0.5c0.4-0.3,0.8-0.4,1.2-0.4c0.7,0,1.4,0.2,1.9,0.6c0.8,0.4,1.2,1.4,0.9,2.3c-0.7,2.6-1.4,5.2-2,7.8
			c-0.5,2.1-1,4.1-1.4,6.2c-0.3,1.2-0.3,2.5-0.2,3.7c0,0.1,0,0.3,0.1,0.3s0.2-0.1,0.3-0.2c0.6-0.9,1.1-1.8,1.5-2.7
			c2.3-4.5,4.2-9.1,6.3-13.7c1.6-3.6,3.2-7.2,4.7-10.8c0.7-1.6,1.2-3.2,1.5-4.9c0.1-0.7,0.7-1.3,1.4-1.4c0.8-0.2,1.6-0.4,2.5-0.5
			c1.2-0.2,2.4-0.1,3.6,0.1c0.5,0.1,0.9,0.3,1.2,0.6c0.3,0.3,0.4,0.6,0.2,1c-0.6,1.5-1,3-1.4,4.6c-0.7,3.9-0.1,7.9,1.9,11.2
			c0,0.1,0,0.2,0.2,0.2s0.1-0.1,0.2-0.2c2.3-3.8,4.5-7.7,6.5-11.6c0.7-1.3,1.3-2.6,1.8-4c0.3-1.1,0.5-2.2,0.9-3.3
			c0.2-0.4,0.3-0.9,0.4-1.3c0.1-0.3,0.3-0.5,0.6-0.7c0.8-0.4,1.6-0.6,2.5-0.7c1.2-0.2,2.3-0.2,3.5-0.1c0.7,0,1.3,0.3,1.9,0.8
			c0.3,0.3,0.4,0.7,0.3,1.1c-0.5,1.5-1,3-1.4,4.5c-0.4,1.7-0.4,3.5-0.2,5.2c0.1,1.1,0.3,2.3,0.7,3.3c0.7,1.6,1.5,3.1,2.2,4.6
			c0.1,0.2,0.2,0.2,0.4,0.1c1.9-0.9,4-1.6,6.1-2.1c1.7-0.4,3.4-0.6,5.1-0.7c2.9-0.2,5.9,0.2,8.7,1c3.5,1,6.7,3,9.1,5.8
			c1.7,2,2.8,4.5,3.2,7.1c0.4,2.8-0.5,5.7-2.4,7.7c-1.1,1.1-2.3,2-3.8,2.6c-0.4,0.1-0.8,0.2-1.1,0.2c-0.2,0-0.4-0.1-0.5-0.3
			c-0.1-0.2-0.1-0.5,0.1-0.6c0.2-0.2,0.5-0.4,0.7-0.5c1.1-0.7,2.1-1.6,2.9-2.7c1.3-1.9,1.6-4.4,0.7-6.5c-1-2.6-2.9-4.8-5.4-6.2
			c-2.1-1.2-4.5-2-6.9-2.4c-1.8-0.3-3.6-0.5-5.4-0.5c-3.2-0.1-6.5,0.5-9.5,1.7c-0.3,0.1-0.3,0.2-0.2,0.5c0.6,1.5,0.9,3.1,1,4.6
			c0.1,2.2-0.7,4.4-2.2,6c-2,2.4-4.7,4.2-7.6,5.3c-0.8,0.3-1.6,0.6-2.5,0.8c-1.8,0.5-3.6-0.4-4.2-2.2c0-0.2-0.1-0.3-0.1-0.5
			c-0.1-0.6-0.1-1.3,0-1.9c0.5-2.8,1.8-5.5,3.6-7.7c1.3-1.7,2.7-3.2,4.4-4.5c0.2-0.1,0.2-0.3,0.1-0.4l0,0c-0.7-1.4-1.4-2.7-2-4.2
			c-0.7-2.1-1.3-4.2-1.7-6.4l-0.1-0.5c-0.1,0.1-0.2,0.2-0.2,0.3c-2.3,4.6-4.9,9-7.8,13.3c-0.4,0.5-0.5,1.1-0.2,1.7
			c0.8,1.8,1.2,3.7,1.3,5.6c0.1,3.5-1.6,6.8-4.6,8.7c-2.6,1.8-5.6,3-8.7,3.3c-1.1,0.2-2.1,0.1-3.2-0.1c-1-0.2-1.7-0.9-1.8-1.9
			c-0.1-0.7,0.1-1.4,0.5-1.9c0.9-1.3,1.8-2.5,2.8-3.7c1.9-2.3,3.8-4.4,5.6-6.8c0.5-0.6,0.9-1.3,1.4-1.9c0.1-0.1,0.1-0.3,0-0.4
			c-0.7-1.6-1.6-3.1-2.2-4.7c-0.9-2.3-1.5-4.6-1.9-7c0-0.1,0-0.1-0.1-0.2l-1,2.3c-2.1,5.2-4.4,10.3-7,15.3c-1.4,2.7-2.8,5.3-4.3,8
			c-0.9,1.7-2.2,3.2-3.7,4.3c-0.9,0.8-2.2,1-3.3,0.5c-0.9-0.4-1.6-1.2-1.9-2.2c-0.4-1-0.6-2-0.6-3.1c-0.1-1.7-0.1-3.4,0.2-5.1
			c0-0.1,0-0.2,0-0.5c-0.2,0.3-0.3,0.6-0.5,0.9c-1.2,3-2.6,5.8-4.1,8.6c-0.5,1-1.2,1.8-2,2.6c-1.1,0.8-2.4,1.1-3.7,0.9
			c-1.5-0.2-2.9-1.1-3.6-2.4c-1.2-1.9-2.1-3.9-2.5-6.1c-0.5-1.8-0.7-3.6-0.6-5.4c0.1-3.3,0.7-6.6,1.7-9.8c0-0.1,0.1-0.2,0.1-0.3
			c-0.1-0.1-0.2,0-0.3,0.1c-2.5,1.3-4.9,2.8-7.3,4.2c-0.2,0.1-0.3,0.2-0.1,0.4c0.8,1.7,1.3,3.4,1.5,5.2c0.2,1.3,0.2,2.6,0.2,3.9
			c-0.1,5.8-2.3,11.4-6.2,15.6c-3,3.3-6.8,5.6-11.1,6.7c-3.3,0.8-6.7,0.8-9.9,0c-1.2-0.3-2.2-1-3-2c-1.4-1.7-2.2-3.7-2.4-5.9
			c-0.3-3.9,0.9-7.8,3.4-10.8c2.1-2.5,4.5-4.7,7.3-6.6c3.5-2.5,7.2-4.7,11-6.6l1.5-0.8c-0.4-0.4-0.8-0.7-1.2-1
			c-2.3-1.8-4.7-3.4-7.1-5.1c-3.2-2.2-6.4-4.5-9.4-7C7.5,57.4,5,54.6,3,51.5c-1.3-2-2.2-4.2-2.6-6.5c0-0.2,0-0.3-0.1-0.5v-2H0z
			 M31.9,81c0-1.5-0.2-3-0.5-4.5c-0.2-0.7-0.2-0.7-0.8-0.3h-0.1c-4.1,2.3-7.9,5-11.5,8c-2,1.6-3.5,3.7-4.6,6
			c-0.8,1.5-1.1,3.2-1.1,4.9c0.1,2,1,3.2,3.3,3.3c1.6,0,3.2-0.4,4.6-1.1c2.6-1.2,4.8-3,6.6-5.2C30.5,89,31.9,85.1,31.9,81z
			 M60.4,60.7v-0.3c0-0.7-0.3-1-1-1c-0.4,0-0.8,0.1-1.2,0.3c-1.3,0.6-2.5,1.5-3.4,2.7c-1,1.2-1.8,2.6-2.6,4
			c-2.6,4.5-3.7,9.7-3.3,14.9c0.1,1,0.3,2,0.8,2.8c0.5,0.9,1,0.9,1.7,0.2c0.6-0.7,1.1-1.5,1.5-2.3c1.1-2.1,1.9-4.3,2.8-6.6
			c1.5-3.7,2.9-7.5,4-11.3C60,63,60.3,61.9,60.4,60.7z M105.9,72.7c0-0.7-0.1-1.4-0.3-2c-0.1-0.4-0.1-0.4-0.4-0.1l-0.2,0.2
			c-2.1,1.9-3.7,4.3-4.6,7c-0.3,0.6-0.4,1.3-0.5,2c0,0.5,0.1,0.6,0.6,0.4l0.3-0.1C103.9,79,106,76,105.9,72.7L105.9,72.7z
			 M86.7,76.7c-2.1,2.8-4.3,5.4-6.7,7.9c-0.1,0.1-0.2,0.2-0.2,0.3s0.3,0.1,0.4,0.1c0.2,0,0.4-0.1,0.5-0.2c0.4-0.2,0.8-0.4,1.1-0.6
			c1.6-1,3-2.3,4-3.9C86.5,79.3,86.8,78,86.7,76.7L86.7,76.7z M58.7,80.1L58.7,80.1L58.7,80.1L58.7,80.1
			C58.7,80.2,58.8,80.2,58.7,80.1L58.7,80.1z"/>
	</g>
</g>
</svg>
