<?xml version="1.0" encoding="utf-8"?>
<!-- Generator: Adobe Illustrator 22.1.0, SVG Export Plug-In . SVG Version: 6.00 Build 0)  -->
<svg version="1.1" id="レイヤー_1" xmlns="http://www.w3.org/2000/svg" xmlns:xlink="http://www.w3.org/1999/xlink" x="0px"
	 y="0px" viewBox="0 0 28.5 28.1" style="enable-background:new 0 0 28.5 28.1;" xml:space="preserve">
<style type="text/css">
	.st0{fill:#34A853;}
	.st1{fill:#EA4335;}
	.st2{fill:#4285F4;}
</style>
<title>menu_open</title>
<path class="st0" d="M27.6,23.4H15.1c-0.5,0-0.9,0.4-0.9,0.9v2.9c0,0.5,0.4,0.9,0.9,0.9h12.5c0.5,0,0.9-0.4,0.9-0.9v-2.9
	C28.5,23.8,28.1,23.4,27.6,23.4z"/>
<path class="st1" d="M27.6,0H0.9C0.4,0,0,0.4,0,0.9c0,0,0,0,0,0v2.9c0,0.5,0.4,0.9,0.9,0.9h26.7c0.5,0,0.9-0.4,0.9-0.9V0.9
	C28.5,0.4,28.1,0,27.6,0z"/>
<path class="st2" d="M27.6,11.7H8c-0.5,0-0.9,0.4-0.9,0.9v2.9c0,0.5,0.4,0.9,0.9,0.9h19.6c0.5,0,0.9-0.4,0.9-0.9v-2.9
	C28.5,12.1,28.1,11.7,27.6,11.7L27.6,11.7z"/>
</svg>
