<svg xmlns="http://www.w3.org/2000/svg" viewBox="0 0 22.73 22.73"><defs><style>.cls-1{fill:#34a853;}.cls-2{fill:#f2ba2f;}.cls-3{fill:#ea4335;}.cls-4{fill:#4285f4;}</style></defs><title>menu_close</title><g id="レイヤー_2" data-name="レイヤー 2"><g id="レイヤー_1-2" data-name="レイヤー 1"><path class="cls-1" d="M.27,19.14a.89.89,0,0,0,0,1.28l2.05,2a.9.9,0,0,0,1.27,0l11.1-11.1H8Z"/><path class="cls-2" d="M3.59.27a.88.88,0,0,0-1.27,0l-2,2.05a.88.88,0,0,0,0,1.27L8,11.37h6.65Z"/><path class="cls-3" d="M22.47,2.32l-2-2a.89.89,0,0,0-1.28,0L8,11.37h6.65l7.78-7.78A.9.9,0,0,0,22.47,2.32Z"/><path class="cls-4" d="M22.47,19.14l-7.78-7.77H8l11.1,11.1a.91.91,0,0,0,1.28,0l2-2A.91.91,0,0,0,22.47,19.14Z"/></g></g></svg>